<svg version="1.1" xmlns="http://www.w3.org/2000/svg" xmlns:xlink="http://www.w3.org/1999/xlink" stroke-linecap="round" stroke-linejoin="round" stroke-width="0" fill-rule="evenodd" width="41.5050630001mm" height="57.0060060005mm" viewBox="130439.9999999 -125128.9710004 41505.0630001 57006.0060005" id="HeyfdZAFGUnCmeg_jNLZ"><defs><g id="HeyfdZAFGUnCmeg_jNLZ_pad-12"><polygon points="550,-1500 550,1500 -550,1500 -550,-1500"/><circle cx="550" cy="-1500" r="250"/><circle cx="550" cy="1500" r="250"/><circle cx="-550" cy="1500" r="250"/><circle cx="-550" cy="-1500" r="250"/><polygon points="800,-1500 800,1500 300,1500 300,-1500"/><polygon points="550,1250 -550,1250 -550,1750 550,1750"/><polygon points="-300,1500 -300,-1500 -800,-1500 -800,1500"/><polygon points="-550,-1750 550,-1750 550,-1250 -550,-1250"/></g><g id="HeyfdZAFGUnCmeg_jNLZ_pad-13"><polygon points="200,275 -200,275 -200,-275 200,-275"/><circle cx="200" cy="275" r="200"/><circle cx="-200" cy="275" r="200"/><circle cx="-200" cy="-275" r="200"/><circle cx="200" cy="-275" r="200"/><polygon points="200,75 -200,75 -200,475 200,475"/><polygon points="0,275 0,-275 -400,-275 -400,275"/><polygon points="-200,-475 200,-475 200,-75 -200,-75"/><polygon points="400,-275 400,275 0,275 0,-275"/></g><g id="HeyfdZAFGUnCmeg_jNLZ_pad-14"><polygon points="550,-1250 550,1250 -550,1250 -550,-1250"/><circle cx="550" cy="-1250" r="250"/><circle cx="550" cy="1250" r="250"/><circle cx="-550" cy="1250" r="250"/><circle cx="-550" cy="-1250" r="250"/><polygon points="800,-1250 800,1250 300,1250 300,-1250"/><polygon points="550,1000 -550,1000 -550,1500 550,1500"/><polygon points="-300,1250 -300,-1250 -800,-1250 -800,1250"/><polygon points="-550,-1500 550,-1500 550,-1000 -550,-1000"/></g><g id="HeyfdZAFGUnCmeg_jNLZ_pad-15"><polygon points="-375,625 -375,-625 375,-625 375,625"/><circle cx="-375" cy="625" r="375"/><circle cx="-375" cy="-625" r="375"/><circle cx="375" cy="-625" r="375"/><circle cx="375" cy="625" r="375"/><polygon points="0,625 0,-625 -750,-625 -750,625"/><polygon points="-375,-1000 375,-1000 375,-250 -375,-250"/><polygon points="750,-625 750,625 0,625 0,-625"/><polygon points="375,250 -375,250 -375,1000 375,1000"/></g><g id="HeyfdZAFGUnCmeg_jNLZ_pad-16"><polygon points="-1400,500 -1400,-500 1400,-500 1400,500"/><circle cx="-1400" cy="500" r="500"/><circle cx="-1400" cy="-500" r="500"/><circle cx="1400" cy="-500" r="500"/><circle cx="1400" cy="500" r="500"/><polygon points="-900,500 -900,-500 -1900,-500 -1900,500"/><polygon points="-1400,-1000 1400,-1000 1400,0 -1400,0"/><polygon points="1900,-500 1900,500 900,500 900,-500"/><polygon points="1400,0 -1400,0 -1400,1000 1400,1000"/></g><g id="HeyfdZAFGUnCmeg_jNLZ_pad-17"><polygon points="225,250 -225,250 -225,-250 225,-250"/><circle cx="225" cy="250" r="225"/><circle cx="-225" cy="250" r="225"/><circle cx="-225" cy="-250" r="225"/><circle cx="225" cy="-250" r="225"/><polygon points="225,25 -225,25 -225,475 225,475"/><polygon points="0,250 0,-250 -450,-250 -450,250"/><polygon points="-225,-475 225,-475 225,-25 -225,-25"/><polygon points="450,-250 450,250 0,250 0,-250"/></g><g id="HeyfdZAFGUnCmeg_jNLZ_pad-18"><polygon points="-200,-275 200,-275 200,275 -200,275"/><circle cx="-200" cy="-275" r="200"/><circle cx="200" cy="-275" r="200"/><circle cx="200" cy="275" r="200"/><circle cx="-200" cy="275" r="200"/><polygon points="-200,-475 200,-475 200,-75 -200,-75"/><polygon points="400,-275 400,275 0,275 0,-275"/><polygon points="200,75 -200,75 -200,475 200,475"/><polygon points="0,275 0,-275 -400,-275 -400,275"/></g><g id="HeyfdZAFGUnCmeg_jNLZ_pad-19"><polygon points="250,-225 250,225 -250,225 -250,-225"/><circle cx="250" cy="-225" r="225"/><circle cx="250" cy="225" r="225"/><circle cx="-250" cy="225" r="225"/><circle cx="-250" cy="-225" r="225"/><polygon points="475,-225 475,225 25,225 25,-225"/><polygon points="250,0 -250,0 -250,450 250,450"/><polygon points="-25,225 -25,-225 -475,-225 -475,225"/><polygon points="-250,-450 250,-450 250,0 -250,0"/></g><g id="HeyfdZAFGUnCmeg_jNLZ_pad-20"><polygon points="256.25,-218.75 256.25,218.75 -256.25,218.75 -256.25,-218.75"/><circle cx="256.25" cy="-218.75" r="218.75"/><circle cx="256.25" cy="218.75" r="218.75"/><circle cx="-256.25" cy="218.75" r="218.75"/><circle cx="-256.25" cy="-218.75" r="218.75"/><polygon points="475,-218.75 475,218.75 37.5,218.75 37.5,-218.75"/><polygon points="256.25,0 -256.25,0 -256.25,437.5 256.25,437.5"/><polygon points="-37.5,218.75 -37.5,-218.75 -475,-218.75 -475,218.75"/><polygon points="-256.25,-437.5 256.25,-437.5 256.25,0 -256.25,0"/></g><g id="HeyfdZAFGUnCmeg_jNLZ_pad-21"><polygon points="-250,225 -250,-225 250,-225 250,225"/><circle cx="-250" cy="225" r="225"/><circle cx="-250" cy="-225" r="225"/><circle cx="250" cy="-225" r="225"/><circle cx="250" cy="225" r="225"/><polygon points="-25,225 -25,-225 -475,-225 -475,225"/><polygon points="-250,-450 250,-450 250,0 -250,0"/><polygon points="475,-225 475,225 25,225 25,-225"/><polygon points="250,0 -250,0 -250,450 250,450"/></g><g id="HeyfdZAFGUnCmeg_jNLZ_pad-22"><polygon points="-1050,-550 1050,-550 1050,550 -1050,550"/><circle cx="-1050" cy="-550" r="250"/><circle cx="1050" cy="-550" r="250"/><circle cx="1050" cy="550" r="250"/><circle cx="-1050" cy="550" r="250"/><polygon points="-1050,-800 1050,-800 1050,-300 -1050,-300"/><polygon points="1300,-550 1300,550 800,550 800,-550"/><polygon points="1050,300 -1050,300 -1050,800 1050,800"/><polygon points="-800,550 -800,-550 -1300,-550 -1300,550"/></g><g id="HeyfdZAFGUnCmeg_jNLZ_pad-23"><polygon points="-225,-250 225,-250 225,250 -225,250"/><circle cx="-225" cy="-250" r="225"/><circle cx="225" cy="-250" r="225"/><circle cx="225" cy="250" r="225"/><circle cx="-225" cy="250" r="225"/><polygon points="-225,-475 225,-475 225,-25 -225,-25"/><polygon points="450,-250 450,250 0,250 0,-250"/><polygon points="225,25 -225,25 -225,475 225,475"/><polygon points="0,250 0,-250 -450,-250 -450,250"/></g><g id="HeyfdZAFGUnCmeg_jNLZ_pad-24"><polygon points="587.5,150 -587.5,150 -587.5,-150 587.5,-150"/><circle cx="587.5" cy="150" r="150"/><circle cx="-587.5" cy="150" r="150"/><circle cx="-587.5" cy="-150" r="150"/><circle cx="587.5" cy="-150" r="150"/><polygon points="587.5,0 -587.5,0 -587.5,300 587.5,300"/><polygon points="-437.5,150 -437.5,-150 -737.5,-150 -737.5,150"/><polygon points="-587.5,-300 587.5,-300 587.5,0 -587.5,0"/><polygon points="737.5,-150 737.5,150 437.5,150 437.5,-150"/></g><g id="HeyfdZAFGUnCmeg_jNLZ_pad-25"><polygon points="-587.5,-150 587.5,-150 587.5,150 -587.5,150"/><circle cx="-587.5" cy="-150" r="150"/><circle cx="587.5" cy="-150" r="150"/><circle cx="587.5" cy="150" r="150"/><circle cx="-587.5" cy="150" r="150"/><polygon points="-587.5,-300 587.5,-300 587.5,0 -587.5,0"/><polygon points="737.5,-150 737.5,150 437.5,150 437.5,-150"/><polygon points="587.5,0 -587.5,0 -587.5,300 587.5,300"/><polygon points="-437.5,150 -437.5,-150 -737.5,-150 -737.5,150"/></g><rect x="-1000" y="-2250" width="2000" height="4500" id="HeyfdZAFGUnCmeg_jNLZ_pad-26"/><rect x="-750" y="-450" width="1500" height="900" id="HeyfdZAFGUnCmeg_jNLZ_pad-27"/><g id="HeyfdZAFGUnCmeg_jNLZ_pad-28"><polygon points="800,200 -800,200 -800,-200 800,-200"/><circle cx="800" cy="200" r="200"/><circle cx="-800" cy="200" r="200"/><circle cx="-800" cy="-200" r="200"/><circle cx="800" cy="-200" r="200"/><polygon points="800,0 -800,0 -800,400 800,400"/><polygon points="-600,200 -600,-200 -1000,-200 -1000,200"/><polygon points="-800,-400 800,-400 800,0 -800,0"/><polygon points="1000,-200 1000,200 600,200 600,-200"/></g><g id="HeyfdZAFGUnCmeg_jNLZ_pad-29"><polygon points="-825,-150 825,-150 825,150 -825,150"/><circle cx="-825" cy="-150" r="150"/><circle cx="825" cy="-150" r="150"/><circle cx="825" cy="150" r="150"/><circle cx="-825" cy="150" r="150"/><polygon points="-825,-300 825,-300 825,0 -825,0"/><polygon points="975,-150 975,150 675,150 675,-150"/><polygon points="825,0 -825,0 -825,300 825,300"/><polygon points="-675,150 -675,-150 -975,-150 -975,150"/></g><rect x="-225" y="-750" width="450" height="1500" id="HeyfdZAFGUnCmeg_jNLZ_pad-30"/><rect x="-900" y="-550" width="1800" height="1100" rx="550" ry="550" id="HeyfdZAFGUnCmeg_jNLZ_pad-31"/><rect x="-1100" y="-550" width="2200" height="1100" rx="550" ry="550" id="HeyfdZAFGUnCmeg_jNLZ_pad-32"/><g id="HeyfdZAFGUnCmeg_jNLZ_pad-33"><polygon points="-112.5,-737.5 112.5,-737.5 112.5,737.5 -112.5,737.5"/><circle cx="-112.5" cy="-737.5" r="112.5"/><circle cx="112.5" cy="-737.5" r="112.5"/><circle cx="112.5" cy="737.5" r="112.5"/><circle cx="-112.5" cy="737.5" r="112.5"/><polygon points="-112.5,-850 112.5,-850 112.5,-625 -112.5,-625"/><polygon points="225,-737.5 225,737.5 0,737.5 0,-737.5"/><polygon points="112.5,625 -112.5,625 -112.5,850 112.5,850"/><polygon points="0,737.5 0,-737.5 -225,-737.5 -225,737.5"/></g><g id="HeyfdZAFGUnCmeg_jNLZ_pad-34"><polygon points="650,-1000 650,1000 -650,1000 -650,-1000"/><circle cx="650" cy="-1000" r="250"/><circle cx="650" cy="1000" r="250"/><circle cx="-650" cy="1000" r="250"/><circle cx="-650" cy="-1000" r="250"/><polygon points="900,-1000 900,1000 400,1000 400,-1000"/><polygon points="650,750 -650,750 -650,1250 650,1250"/><polygon points="-400,1000 -400,-1000 -900,-1000 -900,1000"/><polygon points="-650,-1250 650,-1250 650,-750 -650,-750"/></g><g id="HeyfdZAFGUnCmeg_jNLZ_pad-35"><polygon points="-275,200 -275,-200 275,-200 275,200"/><circle cx="-275" cy="200" r="200"/><circle cx="-275" cy="-200" r="200"/><circle cx="275" cy="-200" r="200"/><circle cx="275" cy="200" r="200"/><polygon points="-75,200 -75,-200 -475,-200 -475,200"/><polygon points="-275,-400 275,-400 275,0 -275,0"/><polygon points="475,-200 475,200 75,200 75,-200"/><polygon points="275,0 -275,0 -275,400 275,400"/></g><g id="HeyfdZAFGUnCmeg_jNLZ_pad-36"><polygon points="275,-200 275,200 -275,200 -275,-200"/><circle cx="275" cy="-200" r="200"/><circle cx="275" cy="200" r="200"/><circle cx="-275" cy="200" r="200"/><circle cx="-275" cy="-200" r="200"/><polygon points="475,-200 475,200 75,200 75,-200"/><polygon points="275,0 -275,0 -275,400 275,400"/><polygon points="-75,200 -75,-200 -475,-200 -475,200"/><polygon points="-275,-400 275,-400 275,0 -275,0"/></g><g id="HeyfdZAFGUnCmeg_jNLZ_pad-37"><polygon points="243.75,456.25 -243.75,456.25 -243.75,-456.25 243.75,-456.25"/><circle cx="243.75" cy="456.25" r="243.75"/><circle cx="-243.75" cy="456.25" r="243.75"/><circle cx="-243.75" cy="-456.25" r="243.75"/><circle cx="243.75" cy="-456.25" r="243.75"/><polygon points="243.75,212.5 -243.75,212.5 -243.75,700 243.75,700"/><polygon points="0,456.25 0,-456.25 -487.5,-456.25 -487.5,456.25"/><polygon points="-243.75,-700 243.75,-700 243.75,-212.5 -243.75,-212.5"/><polygon points="487.5,-456.25 487.5,456.25 0,456.25 0,-456.25"/></g><circle cx="0" cy="0" r="500" id="HeyfdZAFGUnCmeg_jNLZ_pad-38"/></defs><g transform="translate(0,-193251.9360003) scale(1,-1)" fill="currentColor" stroke="currentColor"><path d="M 171445.063 -84126.159 A 2001.0630009 2001.0630009 0 0 0 169427.022 -86127.091 M 130940 -70623.716 A 1999.8000001 1999.8000001 0 0 0 132939.696 -68623.9 M 169946.758 -71123.28 A 1000 1000 0 0 0 167946.758 -71123.28 1000 1000 0 0 0 169946.758 -71123.28 M 135190.532 -105378.095 A 2000.732 2000.732 0 0 0 133189.818 -107378.832 M 132939.794 -107378.808 133189.818 -107378.808 M 133189.818 -107378.803 133189.818 -107378.808 M 169332.297 -86126.708 169183.625 -86126.107 M 132939.858 -124628.965 A 1999.8650004 1999.8650004 0 0 0 130940.043 -122623.453 M 130940 -70623.716 A 1999.8000001 1999.8000001 0 0 0 132939.696 -68623.9 M 130940 -122623.453 130940 -109378.602 M 134442.321 -122129.655 A 1000 1000 0 0 0 132442.321 -122129.655 1000 1000 0 0 0 134442.321 -122129.655 M 132940.258 -86125.153 A 2000.2530004 2000.2530004 0 0 0 130940.053 -84120 M 169194.638 -107377.809 A 2000.1090004 2000.1090004 0 0 0 167194.506 -105385.404 M 169194.638 -107377.809 169444.138 -107377.809 M 171445.063 -70623.189 171445.063 -84126.159 M 130940 -109378.602 A 1999.8 1999.8 0 0 0 132939.793 -107378.8 M 169443.768 -124628.962 169443.768 -124628.965 132939.848 -124628.965 M 134442.321 -122129.655 A 1000 1000 0 0 0 132442.321 -122129.655 1000 1000 0 0 0 134442.321 -122129.655 M 171445.063 -70623.189 171445.063 -84126.149 M 169194.638 -107377.809 169444.138 -107377.809 M 169426.801 -86127.09 169194.782 -86126.152 M 132939.848 -124628.965 A 1999.8650007 1999.8650007 0 0 0 130940.043 -122623.453 M 130940 -109378.602 A 1999.8 1999.8 0 0 0 132939.794 -107378.8 M 133189.818 -107378.803 133189.818 -107378.808 M 130940 -122623.453 130940 -109378.602 M 171444.071 -122628.659 A 2000.2710004 2000.2710004 0 0 0 169443.768 -124628.971 M 169444.783 -68622.965 A 2000.2350001 2000.2350001 0 0 0 171445.035 -70623.189 M 169444.783 -68622.965 A 2000.2350001 2000.2350001 0 0 0 171445.035 -70623.189 M 167192.532 -88127.321 A 2000.8680257 2000.8680257 0 0 0 169194.782 -86126.132 M 135190.532 -105378.089 135190.532 -88125.399 M 134442.321 -71123.28 A 1000 1000 0 0 0 132442.321 -71123.28 1000 1000 0 0 0 134442.321 -71123.28 M 132939.793 -107378.808 133189.818 -107378.808 M 171445.063 -84126.149 A 2001.0630006 2001.0630006 0 0 0 169426.801 -86127.089 M 133190.288 -86125.153 132940.248 -86125.153 M 169444.138 -107377.809 A 1999.9910004 1999.9910004 0 0 0 171444.044 -109391.5 M 133190.288 -86125.153 132940.258 -86125.153 M 134442.321 -71123.28 A 1000 1000 0 0 0 132442.321 -71123.28 1000 1000 0 0 0 134442.321 -71123.28 M 171444.071 -109391.353 171444.071 -122628.659 M 130940 -84120 130940 -70623.716 M 135190.532 -105378.095 135190.532 -88125.399 M 169194.638 -107377.809 A 2000.1090004 2000.1090004 0 0 0 167194.506 -105385.404 M 132939.696 -68623.965 169444.783 -68622.965 M 167192.532 -88127.391 167194.533 -105385.404 M 133190.288 -86125.153 A 2000.247 2000.247 0 0 0 135190.547 -88125.399 M 132940.248 -86125.153 A 2000.2530007 2000.2530007 0 0 0 130940.053 -84120 M 169443.768 -124628.965 132939.858 -124628.965 M 171444.071 -109391.5 171444.071 -122628.659 M 135190.532 -105378.089 A 2000.732 2000.732 0 0 0 133189.818 -107378.832 M 133190.288 -86125.153 A 2000.247 2000.247 0 0 0 135190.547 -88125.399 M 167192.532 -88127.391 A 2001.0680091 2001.0680091 0 0 0 169183.625 -86126.157 M 169444.138 -107377.809 A 1999.9910004 1999.9910004 0 0 0 171444.045 -109391.353 M 130940 -84120 130940 -70623.716 M 169946.758 -71123.28 A 1000 1000 0 0 0 167946.758 -71123.28 1000 1000 0 0 0 169946.758 -71123.28 M 167192.532 -88127.321 167194.533 -105385.404 M 132939.696 -68623.965 169444.783 -68622.965 M 171444.071 -122628.659 A 2000.2710004 2000.2710004 0 0 0 169443.768 -124628.971" fill="none" stroke-width="1000"/><path d="M 136238.241 -80493.217 136207.844 -80393.812 136170.387 -80298.318 136125.87 -80206.737 136116.12 -80188.89 136060.173 -80096.253 136000.471 -80007.051 135938.023 -79918.649 135878.033 -79836.558 135810.816 -79746.81 135744.255 -79658.33 135683.125 -79576.043 135625.094 -79495.7 135606.14 -79467.885 135554.685 -79381.21 135514.794 -79291.542 135491.137 -79195.312 135486.461 -79128.876 135498.468 -79029.705 135538.951 -78935.08 135588.066 -78873.398 135671.071 -78810.589 135767.677 -78776.769 135839.637 -78770.327 135938.734 -78782.968 136036.175 -78825.593 136101.953 -78877.306 136164.979 -78954.979 136213.854 -79049.719 136238.241 -79115.198 136273.582 -79017.177 136322.274 -78930.257 136365.736 -78878.771 136448.477 -78816.196 136539.53 -78779.595 136629.518 -78768.862 136734.504 -78783.288 136826.714 -78826.564 136881.088 -78871.444 136943.897 -78953.578 136977.717 -79046.841 136984.159 -79115.198 136974.162 -79217.306 136947.188 -79314.564 136923.586 -79372.63 136874.757 -79464.393 136819.894 -79549.481 136760.368 -79632.448 136700.788 -79709.889 136690.09 -79723.363 136622.699 -79809.867 136561.271 -79891.385 136495.429 -79982.627 136438.173 -80066.69 136382.227 -80155.692 136361.828 -80190.844 136314.916 -80282.292 136275.541 -80376.507 136243.704 -80473.488 136238.241 -80493.217"/><use xlink:href="#HeyfdZAFGUnCmeg_jNLZ_pad-12" x="166550" y="-82640"/><use xlink:href="#HeyfdZAFGUnCmeg_jNLZ_pad-12" x="166550" y="-77240"/><use xlink:href="#HeyfdZAFGUnCmeg_jNLZ_pad-13" x="157255" y="-96590"/><use xlink:href="#HeyfdZAFGUnCmeg_jNLZ_pad-13" x="155605" y="-96590"/><use xlink:href="#HeyfdZAFGUnCmeg_jNLZ_pad-14" x="157760" y="-107860"/><use xlink:href="#HeyfdZAFGUnCmeg_jNLZ_pad-14" x="157760" y="-103460"/><use xlink:href="#HeyfdZAFGUnCmeg_jNLZ_pad-15" x="162360" y="-111640"/><use xlink:href="#HeyfdZAFGUnCmeg_jNLZ_pad-15" x="160060" y="-111640"/><use xlink:href="#HeyfdZAFGUnCmeg_jNLZ_pad-16" x="160060" y="-117940"/><use xlink:href="#HeyfdZAFGUnCmeg_jNLZ_pad-15" x="157760" y="-111640"/><use xlink:href="#HeyfdZAFGUnCmeg_jNLZ_pad-17" x="145765" y="-108210"/><use xlink:href="#HeyfdZAFGUnCmeg_jNLZ_pad-17" x="144215" y="-108210"/><use xlink:href="#HeyfdZAFGUnCmeg_jNLZ_pad-18" x="146432.5" y="-101840"/><use xlink:href="#HeyfdZAFGUnCmeg_jNLZ_pad-18" x="148082.5" y="-101840"/><use xlink:href="#HeyfdZAFGUnCmeg_jNLZ_pad-19" x="136430" y="-117140"/><use xlink:href="#HeyfdZAFGUnCmeg_jNLZ_pad-19" x="136430" y="-115590"/><use xlink:href="#HeyfdZAFGUnCmeg_jNLZ_pad-20" x="152800" y="-121747.5"/><use xlink:href="#HeyfdZAFGUnCmeg_jNLZ_pad-20" x="152800" y="-120172.5"/><use xlink:href="#HeyfdZAFGUnCmeg_jNLZ_pad-21" x="141187.5" y="-103585"/><use xlink:href="#HeyfdZAFGUnCmeg_jNLZ_pad-21" x="141187.5" y="-105135"/><use xlink:href="#HeyfdZAFGUnCmeg_jNLZ_pad-22" x="161820" y="-96740"/><use xlink:href="#HeyfdZAFGUnCmeg_jNLZ_pad-22" x="165420" y="-96740"/><use xlink:href="#HeyfdZAFGUnCmeg_jNLZ_pad-23" x="154195" y="-114530"/><use xlink:href="#HeyfdZAFGUnCmeg_jNLZ_pad-23" x="155745" y="-114530"/><use xlink:href="#HeyfdZAFGUnCmeg_jNLZ_pad-24" x="146245" y="-105222.5"/><use xlink:href="#HeyfdZAFGUnCmeg_jNLZ_pad-24" x="146245" y="-103322.5"/><use xlink:href="#HeyfdZAFGUnCmeg_jNLZ_pad-24" x="144370" y="-104272.5"/><use xlink:href="#HeyfdZAFGUnCmeg_jNLZ_pad-25" x="148270" y="-103320"/><use xlink:href="#HeyfdZAFGUnCmeg_jNLZ_pad-25" x="148270" y="-105220"/><use xlink:href="#HeyfdZAFGUnCmeg_jNLZ_pad-25" x="150145" y="-104270"/><use xlink:href="#HeyfdZAFGUnCmeg_jNLZ_pad-17" x="162365" y="-109650"/><use xlink:href="#HeyfdZAFGUnCmeg_jNLZ_pad-17" x="160815" y="-109650"/><use xlink:href="#HeyfdZAFGUnCmeg_jNLZ_pad-17" x="150220" y="-108220"/><use xlink:href="#HeyfdZAFGUnCmeg_jNLZ_pad-17" x="148670" y="-108220"/><use xlink:href="#HeyfdZAFGUnCmeg_jNLZ_pad-19" x="160870" y="-92805"/><use xlink:href="#HeyfdZAFGUnCmeg_jNLZ_pad-19" x="160870" y="-91255"/><use xlink:href="#HeyfdZAFGUnCmeg_jNLZ_pad-13" x="148082.5" y="-106710"/><use xlink:href="#HeyfdZAFGUnCmeg_jNLZ_pad-13" x="146432.5" y="-106710"/><use xlink:href="#HeyfdZAFGUnCmeg_jNLZ_pad-26" x="139790" y="-109900"/><use xlink:href="#HeyfdZAFGUnCmeg_jNLZ_pad-26" x="139790" y="-118400"/><use xlink:href="#HeyfdZAFGUnCmeg_jNLZ_pad-27" x="149050" y="-96600"/><use xlink:href="#HeyfdZAFGUnCmeg_jNLZ_pad-27" x="149050" y="-99900"/><use xlink:href="#HeyfdZAFGUnCmeg_jNLZ_pad-27" x="153950" y="-99900"/><use xlink:href="#HeyfdZAFGUnCmeg_jNLZ_pad-27" x="153950" y="-96600"/><use xlink:href="#HeyfdZAFGUnCmeg_jNLZ_pad-28" x="159000" y="-92660"/><use xlink:href="#HeyfdZAFGUnCmeg_jNLZ_pad-28" x="159000" y="-91390"/><use xlink:href="#HeyfdZAFGUnCmeg_jNLZ_pad-28" x="159000" y="-90120"/><use xlink:href="#HeyfdZAFGUnCmeg_jNLZ_pad-28" x="159000" y="-88850"/><use xlink:href="#HeyfdZAFGUnCmeg_jNLZ_pad-28" x="159000" y="-87580"/><use xlink:href="#HeyfdZAFGUnCmeg_jNLZ_pad-28" x="159000" y="-86310"/><use xlink:href="#HeyfdZAFGUnCmeg_jNLZ_pad-28" x="159000" y="-85040"/><use xlink:href="#HeyfdZAFGUnCmeg_jNLZ_pad-28" x="159000" y="-83770"/><use xlink:href="#HeyfdZAFGUnCmeg_jNLZ_pad-28" x="144000" y="-83770"/><use xlink:href="#HeyfdZAFGUnCmeg_jNLZ_pad-28" x="144000" y="-85040"/><use xlink:href="#HeyfdZAFGUnCmeg_jNLZ_pad-28" x="144000" y="-86310"/><use xlink:href="#HeyfdZAFGUnCmeg_jNLZ_pad-28" x="144000" y="-87580"/><use xlink:href="#HeyfdZAFGUnCmeg_jNLZ_pad-28" x="144000" y="-88850"/><use xlink:href="#HeyfdZAFGUnCmeg_jNLZ_pad-28" x="144000" y="-90120"/><use xlink:href="#HeyfdZAFGUnCmeg_jNLZ_pad-28" x="144000" y="-91390"/><use xlink:href="#HeyfdZAFGUnCmeg_jNLZ_pad-28" x="144000" y="-92660"/><use xlink:href="#HeyfdZAFGUnCmeg_jNLZ_pad-23" x="145785" y="-96600"/><use xlink:href="#HeyfdZAFGUnCmeg_jNLZ_pad-23" x="147335" y="-96600"/><use xlink:href="#HeyfdZAFGUnCmeg_jNLZ_pad-29" x="144745" y="-109710"/><use xlink:href="#HeyfdZAFGUnCmeg_jNLZ_pad-29" x="144745" y="-110980"/><use xlink:href="#HeyfdZAFGUnCmeg_jNLZ_pad-29" x="144745" y="-112250"/><use xlink:href="#HeyfdZAFGUnCmeg_jNLZ_pad-29" x="144745" y="-113520"/><use xlink:href="#HeyfdZAFGUnCmeg_jNLZ_pad-29" x="144745" y="-114790"/><use xlink:href="#HeyfdZAFGUnCmeg_jNLZ_pad-29" x="144745" y="-116060"/><use xlink:href="#HeyfdZAFGUnCmeg_jNLZ_pad-29" x="144745" y="-117330"/><use xlink:href="#HeyfdZAFGUnCmeg_jNLZ_pad-29" x="144745" y="-118600"/><use xlink:href="#HeyfdZAFGUnCmeg_jNLZ_pad-29" x="149695" y="-118600"/><use xlink:href="#HeyfdZAFGUnCmeg_jNLZ_pad-29" x="149695" y="-117330"/><use xlink:href="#HeyfdZAFGUnCmeg_jNLZ_pad-29" x="149695" y="-116060"/><use xlink:href="#HeyfdZAFGUnCmeg_jNLZ_pad-29" x="149695" y="-114790"/><use xlink:href="#HeyfdZAFGUnCmeg_jNLZ_pad-29" x="149695" y="-113520"/><use xlink:href="#HeyfdZAFGUnCmeg_jNLZ_pad-29" x="149695" y="-112250"/><use xlink:href="#HeyfdZAFGUnCmeg_jNLZ_pad-29" x="149695" y="-110980"/><use xlink:href="#HeyfdZAFGUnCmeg_jNLZ_pad-29" x="149695" y="-109710"/><use xlink:href="#HeyfdZAFGUnCmeg_jNLZ_pad-19" x="153327.5" y="-105045"/><use xlink:href="#HeyfdZAFGUnCmeg_jNLZ_pad-19" x="153327.5" y="-103495"/><use xlink:href="#HeyfdZAFGUnCmeg_jNLZ_pad-30" x="145920" y="-120950"/><use xlink:href="#HeyfdZAFGUnCmeg_jNLZ_pad-30" x="146570" y="-120950"/><use xlink:href="#HeyfdZAFGUnCmeg_jNLZ_pad-30" x="147220" y="-120950"/><use xlink:href="#HeyfdZAFGUnCmeg_jNLZ_pad-30" x="147870" y="-120950"/><use xlink:href="#HeyfdZAFGUnCmeg_jNLZ_pad-30" x="148520" y="-120950"/><use xlink:href="#HeyfdZAFGUnCmeg_jNLZ_pad-31" x="144420" y="-120700"/><use xlink:href="#HeyfdZAFGUnCmeg_jNLZ_pad-32" x="147220" y="-122850"/><use xlink:href="#HeyfdZAFGUnCmeg_jNLZ_pad-31" x="150020" y="-120700"/><use xlink:href="#HeyfdZAFGUnCmeg_jNLZ_pad-33" x="137570" y="-100000"/><use xlink:href="#HeyfdZAFGUnCmeg_jNLZ_pad-33" x="138570" y="-96800"/><use xlink:href="#HeyfdZAFGUnCmeg_jNLZ_pad-33" x="139570" y="-100000"/><use xlink:href="#HeyfdZAFGUnCmeg_jNLZ_pad-33" x="140570" y="-96800"/><use xlink:href="#HeyfdZAFGUnCmeg_jNLZ_pad-24" x="155427.5" y="-113040"/><use xlink:href="#HeyfdZAFGUnCmeg_jNLZ_pad-24" x="155427.5" y="-111140"/><use xlink:href="#HeyfdZAFGUnCmeg_jNLZ_pad-24" x="153552.5" y="-112090"/><use xlink:href="#HeyfdZAFGUnCmeg_jNLZ_pad-13" x="159445" y="-119920"/><use xlink:href="#HeyfdZAFGUnCmeg_jNLZ_pad-13" x="157795" y="-119920"/><use xlink:href="#HeyfdZAFGUnCmeg_jNLZ_pad-34" x="155380" y="-122480"/><use xlink:href="#HeyfdZAFGUnCmeg_jNLZ_pad-34" x="155380" y="-118480"/><use xlink:href="#HeyfdZAFGUnCmeg_jNLZ_pad-35" x="151857.5" y="-103445"/><use xlink:href="#HeyfdZAFGUnCmeg_jNLZ_pad-35" x="151857.5" y="-105095"/><use xlink:href="#HeyfdZAFGUnCmeg_jNLZ_pad-21" x="136430" y="-112620"/><use xlink:href="#HeyfdZAFGUnCmeg_jNLZ_pad-21" x="136430" y="-114170"/><use xlink:href="#HeyfdZAFGUnCmeg_jNLZ_pad-25" x="158132.5" y="-121400"/><use xlink:href="#HeyfdZAFGUnCmeg_jNLZ_pad-25" x="158132.5" y="-123300"/><use xlink:href="#HeyfdZAFGUnCmeg_jNLZ_pad-25" x="160007.5" y="-122350"/><use xlink:href="#HeyfdZAFGUnCmeg_jNLZ_pad-36" x="142647.5" y="-105185"/><use xlink:href="#HeyfdZAFGUnCmeg_jNLZ_pad-36" x="142647.5" y="-103535"/><use xlink:href="#HeyfdZAFGUnCmeg_jNLZ_pad-19" x="141440" y="-123475"/><use xlink:href="#HeyfdZAFGUnCmeg_jNLZ_pad-19" x="141440" y="-121925"/><use xlink:href="#HeyfdZAFGUnCmeg_jNLZ_pad-37" x="139967.5" y="-123230"/><use xlink:href="#HeyfdZAFGUnCmeg_jNLZ_pad-37" x="138092.5" y="-123230"/><use xlink:href="#HeyfdZAFGUnCmeg_jNLZ_pad-38" x="166930" y="-122410"/><use xlink:href="#HeyfdZAFGUnCmeg_jNLZ_pad-38" x="166930" y="-119870"/><use xlink:href="#HeyfdZAFGUnCmeg_jNLZ_pad-38" x="166930" y="-117330"/><use xlink:href="#HeyfdZAFGUnCmeg_jNLZ_pad-38" x="166930" y="-114790"/><use xlink:href="#HeyfdZAFGUnCmeg_jNLZ_pad-38" x="166930" y="-112250"/></g></svg>