<svg version="1.1" xmlns="http://www.w3.org/2000/svg" xmlns:xlink="http://www.w3.org/1999/xlink" stroke-linecap="round" stroke-linejoin="round" stroke-width="0" fill-rule="evenodd" width="31.395mm" height="48.44mm" viewBox="135955 -123930 31395 48440" id="mYY0ZKs9KPaOQaHFFIHv"><defs><g id="mYY0ZKs9KPaOQaHFFIHv_pad-10"><polygon points="550,-1500 550,1500 -550,1500 -550,-1500"/><circle cx="550" cy="-1500" r="250"/><circle cx="550" cy="1500" r="250"/><circle cx="-550" cy="1500" r="250"/><circle cx="-550" cy="-1500" r="250"/><polygon points="800,-1500 800,1500 300,1500 300,-1500"/><polygon points="550,1250 -550,1250 -550,1750 550,1750"/><polygon points="-300,1500 -300,-1500 -800,-1500 -800,1500"/><polygon points="-550,-1750 550,-1750 550,-1250 -550,-1250"/></g><g id="mYY0ZKs9KPaOQaHFFIHv_pad-11"><polygon points="200,275 -200,275 -200,-275 200,-275"/><circle cx="200" cy="275" r="200"/><circle cx="-200" cy="275" r="200"/><circle cx="-200" cy="-275" r="200"/><circle cx="200" cy="-275" r="200"/><polygon points="200,75 -200,75 -200,475 200,475"/><polygon points="0,275 0,-275 -400,-275 -400,275"/><polygon points="-200,-475 200,-475 200,-75 -200,-75"/><polygon points="400,-275 400,275 0,275 0,-275"/></g><g id="mYY0ZKs9KPaOQaHFFIHv_pad-12"><polygon points="550,-1250 550,1250 -550,1250 -550,-1250"/><circle cx="550" cy="-1250" r="250"/><circle cx="550" cy="1250" r="250"/><circle cx="-550" cy="1250" r="250"/><circle cx="-550" cy="-1250" r="250"/><polygon points="800,-1250 800,1250 300,1250 300,-1250"/><polygon points="550,1000 -550,1000 -550,1500 550,1500"/><polygon points="-300,1250 -300,-1250 -800,-1250 -800,1250"/><polygon points="-550,-1500 550,-1500 550,-1000 -550,-1000"/></g><g id="mYY0ZKs9KPaOQaHFFIHv_pad-13"><polygon points="-375,625 -375,-625 375,-625 375,625"/><circle cx="-375" cy="625" r="375"/><circle cx="-375" cy="-625" r="375"/><circle cx="375" cy="-625" r="375"/><circle cx="375" cy="625" r="375"/><polygon points="0,625 0,-625 -750,-625 -750,625"/><polygon points="-375,-1000 375,-1000 375,-250 -375,-250"/><polygon points="750,-625 750,625 0,625 0,-625"/><polygon points="375,250 -375,250 -375,1000 375,1000"/></g><g id="mYY0ZKs9KPaOQaHFFIHv_pad-14"><polygon points="-1400,500 -1400,-500 1400,-500 1400,500"/><circle cx="-1400" cy="500" r="500"/><circle cx="-1400" cy="-500" r="500"/><circle cx="1400" cy="-500" r="500"/><circle cx="1400" cy="500" r="500"/><polygon points="-900,500 -900,-500 -1900,-500 -1900,500"/><polygon points="-1400,-1000 1400,-1000 1400,0 -1400,0"/><polygon points="1900,-500 1900,500 900,500 900,-500"/><polygon points="1400,0 -1400,0 -1400,1000 1400,1000"/></g><g id="mYY0ZKs9KPaOQaHFFIHv_pad-15"><polygon points="225,250 -225,250 -225,-250 225,-250"/><circle cx="225" cy="250" r="225"/><circle cx="-225" cy="250" r="225"/><circle cx="-225" cy="-250" r="225"/><circle cx="225" cy="-250" r="225"/><polygon points="225,25 -225,25 -225,475 225,475"/><polygon points="0,250 0,-250 -450,-250 -450,250"/><polygon points="-225,-475 225,-475 225,-25 -225,-25"/><polygon points="450,-250 450,250 0,250 0,-250"/></g><g id="mYY0ZKs9KPaOQaHFFIHv_pad-16"><polygon points="-200,-275 200,-275 200,275 -200,275"/><circle cx="-200" cy="-275" r="200"/><circle cx="200" cy="-275" r="200"/><circle cx="200" cy="275" r="200"/><circle cx="-200" cy="275" r="200"/><polygon points="-200,-475 200,-475 200,-75 -200,-75"/><polygon points="400,-275 400,275 0,275 0,-275"/><polygon points="200,75 -200,75 -200,475 200,475"/><polygon points="0,275 0,-275 -400,-275 -400,275"/></g><g id="mYY0ZKs9KPaOQaHFFIHv_pad-17"><polygon points="250,-225 250,225 -250,225 -250,-225"/><circle cx="250" cy="-225" r="225"/><circle cx="250" cy="225" r="225"/><circle cx="-250" cy="225" r="225"/><circle cx="-250" cy="-225" r="225"/><polygon points="475,-225 475,225 25,225 25,-225"/><polygon points="250,0 -250,0 -250,450 250,450"/><polygon points="-25,225 -25,-225 -475,-225 -475,225"/><polygon points="-250,-450 250,-450 250,0 -250,0"/></g><g id="mYY0ZKs9KPaOQaHFFIHv_pad-18"><polygon points="256.25,-218.75 256.25,218.75 -256.25,218.75 -256.25,-218.75"/><circle cx="256.25" cy="-218.75" r="218.75"/><circle cx="256.25" cy="218.75" r="218.75"/><circle cx="-256.25" cy="218.75" r="218.75"/><circle cx="-256.25" cy="-218.75" r="218.75"/><polygon points="475,-218.75 475,218.75 37.5,218.75 37.5,-218.75"/><polygon points="256.25,0 -256.25,0 -256.25,437.5 256.25,437.5"/><polygon points="-37.5,218.75 -37.5,-218.75 -475,-218.75 -475,218.75"/><polygon points="-256.25,-437.5 256.25,-437.5 256.25,0 -256.25,0"/></g><g id="mYY0ZKs9KPaOQaHFFIHv_pad-19"><polygon points="-250,225 -250,-225 250,-225 250,225"/><circle cx="-250" cy="225" r="225"/><circle cx="-250" cy="-225" r="225"/><circle cx="250" cy="-225" r="225"/><circle cx="250" cy="225" r="225"/><polygon points="-25,225 -25,-225 -475,-225 -475,225"/><polygon points="-250,-450 250,-450 250,0 -250,0"/><polygon points="475,-225 475,225 25,225 25,-225"/><polygon points="250,0 -250,0 -250,450 250,450"/></g><g id="mYY0ZKs9KPaOQaHFFIHv_pad-20"><polygon points="-1050,-550 1050,-550 1050,550 -1050,550"/><circle cx="-1050" cy="-550" r="250"/><circle cx="1050" cy="-550" r="250"/><circle cx="1050" cy="550" r="250"/><circle cx="-1050" cy="550" r="250"/><polygon points="-1050,-800 1050,-800 1050,-300 -1050,-300"/><polygon points="1300,-550 1300,550 800,550 800,-550"/><polygon points="1050,300 -1050,300 -1050,800 1050,800"/><polygon points="-800,550 -800,-550 -1300,-550 -1300,550"/></g><g id="mYY0ZKs9KPaOQaHFFIHv_pad-21"><polygon points="-225,-250 225,-250 225,250 -225,250"/><circle cx="-225" cy="-250" r="225"/><circle cx="225" cy="-250" r="225"/><circle cx="225" cy="250" r="225"/><circle cx="-225" cy="250" r="225"/><polygon points="-225,-475 225,-475 225,-25 -225,-25"/><polygon points="450,-250 450,250 0,250 0,-250"/><polygon points="225,25 -225,25 -225,475 225,475"/><polygon points="0,250 0,-250 -450,-250 -450,250"/></g><g id="mYY0ZKs9KPaOQaHFFIHv_pad-22"><polygon points="587.5,150 -587.5,150 -587.5,-150 587.5,-150"/><circle cx="587.5" cy="150" r="150"/><circle cx="-587.5" cy="150" r="150"/><circle cx="-587.5" cy="-150" r="150"/><circle cx="587.5" cy="-150" r="150"/><polygon points="587.5,0 -587.5,0 -587.5,300 587.5,300"/><polygon points="-437.5,150 -437.5,-150 -737.5,-150 -737.5,150"/><polygon points="-587.5,-300 587.5,-300 587.5,0 -587.5,0"/><polygon points="737.5,-150 737.5,150 437.5,150 437.5,-150"/></g><g id="mYY0ZKs9KPaOQaHFFIHv_pad-23"><polygon points="-587.5,-150 587.5,-150 587.5,150 -587.5,150"/><circle cx="-587.5" cy="-150" r="150"/><circle cx="587.5" cy="-150" r="150"/><circle cx="587.5" cy="150" r="150"/><circle cx="-587.5" cy="150" r="150"/><polygon points="-587.5,-300 587.5,-300 587.5,0 -587.5,0"/><polygon points="737.5,-150 737.5,150 437.5,150 437.5,-150"/><polygon points="587.5,0 -587.5,0 -587.5,300 587.5,300"/><polygon points="-437.5,150 -437.5,-150 -737.5,-150 -737.5,150"/></g><rect x="-1000" y="-2250" width="2000" height="4500" id="mYY0ZKs9KPaOQaHFFIHv_pad-24"/><rect x="-750" y="-450" width="1500" height="900" id="mYY0ZKs9KPaOQaHFFIHv_pad-25"/><g id="mYY0ZKs9KPaOQaHFFIHv_pad-26"><polygon points="800,200 -800,200 -800,-200 800,-200"/><circle cx="800" cy="200" r="200"/><circle cx="-800" cy="200" r="200"/><circle cx="-800" cy="-200" r="200"/><circle cx="800" cy="-200" r="200"/><polygon points="800,0 -800,0 -800,400 800,400"/><polygon points="-600,200 -600,-200 -1000,-200 -1000,200"/><polygon points="-800,-400 800,-400 800,0 -800,0"/><polygon points="1000,-200 1000,200 600,200 600,-200"/></g><g id="mYY0ZKs9KPaOQaHFFIHv_pad-27"><polygon points="-825,-150 825,-150 825,150 -825,150"/><circle cx="-825" cy="-150" r="150"/><circle cx="825" cy="-150" r="150"/><circle cx="825" cy="150" r="150"/><circle cx="-825" cy="150" r="150"/><polygon points="-825,-300 825,-300 825,0 -825,0"/><polygon points="975,-150 975,150 675,150 675,-150"/><polygon points="825,0 -825,0 -825,300 825,300"/><polygon points="-675,150 -675,-150 -975,-150 -975,150"/></g><rect x="-225" y="-750" width="450" height="1500" id="mYY0ZKs9KPaOQaHFFIHv_pad-28"/><g id="mYY0ZKs9KPaOQaHFFIHv_pad-29"><polygon points="-112.5,-737.5 112.5,-737.5 112.5,737.5 -112.5,737.5"/><circle cx="-112.5" cy="-737.5" r="112.5"/><circle cx="112.5" cy="-737.5" r="112.5"/><circle cx="112.5" cy="737.5" r="112.5"/><circle cx="-112.5" cy="737.5" r="112.5"/><polygon points="-112.5,-850 112.5,-850 112.5,-625 -112.5,-625"/><polygon points="225,-737.5 225,737.5 0,737.5 0,-737.5"/><polygon points="112.5,625 -112.5,625 -112.5,850 112.5,850"/><polygon points="0,737.5 0,-737.5 -225,-737.5 -225,737.5"/></g><g id="mYY0ZKs9KPaOQaHFFIHv_pad-30"><polygon points="650,-1000 650,1000 -650,1000 -650,-1000"/><circle cx="650" cy="-1000" r="250"/><circle cx="650" cy="1000" r="250"/><circle cx="-650" cy="1000" r="250"/><circle cx="-650" cy="-1000" r="250"/><polygon points="900,-1000 900,1000 400,1000 400,-1000"/><polygon points="650,750 -650,750 -650,1250 650,1250"/><polygon points="-400,1000 -400,-1000 -900,-1000 -900,1000"/><polygon points="-650,-1250 650,-1250 650,-750 -650,-750"/></g><g id="mYY0ZKs9KPaOQaHFFIHv_pad-31"><polygon points="-275,200 -275,-200 275,-200 275,200"/><circle cx="-275" cy="200" r="200"/><circle cx="-275" cy="-200" r="200"/><circle cx="275" cy="-200" r="200"/><circle cx="275" cy="200" r="200"/><polygon points="-75,200 -75,-200 -475,-200 -475,200"/><polygon points="-275,-400 275,-400 275,0 -275,0"/><polygon points="475,-200 475,200 75,200 75,-200"/><polygon points="275,0 -275,0 -275,400 275,400"/></g><g id="mYY0ZKs9KPaOQaHFFIHv_pad-32"><polygon points="275,-200 275,200 -275,200 -275,-200"/><circle cx="275" cy="-200" r="200"/><circle cx="275" cy="200" r="200"/><circle cx="-275" cy="200" r="200"/><circle cx="-275" cy="-200" r="200"/><polygon points="475,-200 475,200 75,200 75,-200"/><polygon points="275,0 -275,0 -275,400 275,400"/><polygon points="-75,200 -75,-200 -475,-200 -475,200"/><polygon points="-275,-400 275,-400 275,0 -275,0"/></g><g id="mYY0ZKs9KPaOQaHFFIHv_pad-33"><polygon points="243.75,456.25 -243.75,456.25 -243.75,-456.25 243.75,-456.25"/><circle cx="243.75" cy="456.25" r="243.75"/><circle cx="-243.75" cy="456.25" r="243.75"/><circle cx="-243.75" cy="-456.25" r="243.75"/><circle cx="243.75" cy="-456.25" r="243.75"/><polygon points="243.75,212.5 -243.75,212.5 -243.75,700 243.75,700"/><polygon points="0,456.25 0,-456.25 -487.5,-456.25 -487.5,456.25"/><polygon points="-243.75,-700 243.75,-700 243.75,-212.5 -243.75,-212.5"/><polygon points="487.5,-456.25 487.5,456.25 0,456.25 0,-456.25"/></g></defs><g transform="translate(0,-199420) scale(1,-1)" fill="currentColor" stroke="currentColor"><use xlink:href="#mYY0ZKs9KPaOQaHFFIHv_pad-10" x="166550" y="-82640"/><use xlink:href="#mYY0ZKs9KPaOQaHFFIHv_pad-10" x="166550" y="-77240"/><use xlink:href="#mYY0ZKs9KPaOQaHFFIHv_pad-11" x="157255" y="-96590"/><use xlink:href="#mYY0ZKs9KPaOQaHFFIHv_pad-11" x="155605" y="-96590"/><use xlink:href="#mYY0ZKs9KPaOQaHFFIHv_pad-12" x="157760" y="-107860"/><use xlink:href="#mYY0ZKs9KPaOQaHFFIHv_pad-12" x="157760" y="-103460"/><use xlink:href="#mYY0ZKs9KPaOQaHFFIHv_pad-13" x="162360" y="-111640"/><use xlink:href="#mYY0ZKs9KPaOQaHFFIHv_pad-13" x="160060" y="-111640"/><use xlink:href="#mYY0ZKs9KPaOQaHFFIHv_pad-14" x="160060" y="-117940"/><use xlink:href="#mYY0ZKs9KPaOQaHFFIHv_pad-13" x="157760" y="-111640"/><use xlink:href="#mYY0ZKs9KPaOQaHFFIHv_pad-15" x="145765" y="-108210"/><use xlink:href="#mYY0ZKs9KPaOQaHFFIHv_pad-15" x="144215" y="-108210"/><use xlink:href="#mYY0ZKs9KPaOQaHFFIHv_pad-16" x="146432.5" y="-101840"/><use xlink:href="#mYY0ZKs9KPaOQaHFFIHv_pad-16" x="148082.5" y="-101840"/><use xlink:href="#mYY0ZKs9KPaOQaHFFIHv_pad-17" x="136430" y="-117140"/><use xlink:href="#mYY0ZKs9KPaOQaHFFIHv_pad-17" x="136430" y="-115590"/><use xlink:href="#mYY0ZKs9KPaOQaHFFIHv_pad-18" x="152800" y="-121747.5"/><use xlink:href="#mYY0ZKs9KPaOQaHFFIHv_pad-18" x="152800" y="-120172.5"/><use xlink:href="#mYY0ZKs9KPaOQaHFFIHv_pad-19" x="141187.5" y="-103585"/><use xlink:href="#mYY0ZKs9KPaOQaHFFIHv_pad-19" x="141187.5" y="-105135"/><use xlink:href="#mYY0ZKs9KPaOQaHFFIHv_pad-20" x="161820" y="-96740"/><use xlink:href="#mYY0ZKs9KPaOQaHFFIHv_pad-20" x="165420" y="-96740"/><use xlink:href="#mYY0ZKs9KPaOQaHFFIHv_pad-21" x="154195" y="-114530"/><use xlink:href="#mYY0ZKs9KPaOQaHFFIHv_pad-21" x="155745" y="-114530"/><use xlink:href="#mYY0ZKs9KPaOQaHFFIHv_pad-22" x="146245" y="-105222.5"/><use xlink:href="#mYY0ZKs9KPaOQaHFFIHv_pad-22" x="146245" y="-103322.5"/><use xlink:href="#mYY0ZKs9KPaOQaHFFIHv_pad-22" x="144370" y="-104272.5"/><use xlink:href="#mYY0ZKs9KPaOQaHFFIHv_pad-23" x="148270" y="-103320"/><use xlink:href="#mYY0ZKs9KPaOQaHFFIHv_pad-23" x="148270" y="-105220"/><use xlink:href="#mYY0ZKs9KPaOQaHFFIHv_pad-23" x="150145" y="-104270"/><use xlink:href="#mYY0ZKs9KPaOQaHFFIHv_pad-15" x="162365" y="-109650"/><use xlink:href="#mYY0ZKs9KPaOQaHFFIHv_pad-15" x="160815" y="-109650"/><use xlink:href="#mYY0ZKs9KPaOQaHFFIHv_pad-15" x="150220" y="-108220"/><use xlink:href="#mYY0ZKs9KPaOQaHFFIHv_pad-15" x="148670" y="-108220"/><use xlink:href="#mYY0ZKs9KPaOQaHFFIHv_pad-17" x="160870" y="-92805"/><use xlink:href="#mYY0ZKs9KPaOQaHFFIHv_pad-17" x="160870" y="-91255"/><use xlink:href="#mYY0ZKs9KPaOQaHFFIHv_pad-11" x="148082.5" y="-106710"/><use xlink:href="#mYY0ZKs9KPaOQaHFFIHv_pad-11" x="146432.5" y="-106710"/><use xlink:href="#mYY0ZKs9KPaOQaHFFIHv_pad-24" x="139790" y="-109900"/><use xlink:href="#mYY0ZKs9KPaOQaHFFIHv_pad-24" x="139790" y="-118400"/><use xlink:href="#mYY0ZKs9KPaOQaHFFIHv_pad-25" x="149050" y="-96600"/><use xlink:href="#mYY0ZKs9KPaOQaHFFIHv_pad-25" x="149050" y="-99900"/><use xlink:href="#mYY0ZKs9KPaOQaHFFIHv_pad-25" x="153950" y="-99900"/><use xlink:href="#mYY0ZKs9KPaOQaHFFIHv_pad-25" x="153950" y="-96600"/><use xlink:href="#mYY0ZKs9KPaOQaHFFIHv_pad-26" x="159000" y="-92660"/><use xlink:href="#mYY0ZKs9KPaOQaHFFIHv_pad-26" x="159000" y="-91390"/><use xlink:href="#mYY0ZKs9KPaOQaHFFIHv_pad-26" x="159000" y="-90120"/><use xlink:href="#mYY0ZKs9KPaOQaHFFIHv_pad-26" x="159000" y="-88850"/><use xlink:href="#mYY0ZKs9KPaOQaHFFIHv_pad-26" x="159000" y="-87580"/><use xlink:href="#mYY0ZKs9KPaOQaHFFIHv_pad-26" x="159000" y="-86310"/><use xlink:href="#mYY0ZKs9KPaOQaHFFIHv_pad-26" x="159000" y="-85040"/><use xlink:href="#mYY0ZKs9KPaOQaHFFIHv_pad-26" x="159000" y="-83770"/><use xlink:href="#mYY0ZKs9KPaOQaHFFIHv_pad-26" x="144000" y="-83770"/><use xlink:href="#mYY0ZKs9KPaOQaHFFIHv_pad-26" x="144000" y="-85040"/><use xlink:href="#mYY0ZKs9KPaOQaHFFIHv_pad-26" x="144000" y="-86310"/><use xlink:href="#mYY0ZKs9KPaOQaHFFIHv_pad-26" x="144000" y="-87580"/><use xlink:href="#mYY0ZKs9KPaOQaHFFIHv_pad-26" x="144000" y="-88850"/><use xlink:href="#mYY0ZKs9KPaOQaHFFIHv_pad-26" x="144000" y="-90120"/><use xlink:href="#mYY0ZKs9KPaOQaHFFIHv_pad-26" x="144000" y="-91390"/><use xlink:href="#mYY0ZKs9KPaOQaHFFIHv_pad-26" x="144000" y="-92660"/><use xlink:href="#mYY0ZKs9KPaOQaHFFIHv_pad-21" x="145785" y="-96600"/><use xlink:href="#mYY0ZKs9KPaOQaHFFIHv_pad-21" x="147335" y="-96600"/><use xlink:href="#mYY0ZKs9KPaOQaHFFIHv_pad-27" x="144745" y="-109710"/><use xlink:href="#mYY0ZKs9KPaOQaHFFIHv_pad-27" x="144745" y="-110980"/><use xlink:href="#mYY0ZKs9KPaOQaHFFIHv_pad-27" x="144745" y="-112250"/><use xlink:href="#mYY0ZKs9KPaOQaHFFIHv_pad-27" x="144745" y="-113520"/><use xlink:href="#mYY0ZKs9KPaOQaHFFIHv_pad-27" x="144745" y="-114790"/><use xlink:href="#mYY0ZKs9KPaOQaHFFIHv_pad-27" x="144745" y="-116060"/><use xlink:href="#mYY0ZKs9KPaOQaHFFIHv_pad-27" x="144745" y="-117330"/><use xlink:href="#mYY0ZKs9KPaOQaHFFIHv_pad-27" x="144745" y="-118600"/><use xlink:href="#mYY0ZKs9KPaOQaHFFIHv_pad-27" x="149695" y="-118600"/><use xlink:href="#mYY0ZKs9KPaOQaHFFIHv_pad-27" x="149695" y="-117330"/><use xlink:href="#mYY0ZKs9KPaOQaHFFIHv_pad-27" x="149695" y="-116060"/><use xlink:href="#mYY0ZKs9KPaOQaHFFIHv_pad-27" x="149695" y="-114790"/><use xlink:href="#mYY0ZKs9KPaOQaHFFIHv_pad-27" x="149695" y="-113520"/><use xlink:href="#mYY0ZKs9KPaOQaHFFIHv_pad-27" x="149695" y="-112250"/><use xlink:href="#mYY0ZKs9KPaOQaHFFIHv_pad-27" x="149695" y="-110980"/><use xlink:href="#mYY0ZKs9KPaOQaHFFIHv_pad-27" x="149695" y="-109710"/><use xlink:href="#mYY0ZKs9KPaOQaHFFIHv_pad-17" x="153327.5" y="-105045"/><use xlink:href="#mYY0ZKs9KPaOQaHFFIHv_pad-17" x="153327.5" y="-103495"/><use xlink:href="#mYY0ZKs9KPaOQaHFFIHv_pad-28" x="145920" y="-120950"/><use xlink:href="#mYY0ZKs9KPaOQaHFFIHv_pad-28" x="146570" y="-120950"/><use xlink:href="#mYY0ZKs9KPaOQaHFFIHv_pad-28" x="147220" y="-120950"/><use xlink:href="#mYY0ZKs9KPaOQaHFFIHv_pad-28" x="147870" y="-120950"/><use xlink:href="#mYY0ZKs9KPaOQaHFFIHv_pad-28" x="148520" y="-120950"/><use xlink:href="#mYY0ZKs9KPaOQaHFFIHv_pad-29" x="137570" y="-100000"/><use xlink:href="#mYY0ZKs9KPaOQaHFFIHv_pad-29" x="138570" y="-96800"/><use xlink:href="#mYY0ZKs9KPaOQaHFFIHv_pad-29" x="139570" y="-100000"/><use xlink:href="#mYY0ZKs9KPaOQaHFFIHv_pad-29" x="140570" y="-96800"/><use xlink:href="#mYY0ZKs9KPaOQaHFFIHv_pad-22" x="155427.5" y="-113040"/><use xlink:href="#mYY0ZKs9KPaOQaHFFIHv_pad-22" x="155427.5" y="-111140"/><use xlink:href="#mYY0ZKs9KPaOQaHFFIHv_pad-22" x="153552.5" y="-112090"/><use xlink:href="#mYY0ZKs9KPaOQaHFFIHv_pad-11" x="159445" y="-119920"/><use xlink:href="#mYY0ZKs9KPaOQaHFFIHv_pad-11" x="157795" y="-119920"/><use xlink:href="#mYY0ZKs9KPaOQaHFFIHv_pad-30" x="155380" y="-122480"/><use xlink:href="#mYY0ZKs9KPaOQaHFFIHv_pad-30" x="155380" y="-118480"/><use xlink:href="#mYY0ZKs9KPaOQaHFFIHv_pad-31" x="151857.5" y="-103445"/><use xlink:href="#mYY0ZKs9KPaOQaHFFIHv_pad-31" x="151857.5" y="-105095"/><use xlink:href="#mYY0ZKs9KPaOQaHFFIHv_pad-19" x="136430" y="-112620"/><use xlink:href="#mYY0ZKs9KPaOQaHFFIHv_pad-19" x="136430" y="-114170"/><use xlink:href="#mYY0ZKs9KPaOQaHFFIHv_pad-23" x="158132.5" y="-121400"/><use xlink:href="#mYY0ZKs9KPaOQaHFFIHv_pad-23" x="158132.5" y="-123300"/><use xlink:href="#mYY0ZKs9KPaOQaHFFIHv_pad-23" x="160007.5" y="-122350"/><use xlink:href="#mYY0ZKs9KPaOQaHFFIHv_pad-32" x="142647.5" y="-105185"/><use xlink:href="#mYY0ZKs9KPaOQaHFFIHv_pad-32" x="142647.5" y="-103535"/><use xlink:href="#mYY0ZKs9KPaOQaHFFIHv_pad-17" x="141440" y="-123475"/><use xlink:href="#mYY0ZKs9KPaOQaHFFIHv_pad-17" x="141440" y="-121925"/><use xlink:href="#mYY0ZKs9KPaOQaHFFIHv_pad-33" x="139967.5" y="-123230"/><use xlink:href="#mYY0ZKs9KPaOQaHFFIHv_pad-33" x="138092.5" y="-123230"/></g></svg>