<svg version="1.1" xmlns="http://www.w3.org/2000/svg" xmlns:xlink="http://www.w3.org/1999/xlink" stroke-linecap="round" stroke-linejoin="round" stroke-width="0" fill-rule="evenodd" width="69.80658mm" height="64.43074mm" viewBox="129256 -132933.74 69806.58 64430.74" id="M3uLtrOkRiZpOtNKoeln"><g transform="translate(0,-201436.74) scale(1,-1)" fill="currentColor" stroke="currentColor"><path d="M 169207 -107379 A 2000 2000 0 0 0 167207 -105379 M 171458 -84130 A 2000 2000 0 0 0 169458 -86130 M 132957 -86132 133209 -86132 M 169457 -107379 A 2000 2000 0 0 0 171457 -109379 M 169208 -86131 169457 -86132 M 135208 -88130 135208 -105380 M 130958 -109380 130958 -122632" fill="none" stroke-width="254"/><path d="M 134460 -122130 A 1000 1000 0 0 0 132460 -122130 1000 1000 0 0 0 134460 -122130" fill="none" stroke-width="50"/><path d="M 133208 -86130 A 2000 2000 0 0 0 135208 -88130" fill="none" stroke-width="254"/><path d="M 134460 -71130 A 1000 1000 0 0 0 132460 -71130 1000 1000 0 0 0 134460 -71130" fill="none" stroke-width="50"/><path d="M 169458 -107380 169206 -107380 M 171457 -109380 171457 -122631 M 132958 -124630 A 2000 2000 0 0 0 130958 -122632 M 171457 -122631 A 2000.001 2000.001 0 0 0 169457 -124629 M 132958 -86130 A 2000 2000 0 0 0 130958 -84130 M 167208 -105381 167206 -88131 M 132957 -124629 169458 -124629 M 169458 -68630 A 2000 2000 0 0 0 171458 -70630 M 171458 -84130 171458 -70630 M 130958 -70631 130958 -84130 M 133209 -107381 132957 -107381 M 130958 -70630 A 2000 2000 0 0 0 132958 -68630 M 130958 -109380 A 2000 2000 0 0 0 132958 -107380" fill="none" stroke-width="254"/><path d="M 169960 -71130 A 1000 1000 0 0 0 167960 -71130 1000 1000 0 0 0 169960 -71130" fill="none" stroke-width="50"/><path d="M 167208 -88130 A 2000 2000 0 0 0 169208 -86130 M 135208 -105380 A 2000 2000 0 0 0 133208 -107380 M 169458 -68631 132957 -68631" fill="none" stroke-width="254"/><path d="M 166180 -111500 167680 -113000 M 167680 -111500 166180 -113000 M 166180 -114040 167680 -115540 M 167680 -114040 166180 -115540 M 166180 -116580 167680 -118080 M 167680 -116580 166180 -118080 M 166180 -119120 167680 -120620 M 167680 -119120 166180 -120620 M 166180 -121660 167680 -123160 M 167680 -121660 166180 -123160" fill="none" stroke-width="150"/><path d="M 133438.77 -127871.84 133438.77 -125871.84 133914.96 -125871.84 134200.67 -125967.08 134391.15 -126157.55 134486.39 -126348.03 134581.62 -126728.98 134581.62 -127014.69 134486.39 -127395.65 134391.15 -127586.12 134200.67 -127776.6 133914.96 -127871.84 133438.77 -127871.84 M 135438.77 -127871.84 135438.77 -126538.5 M 135438.77 -126919.46 135534.01 -126728.98 135629.24 -126633.74 135819.72 -126538.5 136010.2 -126538.5 M 136676.86 -127871.84 136676.86 -126538.5 M 136676.86 -125871.84 136581.62 -125967.08 136676.86 -126062.31 136772.1 -125967.08 136676.86 -125871.84 136676.86 -126062.31 M 137914.96 -127871.84 137724.48 -127776.6 137629.24 -127586.12 137629.24 -125871.84 M 138962.58 -127871.84 138772.1 -127776.6 138676.86 -127586.12 138676.86 -125871.84 M 141248.29 -127871.84 141248.29 -125871.84 141914.96 -127300.41 142581.62 -125871.84 142581.62 -127871.84 M 144391.15 -127871.84 144391.15 -126824.22 144295.91 -126633.74 144105.43 -126538.5 143724.48 -126538.5 143534.01 -126633.74 M 144391.15 -127776.6 144200.67 -127871.84 143724.48 -127871.84 143534.01 -127776.6 143438.77 -127586.12 143438.77 -127395.65 143534.01 -127205.17 143724.48 -127109.93 144200.67 -127109.93 144391.15 -127014.69 M 145343.53 -126538.5 145343.53 -128538.5 M 145343.53 -126633.74 145534.01 -126538.5 145914.96 -126538.5 146105.43 -126633.74 146200.67 -126728.98 146295.91 -126919.46 146295.91 -127490.88 146200.67 -127681.36 146105.43 -127776.6 145914.96 -127871.84 145534.01 -127871.84 145343.53 -127776.6 M 147153.05 -127681.36 147248.29 -127776.6 147153.05 -127871.84 147057.82 -127776.6 147153.05 -127681.36 147153.05 -127871.84 M 147153.05 -126633.74 147248.29 -126728.98 147153.05 -126824.22 147057.82 -126728.98 147153.05 -126633.74 147153.05 -126824.22" fill="none" stroke-width="200"/><path d="M 129331 -130407 130831 -131907 M 130831 -130407 129331 -131907" fill="none" stroke-width="150"/><path d="M 134486.39 -132071.84 133343.53 -132071.84 M 133914.96 -132071.84 133914.96 -130071.84 133724.48 -130357.55 133534.01 -130548.03 133343.53 -130643.27 M 135343.53 -131881.36 135438.77 -131976.6 135343.53 -132071.84 135248.29 -131976.6 135343.53 -131881.36 135343.53 -132071.84 M 137248.29 -130071.84 136295.91 -130071.84 136200.67 -131024.22 136295.91 -130928.98 136486.39 -130833.74 136962.58 -130833.74 137153.05 -130928.98 137248.29 -131024.22 137343.53 -131214.69 137343.53 -131690.88 137248.29 -131881.36 137153.05 -131976.6 136962.58 -132071.84 136486.39 -132071.84 136295.91 -131976.6 136200.67 -131881.36 M 138581.62 -130071.84 138772.1 -130071.84 138962.58 -130167.08 139057.82 -130262.31 139153.05 -130452.79 139248.29 -130833.74 139248.29 -131309.93 139153.05 -131690.88 139057.82 -131881.36 138962.58 -131976.6 138772.1 -132071.84 138581.62 -132071.84 138391.15 -131976.6 138295.91 -131881.36 138200.67 -131690.88 138105.43 -131309.93 138105.43 -130833.74 138200.67 -130452.79 138295.91 -130262.31 138391.15 -130167.08 138581.62 -130071.84 M 140486.39 -130071.84 140676.86 -130071.84 140867.34 -130167.08 140962.58 -130262.31 141057.82 -130452.79 141153.05 -130833.74 141153.05 -131309.93 141057.82 -131690.88 140962.58 -131881.36 140867.34 -131976.6 140676.86 -132071.84 140486.39 -132071.84 140295.91 -131976.6 140200.67 -131881.36 140105.43 -131690.88 140010.2 -131309.93 140010.2 -130833.74 140105.43 -130452.79 140200.67 -130262.31 140295.91 -130167.08 140486.39 -130071.84 M 142010.2 -132071.84 142010.2 -130738.5 M 142010.2 -130928.98 142105.43 -130833.74 142295.91 -130738.5 142581.63 -130738.5 142772.1 -130833.74 142867.34 -131024.22 142867.34 -132071.84 M 142867.34 -131024.22 142962.58 -130833.74 143153.05 -130738.5 143438.77 -130738.5 143629.24 -130833.74 143724.48 -131024.22 143724.48 -132071.84 M 144676.86 -132071.84 144676.86 -130738.5 M 144676.86 -130928.98 144772.1 -130833.74 144962.58 -130738.5 145248.29 -130738.5 145438.77 -130833.74 145534.01 -131024.22 145534.01 -132071.84 M 145534.01 -131024.22 145629.24 -130833.74 145819.72 -130738.5 146105.43 -130738.5 146295.91 -130833.74 146391.15 -131024.22 146391.15 -132071.84 M 150295.91 -129976.6 148581.63 -132548.03 M 152867.34 -130071.84 153057.82 -130071.84 153248.29 -130167.08 153343.53 -130262.31 153438.77 -130452.79 153534.01 -130833.74 153534.01 -131309.93 153438.77 -131690.88 153343.53 -131881.36 153248.29 -131976.6 153057.82 -132071.84 152867.34 -132071.84 152676.86 -131976.6 152581.63 -131881.36 152486.39 -131690.88 152391.15 -131309.93 152391.15 -130833.74 152486.39 -130452.79 152581.63 -130262.31 152676.86 -130167.08 152867.34 -130071.84 M 154391.15 -131881.36 154486.39 -131976.6 154391.15 -132071.84 154295.91 -131976.6 154391.15 -131881.36 154391.15 -132071.84 M 155724.48 -130071.84 155914.96 -130071.84 156105.44 -130167.08 156200.67 -130262.31 156295.91 -130452.79 156391.15 -130833.74 156391.15 -131309.93 156295.91 -131690.88 156200.67 -131881.36 156105.44 -131976.6 155914.96 -132071.84 155724.48 -132071.84 155534.01 -131976.6 155438.77 -131881.36 155343.53 -131690.88 155248.29 -131309.93 155248.29 -130833.74 155343.53 -130452.79 155438.77 -130262.31 155534.01 -130167.08 155724.48 -130071.84 M 158200.67 -130071.84 157248.29 -130071.84 157153.06 -131024.22 157248.29 -130928.98 157438.77 -130833.74 157914.96 -130833.74 158105.44 -130928.98 158200.67 -131024.22 158295.91 -131214.69 158295.91 -131690.88 158200.67 -131881.36 158105.44 -131976.6 157914.96 -132071.84 157438.77 -132071.84 157248.29 -131976.6 157153.06 -131881.36 M 159248.29 -132071.84 159629.25 -132071.84 159819.72 -131976.6 159914.96 -131881.36 160105.44 -131595.65 160200.67 -131214.69 160200.67 -130452.79 160105.44 -130262.31 160010.2 -130167.08 159819.72 -130071.84 159438.77 -130071.84 159248.29 -130167.08 159153.06 -130262.31 159057.82 -130452.79 159057.82 -130928.98 159153.06 -131119.46 159248.29 -131214.69 159438.77 -131309.93 159819.72 -131309.93 160010.2 -131214.69 160105.44 -131119.46 160200.67 -130928.98 M 162105.44 -132071.84 160962.58 -132071.84 M 161534.01 -132071.84 161534.01 -130071.84 161343.53 -130357.55 161153.06 -130548.03 160962.58 -130643.27 M 162867.34 -130071.84 162867.34 -130452.79 M 163629.25 -130071.84 163629.25 -130452.79 M 166581.63 -132833.74 166486.39 -132738.5 166295.91 -132452.79 166200.68 -132262.31 166105.44 -131976.6 166010.2 -131500.41 166010.2 -131119.46 166105.44 -130643.27 166200.68 -130357.55 166295.91 -130167.08 166486.39 -129881.36 166581.63 -129786.12 M 168295.91 -130071.84 167343.53 -130071.84 167248.29 -131024.22 167343.53 -130928.98 167534.01 -130833.74 168010.2 -130833.74 168200.68 -130928.98 168295.91 -131024.22 168391.15 -131214.69 168391.15 -131690.88 168295.91 -131881.36 168200.68 -131976.6 168010.2 -132071.84 167534.01 -132071.84 167343.53 -131976.6 167248.29 -131881.36 M 170772.11 -132071.84 170772.11 -130071.84 M 171629.25 -132071.84 171629.25 -131024.22 171534.01 -130833.74 171343.53 -130738.5 171057.82 -130738.5 170867.34 -130833.74 170772.11 -130928.98 M 172867.34 -132071.84 172676.87 -131976.6 172581.63 -131881.36 172486.39 -131690.88 172486.39 -131119.46 172581.63 -130928.98 172676.87 -130833.74 172867.34 -130738.5 173153.06 -130738.5 173343.53 -130833.74 173438.77 -130928.98 173534.01 -131119.46 173534.01 -131690.88 173438.77 -131881.36 173343.53 -131976.6 173153.06 -132071.84 172867.34 -132071.84 M 174676.87 -132071.84 174486.39 -131976.6 174391.15 -131786.12 174391.15 -130071.84 M 176200.68 -131976.6 176010.2 -132071.84 175629.25 -132071.84 175438.77 -131976.6 175343.53 -131786.12 175343.53 -131024.22 175438.77 -130833.74 175629.25 -130738.5 176010.2 -130738.5 176200.68 -130833.74 176295.92 -131024.22 176295.92 -131214.69 175343.53 -131405.17 M 177057.82 -131976.6 177248.3 -132071.84 177629.25 -132071.84 177819.73 -131976.6 177914.96 -131786.12 177914.96 -131690.88 177819.73 -131500.41 177629.25 -131405.17 177343.53 -131405.17 177153.06 -131309.93 177057.82 -131119.46 177057.82 -131024.22 177153.06 -130833.74 177343.53 -130738.5 177629.25 -130738.5 177819.73 -130833.74 M 178581.63 -132833.74 178676.87 -132738.5 178867.34 -132452.79 178962.58 -132262.31 179057.82 -131976.6 179153.06 -131500.41 179153.06 -131119.46 179057.82 -130643.27 178962.58 -130357.55 178867.34 -130167.08 178676.87 -129881.36 178581.63 -129786.12 M 182200.68 -132833.74 182105.44 -132738.5 181914.96 -132452.79 181819.73 -132262.31 181724.49 -131976.6 181629.25 -131500.41 181629.25 -131119.46 181724.49 -130643.27 181819.73 -130357.55 181914.96 -130167.08 182105.44 -129881.36 182200.68 -129786.12 M 182962.58 -130738.5 182962.58 -132071.84 M 182962.58 -130928.98 183057.82 -130833.74 183248.3 -130738.5 183534.01 -130738.5 183724.49 -130833.74 183819.73 -131024.22 183819.73 -132071.84 M 185057.82 -132071.84 184867.34 -131976.6 184772.11 -131881.36 184676.87 -131690.88 184676.87 -131119.46 184772.11 -130928.98 184867.34 -130833.74 185057.82 -130738.5 185343.54 -130738.5 185534.01 -130833.74 185629.25 -130928.98 185724.49 -131119.46 185724.49 -131690.88 185629.25 -131881.36 185534.01 -131976.6 185343.54 -132071.84 185057.82 -132071.84 M 186295.92 -130738.5 187057.82 -130738.5 M 186581.63 -130071.84 186581.63 -131786.12 186676.87 -131976.6 186867.34 -132071.84 187057.82 -132071.84 M 189248.3 -130738.5 189248.3 -132738.5 M 189248.3 -130833.74 189438.77 -130738.5 189819.73 -130738.5 190010.2 -130833.74 190105.44 -130928.98 190200.68 -131119.46 190200.68 -131690.88 190105.44 -131881.36 190010.2 -131976.6 189819.73 -132071.84 189438.77 -132071.84 189248.3 -131976.6 M 191343.54 -132071.84 191153.06 -131976.6 191057.82 -131786.12 191057.82 -130071.84 M 192962.58 -132071.84 192962.58 -131024.22 192867.35 -130833.74 192676.87 -130738.5 192295.92 -130738.5 192105.44 -130833.74 M 192962.58 -131976.6 192772.11 -132071.84 192295.92 -132071.84 192105.44 -131976.6 192010.2 -131786.12 192010.2 -131595.65 192105.44 -131405.17 192295.92 -131309.93 192772.11 -131309.93 192962.58 -131214.69 M 193629.25 -130738.5 194391.15 -130738.5 M 193914.96 -130071.84 193914.96 -131786.12 194010.2 -131976.6 194200.68 -132071.84 194391.15 -132071.84 M 195819.73 -131976.6 195629.25 -132071.84 195248.3 -132071.84 195057.82 -131976.6 194962.58 -131786.12 194962.58 -131024.22 195057.82 -130833.74 195248.3 -130738.5 195629.25 -130738.5 195819.73 -130833.74 195914.96 -131024.22 195914.96 -131214.69 194962.58 -131405.17 M 197629.25 -132071.84 197629.25 -130071.84 M 197629.25 -131976.6 197438.77 -132071.84 197057.82 -132071.84 196867.35 -131976.6 196772.11 -131881.36 196676.87 -131690.88 196676.87 -131119.46 196772.11 -130928.98 196867.35 -130833.74 197057.82 -130738.5 197438.77 -130738.5 197629.25 -130833.74 M 198391.16 -132833.74 198486.39 -132738.5 198676.87 -132452.79 198772.11 -132262.31 198867.35 -131976.6 198962.58 -131500.41 198962.58 -131119.46 198867.35 -130643.27 198772.11 -130357.55 198676.87 -130167.08 198486.39 -129881.36 198391.16 -129786.12" fill="none" stroke-width="200"/></g></svg>