<svg version="1.1" xmlns="http://www.w3.org/2000/svg" xmlns:xlink="http://www.w3.org/1999/xlink" stroke-linecap="round" stroke-linejoin="round" stroke-width="0" fill-rule="evenodd" width="41.5051000001mm" height="57.0060000016mm" viewBox="130434.9239999 -125125.776 41505.1000001 57006.0000016" id="NqDco8U7FW_7a0CN8x40"><defs><rect x="-900" y="-550" width="1800" height="1100" rx="550" ry="550" id="NqDco8U7FW_7a0CN8x40_pad-11"/><rect x="-1100" y="-550" width="2200" height="1100" rx="550" ry="550" id="NqDco8U7FW_7a0CN8x40_pad-12"/><g id="NqDco8U7FW_7a0CN8x40_pad-13"><polygon points="250,-225 250,225 -250,225 -250,-225"/><circle cx="250" cy="-225" r="225"/><circle cx="250" cy="225" r="225"/><circle cx="-250" cy="225" r="225"/><circle cx="-250" cy="-225" r="225"/><polygon points="475,-225 475,225 25,225 25,-225"/><polygon points="250,0 -250,0 -250,450 250,450"/><polygon points="-25,225 -25,-225 -475,-225 -475,225"/><polygon points="-250,-450 250,-450 250,0 -250,0"/></g><circle cx="0" cy="0" r="500" id="NqDco8U7FW_7a0CN8x40_pad-14"/><rect x="-1000" y="-500" width="2000" height="1000" id="NqDco8U7FW_7a0CN8x40_pad-15"/><rect x="-750" y="-450" width="1500" height="900" id="NqDco8U7FW_7a0CN8x40_pad-16"/><rect x="-450" y="-750" width="900" height="1500" id="NqDco8U7FW_7a0CN8x40_pad-17"/><circle cx="0" cy="0" r="300" id="NqDco8U7FW_7a0CN8x40_pad-18"/><rect x="-2100" y="-2100" width="4200" height="4200" id="NqDco8U7FW_7a0CN8x40_pad-19"/></defs><g transform="translate(0,-193245.5519984) scale(1,-1)" fill="currentColor" stroke="currentColor"><path d="M 169327.234 -86123.519 169178.562 -86122.918 M 133185.225 -86121.964 132935.195 -86121.964 A 2000.264 2000.264 0 0 0 130934.942 -84116.811 M 169941.695 -71120.091 A 1000 1000 0 0 0 167941.695 -71120.091 1000 1000 0 0 0 169941.695 -71120.091 M 167187.469 -88124.202 167189.47 -105382.215 M 135185.469 -105374.9 135185.469 -88122.21 M 132934.795 -124625.776 A 1999.876 1999.876 0 0 0 130934.932 -122620.264 M 133184.755 -107375.614 133184.755 -107375.619 M 130934.937 -109375.413 A 1999.763 1999.763 0 0 0 132934.73 -107375.637 M 169439.72 -68619.776 A 2000.2240016 2000.2240016 0 0 0 171440.024 -70620 M 132934.731 -107375.619 133184.755 -107375.619 M 171439.008 -122625.47 A 2000.2080002 2000.2080002 0 0 0 169438.705 -124625.708 M 130934.937 -84116.811 130934.937 -70620.527 M 132934.785 -124625.776 A 1999.8760001 1999.8760001 0 0 0 130934.932 -122620.264 M 132935.185 -86121.964 A 2000.2640001 2000.2640001 0 0 0 130934.942 -84116.811 M 134437.258 -122126.466 A 1000 1000 0 0 0 132437.258 -122126.466 1000 1000 0 0 0 134437.258 -122126.466 M 130934.937 -122620.264 130934.937 -109375.413 M 169189.575 -107374.62 A 2000.1200002 2000.1200002 0 0 0 167189.495 -105382.215 M 133184.755 -107375.614 133184.755 -107375.619 M 167187.469 -88124.202 A 2001.1310102 2001.1310102 0 0 0 169178.562 -86122.894 M 134437.258 -71120.091 A 1000 1000 0 0 0 132437.258 -71120.091 1000 1000 0 0 0 134437.258 -71120.091 M 169438.705 -124625.773 169438.705 -124625.776 M 169439.72 -68619.776 A 2000.2240016 2000.2240016 0 0 0 171440.024 -70620 M 130934.937 -70620.527 A 1999.7630002 1999.7630002 0 0 0 132934.633 -68620.737 M 171439.008 -109388.311 171439.008 -122625.47 M 135185.469 -105374.9 A 2000.669 2000.669 0 0 0 133184.755 -107375.569 M 135185.469 -105374.906 135185.469 -88122.21 M 171440 -70620 171440 -84122.97 M 133185.225 -86121.964 132935.185 -86121.964 M 171439.008 -122625.47 A 2000.2080002 2000.2080002 0 0 0 169438.705 -124625.708 M 171440 -84122.97 A 2001.0000012 2001.0000012 0 0 0 169421.96 -86123.827 M 167187.469 -88124.132 167189.47 -105382.215 M 169189.575 -107374.62 A 2000.1200002 2000.1200002 0 0 0 167189.495 -105382.215 M 169439.075 -107374.62 A 1999.9800002 1999.9800002 0 0 0 171439.033 -109388.311 M 169438.705 -124625.776 132934.795 -124625.776 M 171440 -70620 171440 -84122.96 M 132934.633 -68620.776 169439.72 -68619.776 M 169189.575 -107374.62 169439.075 -107374.62 M 169421.738 -86123.901 169189.719 -86122.963 M 167187.469 -88124.132 A 2000.9310134 2000.9310134 0 0 0 169189.719 -86122.969 M 169189.575 -107374.62 169439.075 -107374.62 M 169438.705 -124625.776 132934.785 -124625.776 M 132934.633 -68620.776 169439.72 -68619.776 M 130934.937 -109375.413 A 1999.763 1999.763 0 0 0 132934.731 -107375.637 M 133185.225 -86121.964 A 2000.2360002 2000.2360002 0 0 0 135185.436 -88122.21 M 130934.937 -70620.527 A 1999.7630002 1999.7630002 0 0 0 132934.633 -68620.737 M 134437.258 -71120.091 A 1000 1000 0 0 0 132437.258 -71120.091 1000 1000 0 0 0 134437.258 -71120.091 M 171440 -84122.96 A 2001.0000004 2001.0000004 0 0 0 169421.738 -86123.926 M 169941.695 -71120.091 A 1000 1000 0 0 0 167941.695 -71120.091 1000 1000 0 0 0 169941.695 -71120.091 M 133185.225 -86121.964 A 2000.2360002 2000.2360002 0 0 0 135185.436 -88122.21 M 132934.73 -107375.619 133184.755 -107375.619 M 171439.008 -109388.164 171439.008 -122625.47 M 130934.937 -84116.811 130934.937 -70620.527 M 134437.258 -122126.466 A 1000 1000 0 0 0 132437.258 -122126.466 1000 1000 0 0 0 134437.258 -122126.466 M 169439.075 -107374.62 A 1999.9800002 1999.9800002 0 0 0 171439.034 -109388.164 M 130934.937 -122620.264 130934.937 -109375.413 M 135185.469 -105374.906 A 2000.669 2000.669 0 0 0 133184.755 -107375.569" fill="none" stroke-width="1000"/><use xlink:href="#NqDco8U7FW_7a0CN8x40_pad-11" x="144420" y="-120700"/><use xlink:href="#NqDco8U7FW_7a0CN8x40_pad-12" x="147220" y="-122850"/><use xlink:href="#NqDco8U7FW_7a0CN8x40_pad-11" x="150020" y="-120700"/><use xlink:href="#NqDco8U7FW_7a0CN8x40_pad-13" x="162050" y="-77835"/><use xlink:href="#NqDco8U7FW_7a0CN8x40_pad-13" x="162050" y="-76285"/><use xlink:href="#NqDco8U7FW_7a0CN8x40_pad-14" x="166930" y="-122410"/><use xlink:href="#NqDco8U7FW_7a0CN8x40_pad-14" x="166930" y="-119870"/><use xlink:href="#NqDco8U7FW_7a0CN8x40_pad-14" x="166930" y="-117330"/><use xlink:href="#NqDco8U7FW_7a0CN8x40_pad-14" x="166930" y="-114790"/><use xlink:href="#NqDco8U7FW_7a0CN8x40_pad-14" x="166930" y="-112250"/><use xlink:href="#NqDco8U7FW_7a0CN8x40_pad-15" x="168454" y="-122410"/><use xlink:href="#NqDco8U7FW_7a0CN8x40_pad-15" x="165444" y="-119880"/><use xlink:href="#NqDco8U7FW_7a0CN8x40_pad-15" x="168454" y="-117330"/><use xlink:href="#NqDco8U7FW_7a0CN8x40_pad-15" x="165444" y="-114800"/><use xlink:href="#NqDco8U7FW_7a0CN8x40_pad-15" x="168454" y="-112250"/><use xlink:href="#NqDco8U7FW_7a0CN8x40_pad-16" x="160250" y="-76380"/><use xlink:href="#NqDco8U7FW_7a0CN8x40_pad-16" x="160250" y="-77650"/><use xlink:href="#NqDco8U7FW_7a0CN8x40_pad-16" x="160250" y="-78920"/><use xlink:href="#NqDco8U7FW_7a0CN8x40_pad-16" x="160250" y="-80190"/><use xlink:href="#NqDco8U7FW_7a0CN8x40_pad-16" x="160250" y="-81460"/><use xlink:href="#NqDco8U7FW_7a0CN8x40_pad-16" x="160250" y="-82730"/><use xlink:href="#NqDco8U7FW_7a0CN8x40_pad-16" x="160250" y="-84000"/><use xlink:href="#NqDco8U7FW_7a0CN8x40_pad-16" x="160250" y="-85270"/><use xlink:href="#NqDco8U7FW_7a0CN8x40_pad-16" x="160250" y="-86540"/><use xlink:href="#NqDco8U7FW_7a0CN8x40_pad-16" x="160250" y="-87810"/><use xlink:href="#NqDco8U7FW_7a0CN8x40_pad-16" x="160250" y="-89080"/><use xlink:href="#NqDco8U7FW_7a0CN8x40_pad-16" x="160250" y="-90350"/><use xlink:href="#NqDco8U7FW_7a0CN8x40_pad-16" x="160250" y="-91620"/><use xlink:href="#NqDco8U7FW_7a0CN8x40_pad-16" x="160250" y="-92890"/><use xlink:href="#NqDco8U7FW_7a0CN8x40_pad-17" x="157210" y="-94140"/><use xlink:href="#NqDco8U7FW_7a0CN8x40_pad-17" x="155940" y="-94140"/><use xlink:href="#NqDco8U7FW_7a0CN8x40_pad-17" x="154670" y="-94140"/><use xlink:href="#NqDco8U7FW_7a0CN8x40_pad-17" x="153400" y="-94140"/><use xlink:href="#NqDco8U7FW_7a0CN8x40_pad-17" x="152130" y="-94140"/><use xlink:href="#NqDco8U7FW_7a0CN8x40_pad-17" x="150860" y="-94140"/><use xlink:href="#NqDco8U7FW_7a0CN8x40_pad-17" x="149590" y="-94140"/><use xlink:href="#NqDco8U7FW_7a0CN8x40_pad-17" x="148320" y="-94140"/><use xlink:href="#NqDco8U7FW_7a0CN8x40_pad-17" x="147050" y="-94140"/><use xlink:href="#NqDco8U7FW_7a0CN8x40_pad-17" x="145780" y="-94140"/><use xlink:href="#NqDco8U7FW_7a0CN8x40_pad-16" x="142750" y="-92890"/><use xlink:href="#NqDco8U7FW_7a0CN8x40_pad-16" x="142750" y="-91620"/><use xlink:href="#NqDco8U7FW_7a0CN8x40_pad-16" x="142750" y="-90350"/><use xlink:href="#NqDco8U7FW_7a0CN8x40_pad-16" x="142750" y="-89080"/><use xlink:href="#NqDco8U7FW_7a0CN8x40_pad-16" x="142750" y="-87810"/><use xlink:href="#NqDco8U7FW_7a0CN8x40_pad-16" x="142750" y="-86540"/><use xlink:href="#NqDco8U7FW_7a0CN8x40_pad-16" x="142750" y="-85270"/><use xlink:href="#NqDco8U7FW_7a0CN8x40_pad-16" x="142750" y="-84000"/><use xlink:href="#NqDco8U7FW_7a0CN8x40_pad-16" x="142750" y="-82730"/><use xlink:href="#NqDco8U7FW_7a0CN8x40_pad-16" x="142750" y="-81460"/><use xlink:href="#NqDco8U7FW_7a0CN8x40_pad-16" x="142750" y="-80190"/><use xlink:href="#NqDco8U7FW_7a0CN8x40_pad-16" x="142750" y="-78920"/><use xlink:href="#NqDco8U7FW_7a0CN8x40_pad-16" x="142750" y="-77650"/><use xlink:href="#NqDco8U7FW_7a0CN8x40_pad-16" x="142750" y="-76380"/><use xlink:href="#NqDco8U7FW_7a0CN8x40_pad-18" x="153705" y="-84482.5"/><use xlink:href="#NqDco8U7FW_7a0CN8x40_pad-18" x="153705" y="-82957.5"/><use xlink:href="#NqDco8U7FW_7a0CN8x40_pad-18" x="152942.5" y="-85245"/><use xlink:href="#NqDco8U7FW_7a0CN8x40_pad-18" x="152942.5" y="-83720"/><use xlink:href="#NqDco8U7FW_7a0CN8x40_pad-18" x="152942.5" y="-82195"/><use xlink:href="#NqDco8U7FW_7a0CN8x40_pad-18" x="152180" y="-84482.5"/><use xlink:href="#NqDco8U7FW_7a0CN8x40_pad-19" x="152180" y="-83720"/><use xlink:href="#NqDco8U7FW_7a0CN8x40_pad-18" x="152180" y="-82957.5"/><use xlink:href="#NqDco8U7FW_7a0CN8x40_pad-18" x="151417.5" y="-85245"/><use xlink:href="#NqDco8U7FW_7a0CN8x40_pad-18" x="151417.5" y="-83720"/><use xlink:href="#NqDco8U7FW_7a0CN8x40_pad-18" x="151417.5" y="-82195"/><use xlink:href="#NqDco8U7FW_7a0CN8x40_pad-18" x="150655" y="-84482.5"/><use xlink:href="#NqDco8U7FW_7a0CN8x40_pad-18" x="150655" y="-82957.5"/></g></svg>