<svg version="1.1" xmlns="http://www.w3.org/2000/svg" xmlns:xlink="http://www.w3.org/1999/xlink" stroke-linecap="round" stroke-linejoin="round" stroke-width="0" fill-rule="evenodd" width="65.16254mm" height="69.71074mm" viewBox="130281 -138213.74 65162.54 69710.74" id="SOol9qsEthGke3V98xif"><g transform="translate(0,-206716.74) scale(1,-1)" fill="currentColor" stroke="currentColor"><path d="M 169207 -107379 A 2000 2000 0 0 0 167207 -105379 M 171458 -84130 A 2000 2000 0 0 0 169458 -86130 M 132957 -86132 133209 -86132 M 169457 -107379 A 2000 2000 0 0 0 171457 -109379 M 169208 -86131 169457 -86132 M 135208 -88130 135208 -105380 M 130958 -109380 130958 -122632" fill="none" stroke-width="254"/><path d="M 134460 -122130 A 1000 1000 0 0 0 132460 -122130 1000 1000 0 0 0 134460 -122130" fill="none" stroke-width="50"/><path d="M 133208 -86130 A 2000 2000 0 0 0 135208 -88130" fill="none" stroke-width="254"/><path d="M 134460 -71130 A 1000 1000 0 0 0 132460 -71130 1000 1000 0 0 0 134460 -71130" fill="none" stroke-width="50"/><path d="M 169458 -107380 169206 -107380 M 171457 -109380 171457 -122631 M 132958 -124630 A 2000 2000 0 0 0 130958 -122632 M 171457 -122631 A 2000.001 2000.001 0 0 0 169457 -124629 M 132958 -86130 A 2000 2000 0 0 0 130958 -84130 M 167208 -105381 167206 -88131 M 132957 -124629 169458 -124629 M 169458 -68630 A 2000 2000 0 0 0 171458 -70630 M 171458 -84130 171458 -70630 M 130958 -70631 130958 -84130 M 133209 -107381 132957 -107381 M 130958 -70630 A 2000 2000 0 0 0 132958 -68630 M 130958 -109380 A 2000 2000 0 0 0 132958 -107380" fill="none" stroke-width="254"/><path d="M 169960 -71130 A 1000 1000 0 0 0 167960 -71130 1000 1000 0 0 0 169960 -71130" fill="none" stroke-width="50"/><path d="M 167208 -88130 A 2000 2000 0 0 0 169208 -86130 M 135208 -105380 A 2000 2000 0 0 0 133208 -107380 M 169458 -68631 132957 -68631" fill="none" stroke-width="254"/><path d="M 135150 -114050 135450 -114350 M 135450 -114050 135150 -114350 M 135150 -115450 135450 -115750 M 135450 -115450 135150 -115750 M 137450 -95650 137750 -95950 M 137750 -95650 137450 -95950 M 137450 -96950 137750 -97250 M 137750 -96950 137450 -97250 M 137450 -98250 137750 -98550 M 137750 -98250 137450 -98550 M 137450 -101350 137750 -101650 M 137750 -101350 137450 -101650 M 137450 -102650 137750 -102950 M 137750 -102650 137450 -102950 M 137550 -114050 137850 -114350 M 137850 -114050 137550 -114350 M 137550 -115450 137850 -115750 M 137850 -115450 137550 -115750 M 137920 -121960 138220 -122260 M 138220 -121960 137920 -122260 M 138750 -102650 139050 -102950 M 139050 -102650 138750 -102950 M 139950 -81310 140250 -81610 M 140250 -81310 139950 -81610 M 139950 -103450 140250 -103750 M 140250 -103450 139950 -103750 M 140150 -76380 140450 -76680 M 140450 -76380 140150 -76680 M 140160 -121880 140460 -122180 M 140460 -121880 140160 -122180 M 140330 -80040 140630 -80340 M 140630 -80040 140330 -80340 M 140620 -82580 140920 -82880 M 140920 -82580 140620 -82880 M 141050 -102350 141350 -102650 M 141350 -102350 141050 -102650 M 141150 -92450 141450 -92750 M 141450 -92450 141150 -92750 M 141150 -93350 141450 -93650 M 141450 -93350 141150 -93650 M 141150 -94250 141450 -94550 M 141450 -94250 141150 -94550 M 141250 -76380 141550 -76680 M 141550 -76380 141250 -76680 M 141250 -120850 141550 -121150 M 141550 -120850 141250 -121150 M 142460 -121880 142760 -122180 M 142760 -121880 142460 -122180 M 142480 -100730 142780 -101030 M 142780 -100730 142480 -101030 M 142650 -75050 142950 -75350 M 142950 -75050 142650 -75350 M 142650 -114250 142950 -114550 M 142950 -114250 142650 -114550 M 143050 -108050 143350 -108350 M 143350 -108050 143050 -108350 M 143050 -109550 143350 -109850 M 143350 -109550 143050 -109850 M 143850 -93550 144150 -93850 M 144150 -93550 143850 -93850 M 143850 -94550 144150 -94850 M 144150 -94550 143850 -94850 M 143850 -98050 144150 -98350 M 144150 -98050 143850 -98350 M 143850 -99050 144150 -99350 M 144150 -99050 143850 -99350 M 143950 -75050 144250 -75350 M 144250 -75050 143950 -75350 M 143950 -76250 144250 -76550 M 144250 -76250 143950 -76550 M 144050 -107050 144350 -107350 M 144350 -107050 144050 -107350 M 144170 -103260 144470 -103560 M 144470 -103260 144170 -103560 M 145050 -75050 145350 -75350 M 145350 -75050 145050 -75350 M 145050 -76250 145350 -76550 M 145350 -76250 145050 -76550 M 145050 -98050 145350 -98350 M 145350 -98050 145050 -98350 M 145050 -99050 145350 -99350 M 145350 -99050 145050 -99350 M 145450 -123350 145750 -123650 M 145750 -123350 145450 -123650 M 145630 -89010 145930 -89310 M 145930 -89010 145630 -89310 M 145630 -90730 145930 -91030 M 145930 -90730 145630 -91030 M 146050 -98050 146350 -98350 M 146350 -98050 146050 -98350 M 146050 -99050 146350 -99350 M 146350 -99050 146050 -99350 M 146150 -109550 146450 -109850 M 146450 -109550 146150 -109850 M 146150 -110950 146450 -111250 M 146450 -110950 146150 -111250 M 146150 -112450 146450 -112750 M 146450 -112450 146150 -112750 M 146150 -114250 146450 -114550 M 146450 -114250 146150 -114550 M 146250 -91350 146550 -91650 M 146550 -91350 146250 -91650 M 146250 -92450 146550 -92750 M 146550 -92450 146250 -92750 M 146282.5 -102530 146582.5 -102830 M 146582.5 -102530 146282.5 -102830 M 147250 -91350 147550 -91650 M 147550 -91350 147250 -91650 M 147680 -84620 147980 -84920 M 147980 -84620 147680 -84920 M 147950 -114750 148250 -115050 M 148250 -114750 147950 -115050 M 147978.2 -86848.2 148278.2 -87148.2 M 148278.2 -86848.2 147978.2 -87148.2 M 148160 -116560 148460 -116860 M 148460 -116560 148160 -116860 M 148180 -117820 148480 -118120 M 148480 -117820 148180 -118120 M 148250 -98750 148550 -99050 M 148550 -98750 148250 -99050 M 148280 -91360 148580 -91660 M 148580 -91360 148280 -91660 M 148550 -122250 148850 -122550 M 148850 -122250 148550 -122550 M 149160 -91530 149460 -91830 M 149460 -91530 149160 -91830 M 149230 -87430 149530 -87730 M 149530 -87430 149230 -87730 M 149250 -107250 149550 -107550 M 149550 -107250 149250 -107550 M 149750 -122250 150050 -122550 M 150050 -122250 149750 -122550 M 149750 -123350 150050 -123650 M 150050 -123350 149750 -123650 M 149840 -103220 150140 -103520 M 150140 -103220 149840 -103520 M 150610 -87711.8 150910 -88011.8 M 150910 -87711.8 150610 -88011.8 M 151040 -112090 151340 -112390 M 151340 -112090 151040 -112390 M 151350 -98150 151650 -98450 M 151650 -98150 151350 -98450 M 151350 -116050 151650 -116350 M 151650 -116050 151350 -116350 M 151350 -117250 151650 -117550 M 151650 -117250 151350 -117550 M 151450 -121650 151750 -121950 M 151750 -121650 151450 -121950 M 151460 -113340 151760 -113640 M 151760 -113340 151460 -113640 M 151610 -106560 151910 -106860 M 151910 -106560 151610 -106860 M 152350 -99750 152650 -100050 M 152650 -99750 152350 -100050 M 152650 -106150 152950 -106450 M 152950 -106150 152650 -106450 M 152650 -107150 152950 -107450 M 152950 -107150 152650 -107450 M 152650 -108150 152950 -108450 M 152950 -108150 152650 -108450 M 152650 -116050 152950 -116350 M 152950 -116050 152650 -116350 M 152650 -117250 152950 -117550 M 152950 -117250 152650 -117550 M 152650 -122650 152950 -122950 M 152950 -122650 152650 -122950 M 153150 -102350 153450 -102650 M 153450 -102350 153150 -102650 M 153650 -106150 153950 -106450 M 153950 -106150 153650 -106450 M 153650 -107150 153950 -107450 M 153950 -107150 153650 -107450 M 153750 -100850 154050 -101150 M 154050 -100850 153750 -101150 M 153850 -121650 154150 -121950 M 154150 -121650 153850 -121950 M 154150 -102350 154450 -102650 M 154450 -102350 154150 -102650 M 154150 -103350 154450 -103650 M 154450 -103350 154150 -103650 M 154310 -113320 154610 -113620 M 154610 -113320 154310 -113620 M 154450 -98150 154750 -98450 M 154750 -98150 154450 -98450 M 155250 -99850 155550 -100150 M 155550 -99850 155250 -100150 M 155650 -91250 155950 -91550 M 155950 -91250 155650 -91550 M 155650 -92550 155950 -92850 M 155950 -92550 155650 -92850 M 155800 -87138.2 156100 -87438.2 M 156100 -87138.2 155800 -87438.2 M 155860 -101950 156160 -102250 M 156160 -101950 155860 -102250 M 156050 -84850 156350 -85150 M 156350 -84850 156050 -85150 M 156350 -91950 156650 -92250 M 156650 -91950 156350 -92250 M 156397.5 -119792.5 156697.5 -120092.5 M 156697.5 -119792.5 156397.5 -120092.5 M 156410 -90551.8 156710 -90851.8 M 156710 -90551.8 156410 -90851.8 M 156650 -84050 156950 -84350 M 156950 -84050 156650 -84350 M 156650 -117350 156950 -117650 M 156950 -117350 156650 -117650 M 156650 -118950 156950 -119250 M 156950 -118950 156650 -119250 M 157050 -91250 157350 -91550 M 157350 -91250 157050 -91550 M 157050 -92550 157350 -92850 M 157350 -92550 157050 -92850 M 157050 -95450 157350 -95750 M 157350 -95450 157050 -95750 M 157150 -84850 157450 -85150 M 157450 -84850 157150 -85150 M 157150 -118150 157450 -118450 M 157450 -118150 157150 -118450 M 157350 -75050 157650 -75350 M 157650 -75050 157350 -75350 M 157350 -76250 157650 -76550 M 157650 -76250 157350 -76550 M 157550 -105450 157850 -105750 M 157850 -105450 157550 -105750 M 158150 -93950 158450 -94250 M 158450 -93950 158150 -94250 M 158150 -95450 158450 -95750 M 158450 -95450 158150 -95750 M 158150 -96850 158450 -97150 M 158450 -96850 158150 -97150 M 158650 -75050 158950 -75350 M 158950 -75050 158650 -75350 M 158650 -76250 158950 -76550 M 158950 -76250 158650 -76550 M 159050 -102250 159350 -102550 M 159350 -102250 159050 -102550 M 159050 -103350 159350 -103650 M 159350 -103350 159050 -103650 M 159050 -104450 159350 -104750 M 159350 -104450 159050 -104750 M 159050 -105550 159350 -105850 M 159350 -105550 159050 -105850 M 160150 -75050 160450 -75350 M 160450 -75050 160150 -75350 M 160250 -119950 160550 -120250 M 160550 -119950 160250 -120250 M 160250 -120850 160550 -121150 M 160550 -120850 160250 -121150 M 160450 -100050 160750 -100350 M 160750 -100050 160450 -100350 M 160450 -103350 160750 -103650 M 160750 -103350 160450 -103650 M 160450 -104450 160750 -104750 M 160750 -104450 160450 -104750 M 160450 -105550 160750 -105850 M 160750 -105550 160450 -105850 M 160480 -98480 160780 -98780 M 160780 -98480 160480 -98780 M 161150 -119950 161450 -120250 M 161450 -119950 161150 -120250 M 161150 -120850 161450 -121150 M 161450 -120850 161150 -121150 M 161550 -84850 161850 -85150 M 161850 -84850 161550 -85150 M 161550 -85850 161850 -86150 M 161850 -85850 161550 -86150 M 161550 -86850 161850 -87150 M 161850 -86850 161550 -87150 M 161650 -92250 161950 -92550 M 161950 -92250 161650 -92550 M 161850 -88450 162150 -88750 M 162150 -88450 161850 -88750 M 161850 -89550 162150 -89850 M 162150 -89550 161850 -89850 M 161850 -91250 162150 -91550 M 162150 -91250 161850 -91550 M 161950 -75050 162250 -75350 M 162250 -75050 161950 -75350 M 162050 -119950 162350 -120250 M 162350 -119950 162050 -120250 M 162050 -120850 162350 -121150 M 162350 -120850 162050 -121150 M 162250 -81650 162550 -81950 M 162550 -81650 162250 -81950 M 162250 -108450 162550 -108750 M 162550 -108450 162250 -108750 M 162250 -113150 162550 -113450 M 162550 -113150 162250 -113450 M 162250 -114250 162550 -114550 M 162550 -114250 162250 -114550 M 162250 -115350 162550 -115650 M 162550 -115350 162250 -115650 M 162250 -116450 162550 -116750 M 162550 -116450 162250 -116750 M 162550 -84850 162850 -85150 M 162850 -84850 162550 -85150 M 162550 -85850 162850 -86150 M 162850 -85850 162550 -86150 M 162550 -86850 162850 -87150 M 162850 -86850 162550 -87150 M 162750 -91250 163050 -91550 M 163050 -91250 162750 -91550 M 162940 -89450 163240 -89750 M 163240 -89450 162940 -89750 M 162950 -75050 163250 -75350 M 163250 -75050 162950 -75350 M 162950 -76150 163250 -76450 M 163250 -76150 162950 -76450 M 163250 -108450 163550 -108750 M 163550 -108450 163250 -108750 M 163250 -109450 163550 -109750 M 163550 -109450 163250 -109750 M 163250 -113450 163550 -113750 M 163550 -113450 163250 -113750 M 163250 -114650 163550 -114950 M 163550 -114650 163250 -114950 M 163250 -115850 163550 -116150 M 163550 -115850 163250 -116150 M 163350 -79250 163650 -79550 M 163650 -79250 163350 -79550 M 163350 -81650 163650 -81950 M 163650 -81650 163350 -81950 M 163350 -83550 163650 -83850 M 163650 -83550 163350 -83850 M 163550 -111550 163850 -111850 M 163850 -111550 163550 -111850 M 164250 -75050 164550 -75350 M 164550 -75050 164250 -75350 M 164250 -76150 164550 -76450 M 164550 -76150 164250 -76450 M 164250 -98050 164550 -98350 M 164550 -98050 164250 -98350 M 164250 -99050 164550 -99350 M 164550 -99050 164250 -99350 M 164250 -108450 164550 -108750 M 164550 -108450 164250 -108750 M 164250 -109450 164550 -109750 M 164550 -109450 164250 -109750 M 164350 -113450 164650 -113750 M 164650 -113450 164350 -113750 M 164350 -115850 164650 -116150 M 164650 -115850 164350 -116150 M 164750 -84950 165050 -85250 M 165050 -84950 164750 -85250 M 165250 -94150 165550 -94450 M 165550 -94150 165250 -94450 M 165250 -95150 165550 -95450 M 165550 -95150 165250 -95450 M 165250 -98050 165550 -98350 M 165550 -98050 165250 -98350 M 165250 -99050 165550 -99350 M 165550 -99050 165250 -99350 M 166400 -84920 166700 -85220 M 166700 -84920 166400 -85220 M 167950 -75050 168250 -75350 M 168250 -75050 167950 -75350 M 167950 -76150 168250 -76450 M 168250 -76150 167950 -76450 M 168800 -118380 169100 -118680 M 169100 -118380 168800 -118680 M 169150 -75050 169450 -75350 M 169450 -75050 169150 -75350 M 169150 -76150 169450 -76450 M 169450 -76150 169150 -76450 M 170450 -75050 170750 -75350 M 170750 -75050 170450 -75350 M 170450 -76150 170750 -76450 M 170750 -76150 170450 -76450 M 150805 -82957.5 A 150 150 0 0 0 150505 -82957.5 150 150 0 0 0 150805 -82957.5 M 150805 -84482.5 A 150 150 0 0 0 150505 -84482.5 150 150 0 0 0 150805 -84482.5 M 151567.5 -82195 A 150 150 0 0 0 151267.5 -82195 150 150 0 0 0 151567.5 -82195 M 151567.5 -83720 A 150 150 0 0 0 151267.5 -83720 150 150 0 0 0 151567.5 -83720 M 151567.5 -85245 A 150 150 0 0 0 151267.5 -85245 150 150 0 0 0 151567.5 -85245 M 152330 -82957.5 A 150 150 0 0 0 152030 -82957.5 150 150 0 0 0 152330 -82957.5 M 152330 -84482.5 A 150 150 0 0 0 152030 -84482.5 150 150 0 0 0 152330 -84482.5 M 153092.5 -82195 A 150 150 0 0 0 152792.5 -82195 150 150 0 0 0 153092.5 -82195 M 153092.5 -83720 A 150 150 0 0 0 152792.5 -83720 150 150 0 0 0 153092.5 -83720 M 153092.5 -85245 A 150 150 0 0 0 152792.5 -85245 150 150 0 0 0 153092.5 -85245 M 153855 -82957.5 A 150 150 0 0 0 153555 -82957.5 150 150 0 0 0 153855 -82957.5 M 153855 -84482.5 A 150 150 0 0 0 153555 -84482.5 150 150 0 0 0 153855 -84482.5 M 144420 -120450 144420 -120950 M 144170 -120700 144670 -120700 M 144070 -120950 144770 -120950 M 144770 -120450 A 250 250 0 0 0 144770 -120950 M 144770 -120450 144070 -120450 A 250 250 0 0 1 144070 -120950 M 147220 -122600 147220 -123100 M 146970 -122850 147470 -122850 M 146670 -123100 147770 -123100 M 147770 -122600 A 250 250 0 0 0 147770 -123100 M 147770 -122600 146670 -122600 A 250 250 0 0 1 146670 -123100 M 150020 -120450 150020 -120950 M 149770 -120700 150270 -120700 M 149670 -120950 150370 -120950 M 150370 -120450 A 250 250 0 0 0 150370 -120950 M 150370 -120450 149670 -120450 A 250 250 0 0 1 149670 -120950" fill="none" stroke-width="100"/><path d="M 133438.77 -127871.84 133438.77 -125871.84 133914.96 -125871.84 134200.67 -125967.08 134391.15 -126157.55 134486.39 -126348.03 134581.62 -126728.98 134581.62 -127014.69 134486.39 -127395.65 134391.15 -127586.12 134200.67 -127776.6 133914.96 -127871.84 133438.77 -127871.84 M 135438.77 -127871.84 135438.77 -126538.5 M 135438.77 -126919.46 135534.01 -126728.98 135629.24 -126633.74 135819.72 -126538.5 136010.2 -126538.5 M 136676.86 -127871.84 136676.86 -126538.5 M 136676.86 -125871.84 136581.62 -125967.08 136676.86 -126062.31 136772.1 -125967.08 136676.86 -125871.84 136676.86 -126062.31 M 137914.96 -127871.84 137724.48 -127776.6 137629.24 -127586.12 137629.24 -125871.84 M 138962.58 -127871.84 138772.1 -127776.6 138676.86 -127586.12 138676.86 -125871.84 M 141248.29 -127871.84 141248.29 -125871.84 141914.96 -127300.41 142581.62 -125871.84 142581.62 -127871.84 M 144391.15 -127871.84 144391.15 -126824.22 144295.91 -126633.74 144105.43 -126538.5 143724.48 -126538.5 143534.01 -126633.74 M 144391.15 -127776.6 144200.67 -127871.84 143724.48 -127871.84 143534.01 -127776.6 143438.77 -127586.12 143438.77 -127395.65 143534.01 -127205.17 143724.48 -127109.93 144200.67 -127109.93 144391.15 -127014.69 M 145343.53 -126538.5 145343.53 -128538.5 M 145343.53 -126633.74 145534.01 -126538.5 145914.96 -126538.5 146105.43 -126633.74 146200.67 -126728.98 146295.91 -126919.46 146295.91 -127490.88 146200.67 -127681.36 146105.43 -127776.6 145914.96 -127871.84 145534.01 -127871.84 145343.53 -127776.6 M 147153.05 -127681.36 147248.29 -127776.6 147153.05 -127871.84 147057.82 -127776.6 147153.05 -127681.36 147153.05 -127871.84 M 147153.05 -126633.74 147248.29 -126728.98 147153.05 -126824.22 147057.82 -126728.98 147153.05 -126633.74 147153.05 -126824.22" fill="none" stroke-width="200"/><path d="M 130531 -131007 130831 -131307 M 130831 -131007 130531 -131307" fill="none" stroke-width="100"/><path d="M 133819.72 -130071.84 134010.2 -130071.84 134200.67 -130167.08 134295.91 -130262.31 134391.15 -130452.79 134486.39 -130833.74 134486.39 -131309.93 134391.15 -131690.88 134295.91 -131881.36 134200.67 -131976.6 134010.2 -132071.84 133819.72 -132071.84 133629.24 -131976.6 133534.01 -131881.36 133438.77 -131690.88 133343.53 -131309.93 133343.53 -130833.74 133438.77 -130452.79 133534.01 -130262.31 133629.24 -130167.08 133819.72 -130071.84 M 135343.53 -131881.36 135438.77 -131976.6 135343.53 -132071.84 135248.29 -131976.6 135343.53 -131881.36 135343.53 -132071.84 M 136105.43 -130071.84 137343.53 -130071.84 136676.86 -130833.74 136962.58 -130833.74 137153.05 -130928.98 137248.29 -131024.22 137343.53 -131214.69 137343.53 -131690.88 137248.29 -131881.36 137153.05 -131976.6 136962.58 -132071.84 136391.15 -132071.84 136200.67 -131976.6 136105.43 -131881.36 M 138581.62 -130071.84 138772.1 -130071.84 138962.58 -130167.08 139057.82 -130262.31 139153.05 -130452.79 139248.29 -130833.74 139248.29 -131309.93 139153.05 -131690.88 139057.82 -131881.36 138962.58 -131976.6 138772.1 -132071.84 138581.62 -132071.84 138391.15 -131976.6 138295.91 -131881.36 138200.67 -131690.88 138105.43 -131309.93 138105.43 -130833.74 138200.67 -130452.79 138295.91 -130262.31 138391.15 -130167.08 138581.62 -130071.84 M 140486.39 -130071.84 140676.86 -130071.84 140867.34 -130167.08 140962.58 -130262.31 141057.82 -130452.79 141153.05 -130833.74 141153.05 -131309.93 141057.82 -131690.88 140962.58 -131881.36 140867.34 -131976.6 140676.86 -132071.84 140486.39 -132071.84 140295.91 -131976.6 140200.67 -131881.36 140105.43 -131690.88 140010.2 -131309.93 140010.2 -130833.74 140105.43 -130452.79 140200.67 -130262.31 140295.91 -130167.08 140486.39 -130071.84 M 142010.2 -132071.84 142010.2 -130738.5 M 142010.2 -130928.98 142105.43 -130833.74 142295.91 -130738.5 142581.63 -130738.5 142772.1 -130833.74 142867.34 -131024.22 142867.34 -132071.84 M 142867.34 -131024.22 142962.58 -130833.74 143153.05 -130738.5 143438.77 -130738.5 143629.24 -130833.74 143724.48 -131024.22 143724.48 -132071.84 M 144676.86 -132071.84 144676.86 -130738.5 M 144676.86 -130928.98 144772.1 -130833.74 144962.58 -130738.5 145248.29 -130738.5 145438.77 -130833.74 145534.01 -131024.22 145534.01 -132071.84 M 145534.01 -131024.22 145629.24 -130833.74 145819.72 -130738.5 146105.43 -130738.5 146295.91 -130833.74 146391.15 -131024.22 146391.15 -132071.84 M 150295.91 -129976.6 148581.63 -132548.03 M 152867.34 -130071.84 153057.82 -130071.84 153248.29 -130167.08 153343.53 -130262.31 153438.77 -130452.79 153534.01 -130833.74 153534.01 -131309.93 153438.77 -131690.88 153343.53 -131881.36 153248.29 -131976.6 153057.82 -132071.84 152867.34 -132071.84 152676.86 -131976.6 152581.63 -131881.36 152486.39 -131690.88 152391.15 -131309.93 152391.15 -130833.74 152486.39 -130452.79 152581.63 -130262.31 152676.86 -130167.08 152867.34 -130071.84 M 154391.15 -131881.36 154486.39 -131976.6 154391.15 -132071.84 154295.91 -131976.6 154391.15 -131881.36 154391.15 -132071.84 M 155724.48 -130071.84 155914.96 -130071.84 156105.44 -130167.08 156200.67 -130262.31 156295.91 -130452.79 156391.15 -130833.74 156391.15 -131309.93 156295.91 -131690.88 156200.67 -131881.36 156105.44 -131976.6 155914.96 -132071.84 155724.48 -132071.84 155534.01 -131976.6 155438.77 -131881.36 155343.53 -131690.88 155248.29 -131309.93 155248.29 -130833.74 155343.53 -130452.79 155438.77 -130262.31 155534.01 -130167.08 155724.48 -130071.84 M 158295.91 -132071.84 157153.06 -132071.84 M 157724.48 -132071.84 157724.48 -130071.84 157534.01 -130357.55 157343.53 -130548.03 157153.06 -130643.27 M 160200.67 -132071.84 159057.82 -132071.84 M 159629.25 -132071.84 159629.25 -130071.84 159438.77 -130357.55 159248.29 -130548.03 159057.82 -130643.27 M 161343.53 -130928.98 161153.06 -130833.74 161057.82 -130738.5 160962.58 -130548.03 160962.58 -130452.79 161057.82 -130262.31 161153.06 -130167.08 161343.53 -130071.84 161724.48 -130071.84 161914.96 -130167.08 162010.2 -130262.31 162105.44 -130452.79 162105.44 -130548.03 162010.2 -130738.5 161914.96 -130833.74 161724.48 -130928.98 161343.53 -130928.98 161153.06 -131024.22 161057.82 -131119.46 160962.58 -131309.93 160962.58 -131690.88 161057.82 -131881.36 161153.06 -131976.6 161343.53 -132071.84 161724.48 -132071.84 161914.96 -131976.6 162010.2 -131881.36 162105.44 -131690.88 162105.44 -131309.93 162010.2 -131119.46 161914.96 -131024.22 161724.48 -130928.98 M 162867.34 -130071.84 162867.34 -130452.79 M 163629.25 -130071.84 163629.25 -130452.79 M 166581.63 -132833.74 166486.39 -132738.5 166295.91 -132452.79 166200.68 -132262.31 166105.44 -131976.6 166010.2 -131500.41 166010.2 -131119.46 166105.44 -130643.27 166200.68 -130357.55 166295.91 -130167.08 166486.39 -129881.36 166581.63 -129786.12 M 168391.15 -132071.84 167248.29 -132071.84 M 167819.72 -132071.84 167819.72 -130071.84 167629.25 -130357.55 167438.77 -130548.03 167248.29 -130643.27 M 169534.01 -130928.98 169343.53 -130833.74 169248.3 -130738.5 169153.06 -130548.03 169153.06 -130452.79 169248.3 -130262.31 169343.53 -130167.08 169534.01 -130071.84 169914.96 -130071.84 170105.44 -130167.08 170200.68 -130262.31 170295.91 -130452.79 170295.91 -130548.03 170200.68 -130738.5 170105.44 -130833.74 169914.96 -130928.98 169534.01 -130928.98 169343.53 -131024.22 169248.3 -131119.46 169153.06 -131309.93 169153.06 -131690.88 169248.3 -131881.36 169343.53 -131976.6 169534.01 -132071.84 169914.96 -132071.84 170105.44 -131976.6 170200.68 -131881.36 170295.91 -131690.88 170295.91 -131309.93 170200.68 -131119.46 170105.44 -131024.22 169914.96 -130928.98 M 172010.2 -130738.5 172010.2 -132071.84 M 171534.01 -129976.6 171057.82 -131405.17 172295.91 -131405.17 M 174581.63 -132071.84 174581.63 -130071.84 M 175438.77 -132071.84 175438.77 -131024.22 175343.53 -130833.74 175153.06 -130738.5 174867.34 -130738.5 174676.87 -130833.74 174581.63 -130928.98 M 176676.87 -132071.84 176486.39 -131976.6 176391.15 -131881.36 176295.92 -131690.88 176295.92 -131119.46 176391.15 -130928.98 176486.39 -130833.74 176676.87 -130738.5 176962.58 -130738.5 177153.06 -130833.74 177248.3 -130928.98 177343.53 -131119.46 177343.53 -131690.88 177248.3 -131881.36 177153.06 -131976.6 176962.58 -132071.84 176676.87 -132071.84 M 178486.39 -132071.84 178295.92 -131976.6 178200.68 -131786.12 178200.68 -130071.84 M 180010.2 -131976.6 179819.73 -132071.84 179438.77 -132071.84 179248.3 -131976.6 179153.06 -131786.12 179153.06 -131024.22 179248.3 -130833.74 179438.77 -130738.5 179819.73 -130738.5 180010.2 -130833.74 180105.44 -131024.22 180105.44 -131214.69 179153.06 -131405.17 M 180867.34 -131976.6 181057.82 -132071.84 181438.77 -132071.84 181629.25 -131976.6 181724.49 -131786.12 181724.49 -131690.88 181629.25 -131500.41 181438.77 -131405.17 181153.06 -131405.17 180962.58 -131309.93 180867.34 -131119.46 180867.34 -131024.22 180962.58 -130833.74 181153.06 -130738.5 181438.77 -130738.5 181629.25 -130833.74 M 182391.15 -132833.74 182486.39 -132738.5 182676.87 -132452.79 182772.11 -132262.31 182867.34 -131976.6 182962.58 -131500.41 182962.58 -131119.46 182867.34 -130643.27 182772.11 -130357.55 182676.87 -130167.08 182486.39 -129881.36 182391.15 -129786.12" fill="none" stroke-width="200"/><path d="M 130831 -133797 A 150 150 0 0 0 130531 -133797 150 150 0 0 0 130831 -133797" fill="none" stroke-width="100"/><path d="M 133819.72 -132711.84 134010.2 -132711.84 134200.67 -132807.08 134295.91 -132902.31 134391.15 -133092.79 134486.39 -133473.74 134486.39 -133949.93 134391.15 -134330.88 134295.91 -134521.36 134200.67 -134616.6 134010.2 -134711.84 133819.72 -134711.84 133629.24 -134616.6 133534.01 -134521.36 133438.77 -134330.88 133343.53 -133949.93 133343.53 -133473.74 133438.77 -133092.79 133534.01 -132902.31 133629.24 -132807.08 133819.72 -132711.84 M 135343.53 -134521.36 135438.77 -134616.6 135343.53 -134711.84 135248.29 -134616.6 135343.53 -134521.36 135343.53 -134711.84 M 136105.43 -132711.84 137343.53 -132711.84 136676.86 -133473.74 136962.58 -133473.74 137153.05 -133568.98 137248.29 -133664.22 137343.53 -133854.69 137343.53 -134330.88 137248.29 -134521.36 137153.05 -134616.6 136962.58 -134711.84 136391.15 -134711.84 136200.67 -134616.6 136105.43 -134521.36 M 138581.62 -132711.84 138772.1 -132711.84 138962.58 -132807.08 139057.82 -132902.31 139153.05 -133092.79 139248.29 -133473.74 139248.29 -133949.93 139153.05 -134330.88 139057.82 -134521.36 138962.58 -134616.6 138772.1 -134711.84 138581.62 -134711.84 138391.15 -134616.6 138295.91 -134521.36 138200.67 -134330.88 138105.43 -133949.93 138105.43 -133473.74 138200.67 -133092.79 138295.91 -132902.31 138391.15 -132807.08 138581.62 -132711.84 M 140486.39 -132711.84 140676.86 -132711.84 140867.34 -132807.08 140962.58 -132902.31 141057.82 -133092.79 141153.05 -133473.74 141153.05 -133949.93 141057.82 -134330.88 140962.58 -134521.36 140867.34 -134616.6 140676.86 -134711.84 140486.39 -134711.84 140295.91 -134616.6 140200.67 -134521.36 140105.43 -134330.88 140010.2 -133949.93 140010.2 -133473.74 140105.43 -133092.79 140200.67 -132902.31 140295.91 -132807.08 140486.39 -132711.84 M 142010.2 -134711.84 142010.2 -133378.5 M 142010.2 -133568.98 142105.43 -133473.74 142295.91 -133378.5 142581.63 -133378.5 142772.1 -133473.74 142867.34 -133664.22 142867.34 -134711.84 M 142867.34 -133664.22 142962.58 -133473.74 143153.05 -133378.5 143438.77 -133378.5 143629.24 -133473.74 143724.48 -133664.22 143724.48 -134711.84 M 144676.86 -134711.84 144676.86 -133378.5 M 144676.86 -133568.98 144772.1 -133473.74 144962.58 -133378.5 145248.29 -133378.5 145438.77 -133473.74 145534.01 -133664.22 145534.01 -134711.84 M 145534.01 -133664.22 145629.24 -133473.74 145819.72 -133378.5 146105.43 -133378.5 146295.91 -133473.74 146391.15 -133664.22 146391.15 -134711.84 M 150295.91 -132616.6 148581.63 -135188.03 M 152867.34 -132711.84 153057.82 -132711.84 153248.29 -132807.08 153343.53 -132902.31 153438.77 -133092.79 153534.01 -133473.74 153534.01 -133949.93 153438.77 -134330.88 153343.53 -134521.36 153248.29 -134616.6 153057.82 -134711.84 152867.34 -134711.84 152676.86 -134616.6 152581.63 -134521.36 152486.39 -134330.88 152391.15 -133949.93 152391.15 -133473.74 152486.39 -133092.79 152581.63 -132902.31 152676.86 -132807.08 152867.34 -132711.84 M 154391.15 -134521.36 154486.39 -134616.6 154391.15 -134711.84 154295.91 -134616.6 154391.15 -134521.36 154391.15 -134711.84 M 155724.48 -132711.84 155914.96 -132711.84 156105.44 -132807.08 156200.67 -132902.31 156295.91 -133092.79 156391.15 -133473.74 156391.15 -133949.93 156295.91 -134330.88 156200.67 -134521.36 156105.44 -134616.6 155914.96 -134711.84 155724.48 -134711.84 155534.01 -134616.6 155438.77 -134521.36 155343.53 -134330.88 155248.29 -133949.93 155248.29 -133473.74 155343.53 -133092.79 155438.77 -132902.31 155534.01 -132807.08 155724.48 -132711.84 M 158295.91 -134711.84 157153.06 -134711.84 M 157724.48 -134711.84 157724.48 -132711.84 157534.01 -132997.55 157343.53 -133188.03 157153.06 -133283.27 M 160200.67 -134711.84 159057.82 -134711.84 M 159629.25 -134711.84 159629.25 -132711.84 159438.77 -132997.55 159248.29 -133188.03 159057.82 -133283.27 M 161343.53 -133568.98 161153.06 -133473.74 161057.82 -133378.5 160962.58 -133188.03 160962.58 -133092.79 161057.82 -132902.31 161153.06 -132807.08 161343.53 -132711.84 161724.48 -132711.84 161914.96 -132807.08 162010.2 -132902.31 162105.44 -133092.79 162105.44 -133188.03 162010.2 -133378.5 161914.96 -133473.74 161724.48 -133568.98 161343.53 -133568.98 161153.06 -133664.22 161057.82 -133759.46 160962.58 -133949.93 160962.58 -134330.88 161057.82 -134521.36 161153.06 -134616.6 161343.53 -134711.84 161724.48 -134711.84 161914.96 -134616.6 162010.2 -134521.36 162105.44 -134330.88 162105.44 -133949.93 162010.2 -133759.46 161914.96 -133664.22 161724.48 -133568.98 M 162867.34 -132711.84 162867.34 -133092.79 M 163629.25 -132711.84 163629.25 -133092.79 M 166581.63 -135473.74 166486.39 -135378.5 166295.91 -135092.79 166200.68 -134902.31 166105.44 -134616.6 166010.2 -134140.41 166010.2 -133759.46 166105.44 -133283.27 166200.68 -132997.55 166295.91 -132807.08 166486.39 -132521.36 166581.63 -132426.12 M 168391.15 -134711.84 167248.29 -134711.84 M 167819.72 -134711.84 167819.72 -132711.84 167629.25 -132997.55 167438.77 -133188.03 167248.29 -133283.27 M 169153.06 -132902.31 169248.3 -132807.08 169438.77 -132711.84 169914.96 -132711.84 170105.44 -132807.08 170200.68 -132902.31 170295.91 -133092.79 170295.91 -133283.27 170200.68 -133568.98 169057.82 -134711.84 170295.91 -134711.84 M 172676.87 -134711.84 172676.87 -132711.84 M 173534.01 -134711.84 173534.01 -133664.22 173438.77 -133473.74 173248.3 -133378.5 172962.58 -133378.5 172772.11 -133473.74 172676.87 -133568.98 M 174772.11 -134711.84 174581.63 -134616.6 174486.39 -134521.36 174391.15 -134330.88 174391.15 -133759.46 174486.39 -133568.98 174581.63 -133473.74 174772.11 -133378.5 175057.82 -133378.5 175248.3 -133473.74 175343.53 -133568.98 175438.77 -133759.46 175438.77 -134330.88 175343.53 -134521.36 175248.3 -134616.6 175057.82 -134711.84 174772.11 -134711.84 M 176581.63 -134711.84 176391.15 -134616.6 176295.92 -134426.12 176295.92 -132711.84 M 178105.44 -134616.6 177914.96 -134711.84 177534.01 -134711.84 177343.53 -134616.6 177248.3 -134426.12 177248.3 -133664.22 177343.53 -133473.74 177534.01 -133378.5 177914.96 -133378.5 178105.44 -133473.74 178200.68 -133664.22 178200.68 -133854.69 177248.3 -134045.17 M 178962.58 -134616.6 179153.06 -134711.84 179534.01 -134711.84 179724.49 -134616.6 179819.73 -134426.12 179819.73 -134330.88 179724.49 -134140.41 179534.01 -134045.17 179248.3 -134045.17 179057.82 -133949.93 178962.58 -133759.46 178962.58 -133664.22 179057.82 -133473.74 179248.3 -133378.5 179534.01 -133378.5 179724.49 -133473.74 M 180486.39 -135473.74 180581.63 -135378.5 180772.11 -135092.79 180867.34 -134902.31 180962.58 -134616.6 181057.82 -134140.41 181057.82 -133759.46 180962.58 -133283.27 180867.34 -132997.55 180772.11 -132807.08 180581.63 -132521.36 180486.39 -132426.12" fill="none" stroke-width="200"/><path d="M 130581 -136187 130581 -136687 M 130331 -136437 130831 -136437" fill="none" stroke-width="100"/><path d="M 133819.72 -135351.84 134010.2 -135351.84 134200.67 -135447.08 134295.91 -135542.31 134391.15 -135732.79 134486.39 -136113.74 134486.39 -136589.93 134391.15 -136970.88 134295.91 -137161.36 134200.67 -137256.6 134010.2 -137351.84 133819.72 -137351.84 133629.24 -137256.6 133534.01 -137161.36 133438.77 -136970.88 133343.53 -136589.93 133343.53 -136113.74 133438.77 -135732.79 133534.01 -135542.31 133629.24 -135447.08 133819.72 -135351.84 M 135343.53 -137161.36 135438.77 -137256.6 135343.53 -137351.84 135248.29 -137256.6 135343.53 -137161.36 135343.53 -137351.84 M 137248.29 -135351.84 136295.91 -135351.84 136200.67 -136304.22 136295.91 -136208.98 136486.39 -136113.74 136962.58 -136113.74 137153.05 -136208.98 137248.29 -136304.22 137343.53 -136494.69 137343.53 -136970.88 137248.29 -137161.36 137153.05 -137256.6 136962.58 -137351.84 136486.39 -137351.84 136295.91 -137256.6 136200.67 -137161.36 M 138581.62 -135351.84 138772.1 -135351.84 138962.58 -135447.08 139057.82 -135542.31 139153.05 -135732.79 139248.29 -136113.74 139248.29 -136589.93 139153.05 -136970.88 139057.82 -137161.36 138962.58 -137256.6 138772.1 -137351.84 138581.62 -137351.84 138391.15 -137256.6 138295.91 -137161.36 138200.67 -136970.88 138105.43 -136589.93 138105.43 -136113.74 138200.67 -135732.79 138295.91 -135542.31 138391.15 -135447.08 138581.62 -135351.84 M 140486.39 -135351.84 140676.86 -135351.84 140867.34 -135447.08 140962.58 -135542.31 141057.82 -135732.79 141153.05 -136113.74 141153.05 -136589.93 141057.82 -136970.88 140962.58 -137161.36 140867.34 -137256.6 140676.86 -137351.84 140486.39 -137351.84 140295.91 -137256.6 140200.67 -137161.36 140105.43 -136970.88 140010.2 -136589.93 140010.2 -136113.74 140105.43 -135732.79 140200.67 -135542.31 140295.91 -135447.08 140486.39 -135351.84 M 142010.2 -137351.84 142010.2 -136018.5 M 142010.2 -136208.98 142105.43 -136113.74 142295.91 -136018.5 142581.63 -136018.5 142772.1 -136113.74 142867.34 -136304.22 142867.34 -137351.84 M 142867.34 -136304.22 142962.58 -136113.74 143153.05 -136018.5 143438.77 -136018.5 143629.24 -136113.74 143724.48 -136304.22 143724.48 -137351.84 M 144676.86 -137351.84 144676.86 -136018.5 M 144676.86 -136208.98 144772.1 -136113.74 144962.58 -136018.5 145248.29 -136018.5 145438.77 -136113.74 145534.01 -136304.22 145534.01 -137351.84 M 145534.01 -136304.22 145629.24 -136113.74 145819.72 -136018.5 146105.43 -136018.5 146295.91 -136113.74 146391.15 -136304.22 146391.15 -137351.84 M 150295.91 -135256.6 148581.63 -137828.03 M 152867.34 -135351.84 153057.82 -135351.84 153248.29 -135447.08 153343.53 -135542.31 153438.77 -135732.79 153534.01 -136113.74 153534.01 -136589.93 153438.77 -136970.88 153343.53 -137161.36 153248.29 -137256.6 153057.82 -137351.84 152867.34 -137351.84 152676.86 -137256.6 152581.63 -137161.36 152486.39 -136970.88 152391.15 -136589.93 152391.15 -136113.74 152486.39 -135732.79 152581.63 -135542.31 152676.86 -135447.08 152867.34 -135351.84 M 154391.15 -137161.36 154486.39 -137256.6 154391.15 -137351.84 154295.91 -137256.6 154391.15 -137161.36 154391.15 -137351.84 M 155724.48 -135351.84 155914.96 -135351.84 156105.44 -135447.08 156200.67 -135542.31 156295.91 -135732.79 156391.15 -136113.74 156391.15 -136589.93 156295.91 -136970.88 156200.67 -137161.36 156105.44 -137256.6 155914.96 -137351.84 155724.48 -137351.84 155534.01 -137256.6 155438.77 -137161.36 155343.53 -136970.88 155248.29 -136589.93 155248.29 -136113.74 155343.53 -135732.79 155438.77 -135542.31 155534.01 -135447.08 155724.48 -135351.84 M 158295.91 -137351.84 157153.06 -137351.84 M 157724.48 -137351.84 157724.48 -135351.84 157534.01 -135637.55 157343.53 -135828.03 157153.06 -135923.27 M 159248.29 -137351.84 159629.25 -137351.84 159819.72 -137256.6 159914.96 -137161.36 160105.44 -136875.65 160200.67 -136494.69 160200.67 -135732.79 160105.44 -135542.31 160010.2 -135447.08 159819.72 -135351.84 159438.77 -135351.84 159248.29 -135447.08 159153.06 -135542.31 159057.82 -135732.79 159057.82 -136208.98 159153.06 -136399.46 159248.29 -136494.69 159438.77 -136589.93 159819.72 -136589.93 160010.2 -136494.69 160105.44 -136399.46 160200.67 -136208.98 M 160867.34 -135351.84 162200.67 -135351.84 161343.53 -137351.84 M 162867.34 -135351.84 162867.34 -135732.79 M 163629.25 -135351.84 163629.25 -135732.79 M 166581.63 -138113.74 166486.39 -138018.5 166295.91 -137732.79 166200.68 -137542.31 166105.44 -137256.6 166010.2 -136780.41 166010.2 -136399.46 166105.44 -135923.27 166200.68 -135637.55 166295.91 -135447.08 166486.39 -135161.36 166581.63 -135066.12 M 167724.48 -135351.84 167914.96 -135351.84 168105.44 -135447.08 168200.68 -135542.31 168295.91 -135732.79 168391.15 -136113.74 168391.15 -136589.93 168295.91 -136970.88 168200.68 -137161.36 168105.44 -137256.6 167914.96 -137351.84 167724.48 -137351.84 167534.01 -137256.6 167438.77 -137161.36 167343.53 -136970.88 167248.29 -136589.93 167248.29 -136113.74 167343.53 -135732.79 167438.77 -135542.31 167534.01 -135447.08 167724.48 -135351.84 M 170772.11 -137351.84 170772.11 -135351.84 M 171629.25 -137351.84 171629.25 -136304.22 171534.01 -136113.74 171343.53 -136018.5 171057.82 -136018.5 170867.34 -136113.74 170772.11 -136208.98 M 172867.34 -137351.84 172676.87 -137256.6 172581.63 -137161.36 172486.39 -136970.88 172486.39 -136399.46 172581.63 -136208.98 172676.87 -136113.74 172867.34 -136018.5 173153.06 -136018.5 173343.53 -136113.74 173438.77 -136208.98 173534.01 -136399.46 173534.01 -136970.88 173438.77 -137161.36 173343.53 -137256.6 173153.06 -137351.84 172867.34 -137351.84 M 174676.87 -137351.84 174486.39 -137256.6 174391.15 -137066.12 174391.15 -135351.84 M 176200.68 -137256.6 176010.2 -137351.84 175629.25 -137351.84 175438.77 -137256.6 175343.53 -137066.12 175343.53 -136304.22 175438.77 -136113.74 175629.25 -136018.5 176010.2 -136018.5 176200.68 -136113.74 176295.92 -136304.22 176295.92 -136494.69 175343.53 -136685.17 M 177057.82 -137256.6 177248.3 -137351.84 177629.25 -137351.84 177819.73 -137256.6 177914.96 -137066.12 177914.96 -136970.88 177819.73 -136780.41 177629.25 -136685.17 177343.53 -136685.17 177153.06 -136589.93 177057.82 -136399.46 177057.82 -136304.22 177153.06 -136113.74 177343.53 -136018.5 177629.25 -136018.5 177819.73 -136113.74 M 180295.92 -136589.93 181819.73 -136589.93 M 181057.82 -137351.84 181057.82 -135828.03 M 184105.44 -135351.84 185343.54 -135351.84 184676.87 -136113.74 184962.58 -136113.74 185153.06 -136208.98 185248.3 -136304.22 185343.54 -136494.69 185343.54 -136970.88 185248.3 -137161.36 185153.06 -137256.6 184962.58 -137351.84 184391.15 -137351.84 184200.68 -137256.6 184105.44 -137161.36 M 187629.25 -137256.6 187819.73 -137351.84 188200.68 -137351.84 188391.16 -137256.6 188486.39 -137066.12 188486.39 -136970.88 188391.16 -136780.41 188200.68 -136685.17 187914.96 -136685.17 187724.49 -136589.93 187629.25 -136399.46 187629.25 -136304.22 187724.49 -136113.74 187914.96 -136018.5 188200.68 -136018.5 188391.16 -136113.74 M 189629.25 -137351.84 189438.77 -137256.6 189343.54 -137066.12 189343.54 -135351.84 M 190676.87 -137351.84 190486.39 -137256.6 190391.16 -137161.36 190295.92 -136970.88 190295.92 -136399.46 190391.16 -136208.98 190486.39 -136113.74 190676.87 -136018.5 190962.58 -136018.5 191153.06 -136113.74 191248.3 -136208.98 191343.54 -136399.46 191343.54 -136970.88 191248.3 -137161.36 191153.06 -137256.6 190962.58 -137351.84 190676.87 -137351.84 M 191914.97 -136018.5 192676.87 -136018.5 M 192200.68 -135351.84 192200.68 -137066.12 192295.92 -137256.6 192486.39 -137351.84 192676.87 -137351.84 M 193248.3 -137256.6 193438.77 -137351.84 193819.73 -137351.84 194010.2 -137256.6 194105.44 -137066.12 194105.44 -136970.88 194010.2 -136780.41 193819.73 -136685.17 193534.01 -136685.17 193343.54 -136589.93 193248.3 -136399.46 193248.3 -136304.22 193343.54 -136113.74 193534.01 -136018.5 193819.73 -136018.5 194010.2 -136113.74 M 194772.11 -138113.74 194867.35 -138018.5 195057.82 -137732.79 195153.06 -137542.31 195248.3 -137256.6 195343.54 -136780.41 195343.54 -136399.46 195248.3 -135923.27 195153.06 -135637.55 195057.82 -135447.08 194867.35 -135161.36 194772.11 -135066.12" fill="none" stroke-width="200"/></g></svg>