<svg version="1.1" xmlns="http://www.w3.org/2000/svg" xmlns:xlink="http://www.w3.org/1999/xlink" stroke-linecap="round" stroke-linejoin="round" stroke-width="0" fill-rule="evenodd" width="1.4015in" height="1.9134in" viewBox="5320.9 -4868.1 1401.5 1913.4" id="ccIJLzk_mwqVU7gj68wD"><defs><circle cx="0" cy="0" r="5.9" id="ccIJLzk_mwqVU7gj68wD_pad-1"/><circle cx="0" cy="0" r="5.9" id="ccIJLzk_mwqVU7gj68wD_pad-2"/></defs><g transform="translate(0,-7822.800000000001) scale(1,-1)" fill="currentColor" stroke="currentColor"><use xlink:href="#ccIJLzk_mwqVU7gj68wD_pad-1" x="5326.8" y="-4496.1"/><use xlink:href="#ccIJLzk_mwqVU7gj68wD_pad-1" x="5326.8" y="-4551.2"/><use xlink:href="#ccIJLzk_mwqVU7gj68wD_pad-1" x="5417.3" y="-3771.7"/><use xlink:href="#ccIJLzk_mwqVU7gj68wD_pad-1" x="5417.3" y="-3822.8"/><use xlink:href="#ccIJLzk_mwqVU7gj68wD_pad-1" x="5417.3" y="-3874"/><use xlink:href="#ccIJLzk_mwqVU7gj68wD_pad-1" x="5417.3" y="-3996.1"/><use xlink:href="#ccIJLzk_mwqVU7gj68wD_pad-1" x="5417.3" y="-4047.2"/><use xlink:href="#ccIJLzk_mwqVU7gj68wD_pad-1" x="5421.3" y="-4496.1"/><use xlink:href="#ccIJLzk_mwqVU7gj68wD_pad-1" x="5421.3" y="-4551.2"/><use xlink:href="#ccIJLzk_mwqVU7gj68wD_pad-1" x="5435.8" y="-4807.5"/><use xlink:href="#ccIJLzk_mwqVU7gj68wD_pad-1" x="5468.5" y="-4047.2"/><use xlink:href="#ccIJLzk_mwqVU7gj68wD_pad-1" x="5515.7" y="-3207.1"/><use xlink:href="#ccIJLzk_mwqVU7gj68wD_pad-1" x="5515.7" y="-4078.7"/><use xlink:href="#ccIJLzk_mwqVU7gj68wD_pad-1" x="5523.6" y="-3013"/><use xlink:href="#ccIJLzk_mwqVU7gj68wD_pad-1" x="5524" y="-4804.3"/><use xlink:href="#ccIJLzk_mwqVU7gj68wD_pad-1" x="5530.7" y="-3157.1"/><use xlink:href="#ccIJLzk_mwqVU7gj68wD_pad-1" x="5542.1" y="-3257.1"/><use xlink:href="#ccIJLzk_mwqVU7gj68wD_pad-1" x="5559.1" y="-4035.4"/><use xlink:href="#ccIJLzk_mwqVU7gj68wD_pad-1" x="5563" y="-3645.7"/><use xlink:href="#ccIJLzk_mwqVU7gj68wD_pad-1" x="5563" y="-3681.1"/><use xlink:href="#ccIJLzk_mwqVU7gj68wD_pad-1" x="5563" y="-3716.5"/><use xlink:href="#ccIJLzk_mwqVU7gj68wD_pad-1" x="5566.9" y="-3013"/><use xlink:href="#ccIJLzk_mwqVU7gj68wD_pad-1" x="5566.9" y="-4763.8"/><use xlink:href="#ccIJLzk_mwqVU7gj68wD_pad-1" x="5614.6" y="-4804.3"/><use xlink:href="#ccIJLzk_mwqVU7gj68wD_pad-1" x="5615.4" y="-3971.7"/><use xlink:href="#ccIJLzk_mwqVU7gj68wD_pad-1" x="5622" y="-2960.6"/><use xlink:href="#ccIJLzk_mwqVU7gj68wD_pad-1" x="5622" y="-4503.9"/><use xlink:href="#ccIJLzk_mwqVU7gj68wD_pad-1" x="5637.8" y="-4259.8"/><use xlink:href="#ccIJLzk_mwqVU7gj68wD_pad-1" x="5637.8" y="-4318.9"/><use xlink:href="#ccIJLzk_mwqVU7gj68wD_pad-1" x="5669.3" y="-3689"/><use xlink:href="#ccIJLzk_mwqVU7gj68wD_pad-1" x="5669.3" y="-3728.3"/><use xlink:href="#ccIJLzk_mwqVU7gj68wD_pad-1" x="5669.3" y="-3866.1"/><use xlink:href="#ccIJLzk_mwqVU7gj68wD_pad-1" x="5669.3" y="-3905.5"/><use xlink:href="#ccIJLzk_mwqVU7gj68wD_pad-1" x="5673.2" y="-2960.6"/><use xlink:href="#ccIJLzk_mwqVU7gj68wD_pad-1" x="5673.2" y="-3007.9"/><use xlink:href="#ccIJLzk_mwqVU7gj68wD_pad-1" x="5677.2" y="-4220.5"/><use xlink:href="#ccIJLzk_mwqVU7gj68wD_pad-1" x="5681.9" y="-4071.3"/><use xlink:href="#ccIJLzk_mwqVU7gj68wD_pad-1" x="5716.5" y="-2960.6"/><use xlink:href="#ccIJLzk_mwqVU7gj68wD_pad-1" x="5716.5" y="-3007.9"/><use xlink:href="#ccIJLzk_mwqVU7gj68wD_pad-1" x="5716.5" y="-3866.1"/><use xlink:href="#ccIJLzk_mwqVU7gj68wD_pad-1" x="5716.5" y="-3905.5"/><use xlink:href="#ccIJLzk_mwqVU7gj68wD_pad-1" x="5732.3" y="-4862.2"/><use xlink:href="#ccIJLzk_mwqVU7gj68wD_pad-1" x="5739.4" y="-3510.2"/><use xlink:href="#ccIJLzk_mwqVU7gj68wD_pad-1" x="5739.4" y="-3578"/><use xlink:href="#ccIJLzk_mwqVU7gj68wD_pad-1" x="5755.9" y="-3866.1"/><use xlink:href="#ccIJLzk_mwqVU7gj68wD_pad-1" x="5755.9" y="-3905.5"/><use xlink:href="#ccIJLzk_mwqVU7gj68wD_pad-1" x="5759.8" y="-4318.9"/><use xlink:href="#ccIJLzk_mwqVU7gj68wD_pad-1" x="5759.8" y="-4374"/><use xlink:href="#ccIJLzk_mwqVU7gj68wD_pad-1" x="5759.8" y="-4433.1"/><use xlink:href="#ccIJLzk_mwqVU7gj68wD_pad-1" x="5759.8" y="-4503.9"/><use xlink:href="#ccIJLzk_mwqVU7gj68wD_pad-1" x="5763.8" y="-3602.4"/><use xlink:href="#ccIJLzk_mwqVU7gj68wD_pad-1" x="5763.8" y="-3645.7"/><use xlink:href="#ccIJLzk_mwqVU7gj68wD_pad-1" x="5765.1" y="-4042.5"/><use xlink:href="#ccIJLzk_mwqVU7gj68wD_pad-1" x="5803.1" y="-3602.4"/><use xlink:href="#ccIJLzk_mwqVU7gj68wD_pad-1" x="5820.1" y="-3337.4"/><use xlink:href="#ccIJLzk_mwqVU7gj68wD_pad-1" x="5830.7" y="-4523.6"/><use xlink:href="#ccIJLzk_mwqVU7gj68wD_pad-1" x="5831.8" y="-3425.1"/><use xlink:href="#ccIJLzk_mwqVU7gj68wD_pad-1" x="5839" y="-4594.9"/><use xlink:href="#ccIJLzk_mwqVU7gj68wD_pad-1" x="5839.8" y="-4644.5"/><use xlink:href="#ccIJLzk_mwqVU7gj68wD_pad-1" x="5842.5" y="-3893.7"/><use xlink:href="#ccIJLzk_mwqVU7gj68wD_pad-1" x="5843.7" y="-3602.8"/><use xlink:href="#ccIJLzk_mwqVU7gj68wD_pad-1" x="5854.3" y="-4818.9"/><use xlink:href="#ccIJLzk_mwqVU7gj68wD_pad-1" x="5878.3" y="-3609.4"/><use xlink:href="#ccIJLzk_mwqVU7gj68wD_pad-1" x="5881.1" y="-3448"/><use xlink:href="#ccIJLzk_mwqVU7gj68wD_pad-1" x="5881.9" y="-4228.3"/><use xlink:href="#ccIJLzk_mwqVU7gj68wD_pad-1" x="5901.6" y="-4818.9"/><use xlink:href="#ccIJLzk_mwqVU7gj68wD_pad-1" x="5901.6" y="-4862.2"/><use xlink:href="#ccIJLzk_mwqVU7gj68wD_pad-1" x="5905.1" y="-4069.7"/><use xlink:href="#ccIJLzk_mwqVU7gj68wD_pad-1" x="5935.4" y="-3459.1"/><use xlink:href="#ccIJLzk_mwqVU7gj68wD_pad-1" x="5952.4" y="-4418.9"/><use xlink:href="#ccIJLzk_mwqVU7gj68wD_pad-1" x="5964.6" y="-3870.1"/><use xlink:href="#ccIJLzk_mwqVU7gj68wD_pad-1" x="5964.6" y="-4574.8"/><use xlink:href="#ccIJLzk_mwqVU7gj68wD_pad-1" x="5964.6" y="-4622"/><use xlink:href="#ccIJLzk_mwqVU7gj68wD_pad-1" x="5968.5" y="-4795.3"/><use xlink:href="#ccIJLzk_mwqVU7gj68wD_pad-1" x="5968.9" y="-4468.1"/><use xlink:href="#ccIJLzk_mwqVU7gj68wD_pad-1" x="5974.8" y="-4201.2"/><use xlink:href="#ccIJLzk_mwqVU7gj68wD_pad-1" x="6003.9" y="-3933.1"/><use xlink:href="#ccIJLzk_mwqVU7gj68wD_pad-1" x="6015.7" y="-4185"/><use xlink:href="#ccIJLzk_mwqVU7gj68wD_pad-1" x="6015.7" y="-4224.4"/><use xlink:href="#ccIJLzk_mwqVU7gj68wD_pad-1" x="6015.7" y="-4263.8"/><use xlink:href="#ccIJLzk_mwqVU7gj68wD_pad-1" x="6015.7" y="-4574.8"/><use xlink:href="#ccIJLzk_mwqVU7gj68wD_pad-1" x="6015.7" y="-4622"/><use xlink:href="#ccIJLzk_mwqVU7gj68wD_pad-1" x="6015.7" y="-4834.6"/><use xlink:href="#ccIJLzk_mwqVU7gj68wD_pad-1" x="6035.4" y="-4035.4"/><use xlink:href="#ccIJLzk_mwqVU7gj68wD_pad-1" x="6055.1" y="-4185"/><use xlink:href="#ccIJLzk_mwqVU7gj68wD_pad-1" x="6055.1" y="-4224.4"/><use xlink:href="#ccIJLzk_mwqVU7gj68wD_pad-1" x="6059.1" y="-3976.4"/><use xlink:href="#ccIJLzk_mwqVU7gj68wD_pad-1" x="6063" y="-4795.3"/><use xlink:href="#ccIJLzk_mwqVU7gj68wD_pad-1" x="6074.8" y="-4035.4"/><use xlink:href="#ccIJLzk_mwqVU7gj68wD_pad-1" x="6074.8" y="-4074.8"/><use xlink:href="#ccIJLzk_mwqVU7gj68wD_pad-1" x="6081.1" y="-4467.3"/><use xlink:href="#ccIJLzk_mwqVU7gj68wD_pad-1" x="6086.6" y="-3870.1"/><use xlink:href="#ccIJLzk_mwqVU7gj68wD_pad-1" x="6118.1" y="-3937"/><use xlink:href="#ccIJLzk_mwqVU7gj68wD_pad-1" x="6133.9" y="-3598.4"/><use xlink:href="#ccIJLzk_mwqVU7gj68wD_pad-1" x="6133.9" y="-3649.6"/><use xlink:href="#ccIJLzk_mwqVU7gj68wD_pad-1" x="6139.8" y="-3436.5"/><use xlink:href="#ccIJLzk_mwqVU7gj68wD_pad-1" x="6142.1" y="-4019.7"/><use xlink:href="#ccIJLzk_mwqVU7gj68wD_pad-1" x="6149.6" y="-3346.5"/><use xlink:href="#ccIJLzk_mwqVU7gj68wD_pad-1" x="6161.4" y="-3626"/><use xlink:href="#ccIJLzk_mwqVU7gj68wD_pad-1" x="6163.3" y="-4722.1"/><use xlink:href="#ccIJLzk_mwqVU7gj68wD_pad-1" x="6163.8" y="-3570.9"/><use xlink:href="#ccIJLzk_mwqVU7gj68wD_pad-1" x="6173.2" y="-3315"/><use xlink:href="#ccIJLzk_mwqVU7gj68wD_pad-1" x="6173.2" y="-4626"/><use xlink:href="#ccIJLzk_mwqVU7gj68wD_pad-1" x="6173.2" y="-4689"/><use xlink:href="#ccIJLzk_mwqVU7gj68wD_pad-1" x="6189" y="-3598.4"/><use xlink:href="#ccIJLzk_mwqVU7gj68wD_pad-1" x="6189" y="-3649.6"/><use xlink:href="#ccIJLzk_mwqVU7gj68wD_pad-1" x="6189" y="-3763.8"/><use xlink:href="#ccIJLzk_mwqVU7gj68wD_pad-1" x="6192.9" y="-3346.5"/><use xlink:href="#ccIJLzk_mwqVU7gj68wD_pad-1" x="6192.9" y="-4657.5"/><use xlink:href="#ccIJLzk_mwqVU7gj68wD_pad-1" x="6200.8" y="-2960.6"/><use xlink:href="#ccIJLzk_mwqVU7gj68wD_pad-1" x="6200.8" y="-3007.9"/><use xlink:href="#ccIJLzk_mwqVU7gj68wD_pad-1" x="6208.7" y="-4157.5"/><use xlink:href="#ccIJLzk_mwqVU7gj68wD_pad-1" x="6232.3" y="-3704.7"/><use xlink:href="#ccIJLzk_mwqVU7gj68wD_pad-1" x="6232.3" y="-3763.8"/><use xlink:href="#ccIJLzk_mwqVU7gj68wD_pad-1" x="6232.3" y="-3818.9"/><use xlink:href="#ccIJLzk_mwqVU7gj68wD_pad-1" x="6252" y="-2960.6"/><use xlink:href="#ccIJLzk_mwqVU7gj68wD_pad-1" x="6252" y="-3007.9"/><use xlink:href="#ccIJLzk_mwqVU7gj68wD_pad-1" x="6267.7" y="-4031.5"/><use xlink:href="#ccIJLzk_mwqVU7gj68wD_pad-1" x="6267.7" y="-4074.8"/><use xlink:href="#ccIJLzk_mwqVU7gj68wD_pad-1" x="6267.7" y="-4118.1"/><use xlink:href="#ccIJLzk_mwqVU7gj68wD_pad-1" x="6267.7" y="-4161.4"/><use xlink:href="#ccIJLzk_mwqVU7gj68wD_pad-1" x="6311" y="-2960.6"/><use xlink:href="#ccIJLzk_mwqVU7gj68wD_pad-1" x="6315" y="-4728.3"/><use xlink:href="#ccIJLzk_mwqVU7gj68wD_pad-1" x="6315" y="-4763.8"/><use xlink:href="#ccIJLzk_mwqVU7gj68wD_pad-1" x="6322.8" y="-3944.9"/><use xlink:href="#ccIJLzk_mwqVU7gj68wD_pad-1" x="6322.8" y="-4074.8"/><use xlink:href="#ccIJLzk_mwqVU7gj68wD_pad-1" x="6322.8" y="-4118.1"/><use xlink:href="#ccIJLzk_mwqVU7gj68wD_pad-1" x="6322.8" y="-4161.4"/><use xlink:href="#ccIJLzk_mwqVU7gj68wD_pad-1" x="6324" y="-3883.1"/><use xlink:href="#ccIJLzk_mwqVU7gj68wD_pad-1" x="6350.4" y="-4728.3"/><use xlink:href="#ccIJLzk_mwqVU7gj68wD_pad-1" x="6350.4" y="-4763.8"/><use xlink:href="#ccIJLzk_mwqVU7gj68wD_pad-1" x="6366.1" y="-3346.5"/><use xlink:href="#ccIJLzk_mwqVU7gj68wD_pad-1" x="6366.1" y="-3385.8"/><use xlink:href="#ccIJLzk_mwqVU7gj68wD_pad-1" x="6366.1" y="-3425.2"/><use xlink:href="#ccIJLzk_mwqVU7gj68wD_pad-1" x="6370.1" y="-3637.8"/><use xlink:href="#ccIJLzk_mwqVU7gj68wD_pad-1" x="6378" y="-3488.2"/><use xlink:href="#ccIJLzk_mwqVU7gj68wD_pad-1" x="6378" y="-3531.5"/><use xlink:href="#ccIJLzk_mwqVU7gj68wD_pad-1" x="6378" y="-3598.4"/><use xlink:href="#ccIJLzk_mwqVU7gj68wD_pad-1" x="6381.9" y="-2960.6"/><use xlink:href="#ccIJLzk_mwqVU7gj68wD_pad-1" x="6385.8" y="-4728.3"/><use xlink:href="#ccIJLzk_mwqVU7gj68wD_pad-1" x="6385.8" y="-4763.8"/><use xlink:href="#ccIJLzk_mwqVU7gj68wD_pad-1" x="6393.7" y="-3220.5"/><use xlink:href="#ccIJLzk_mwqVU7gj68wD_pad-1" x="6393.7" y="-4275.6"/><use xlink:href="#ccIJLzk_mwqVU7gj68wD_pad-1" x="6393.7" y="-4460.6"/><use xlink:href="#ccIJLzk_mwqVU7gj68wD_pad-1" x="6393.7" y="-4503.9"/><use xlink:href="#ccIJLzk_mwqVU7gj68wD_pad-1" x="6393.7" y="-4547.2"/><use xlink:href="#ccIJLzk_mwqVU7gj68wD_pad-1" x="6393.7" y="-4590.6"/><use xlink:href="#ccIJLzk_mwqVU7gj68wD_pad-1" x="6405.5" y="-3346.5"/><use xlink:href="#ccIJLzk_mwqVU7gj68wD_pad-1" x="6405.5" y="-3385.8"/><use xlink:href="#ccIJLzk_mwqVU7gj68wD_pad-1" x="6405.5" y="-3425.2"/><use xlink:href="#ccIJLzk_mwqVU7gj68wD_pad-1" x="6413.4" y="-3598.4"/><use xlink:href="#ccIJLzk_mwqVU7gj68wD_pad-1" x="6420.9" y="-3527.6"/><use xlink:href="#ccIJLzk_mwqVU7gj68wD_pad-1" x="6421.3" y="-2960.6"/><use xlink:href="#ccIJLzk_mwqVU7gj68wD_pad-1" x="6421.3" y="-3003.9"/><use xlink:href="#ccIJLzk_mwqVU7gj68wD_pad-1" x="6433.1" y="-4275.6"/><use xlink:href="#ccIJLzk_mwqVU7gj68wD_pad-1" x="6433.1" y="-4315"/><use xlink:href="#ccIJLzk_mwqVU7gj68wD_pad-1" x="6433.1" y="-4472.4"/><use xlink:href="#ccIJLzk_mwqVU7gj68wD_pad-1" x="6433.1" y="-4519.7"/><use xlink:href="#ccIJLzk_mwqVU7gj68wD_pad-1" x="6433.1" y="-4566.9"/><use xlink:href="#ccIJLzk_mwqVU7gj68wD_pad-1" x="6437" y="-3126"/><use xlink:href="#ccIJLzk_mwqVU7gj68wD_pad-1" x="6437" y="-3220.5"/><use xlink:href="#ccIJLzk_mwqVU7gj68wD_pad-1" x="6437" y="-3295.3"/><use xlink:href="#ccIJLzk_mwqVU7gj68wD_pad-1" x="6444.9" y="-4397.6"/><use xlink:href="#ccIJLzk_mwqVU7gj68wD_pad-1" x="6472.4" y="-2960.6"/><use xlink:href="#ccIJLzk_mwqVU7gj68wD_pad-1" x="6472.4" y="-3003.9"/><use xlink:href="#ccIJLzk_mwqVU7gj68wD_pad-1" x="6472.4" y="-3866.1"/><use xlink:href="#ccIJLzk_mwqVU7gj68wD_pad-1" x="6472.4" y="-3905.5"/><use xlink:href="#ccIJLzk_mwqVU7gj68wD_pad-1" x="6472.4" y="-4275.6"/><use xlink:href="#ccIJLzk_mwqVU7gj68wD_pad-1" x="6472.4" y="-4315"/><use xlink:href="#ccIJLzk_mwqVU7gj68wD_pad-1" x="6476.4" y="-4472.4"/><use xlink:href="#ccIJLzk_mwqVU7gj68wD_pad-1" x="6476.4" y="-4566.9"/><use xlink:href="#ccIJLzk_mwqVU7gj68wD_pad-1" x="6492.1" y="-3350.4"/><use xlink:href="#ccIJLzk_mwqVU7gj68wD_pad-1" x="6511.8" y="-3712.6"/><use xlink:href="#ccIJLzk_mwqVU7gj68wD_pad-1" x="6511.8" y="-3752"/><use xlink:href="#ccIJLzk_mwqVU7gj68wD_pad-1" x="6511.8" y="-3866.1"/><use xlink:href="#ccIJLzk_mwqVU7gj68wD_pad-1" x="6511.8" y="-3905.5"/><use xlink:href="#ccIJLzk_mwqVU7gj68wD_pad-1" x="6557.1" y="-3349.2"/><use xlink:href="#ccIJLzk_mwqVU7gj68wD_pad-1" x="6618.1" y="-2960.6"/><use xlink:href="#ccIJLzk_mwqVU7gj68wD_pad-1" x="6618.1" y="-3003.9"/><use xlink:href="#ccIJLzk_mwqVU7gj68wD_pad-1" x="6651.6" y="-4666.5"/><use xlink:href="#ccIJLzk_mwqVU7gj68wD_pad-1" x="6665.4" y="-2960.6"/><use xlink:href="#ccIJLzk_mwqVU7gj68wD_pad-1" x="6665.4" y="-3003.9"/><use xlink:href="#ccIJLzk_mwqVU7gj68wD_pad-1" x="6716.5" y="-2960.6"/><use xlink:href="#ccIJLzk_mwqVU7gj68wD_pad-1" x="6716.5" y="-3003.9"/><use xlink:href="#ccIJLzk_mwqVU7gj68wD_pad-2" x="5931.3" y="-3266"/><use xlink:href="#ccIJLzk_mwqVU7gj68wD_pad-2" x="5931.3" y="-3326.1"/><use xlink:href="#ccIJLzk_mwqVU7gj68wD_pad-2" x="5961.3" y="-3236"/><use xlink:href="#ccIJLzk_mwqVU7gj68wD_pad-2" x="5961.3" y="-3296.1"/><use xlink:href="#ccIJLzk_mwqVU7gj68wD_pad-2" x="5961.3" y="-3356.1"/><use xlink:href="#ccIJLzk_mwqVU7gj68wD_pad-2" x="5991.3" y="-3266"/><use xlink:href="#ccIJLzk_mwqVU7gj68wD_pad-2" x="5991.3" y="-3326.1"/><use xlink:href="#ccIJLzk_mwqVU7gj68wD_pad-2" x="6021.4" y="-3236"/><use xlink:href="#ccIJLzk_mwqVU7gj68wD_pad-2" x="6021.4" y="-3296.1"/><use xlink:href="#ccIJLzk_mwqVU7gj68wD_pad-2" x="6021.4" y="-3356.1"/><use xlink:href="#ccIJLzk_mwqVU7gj68wD_pad-2" x="6051.4" y="-3266"/><use xlink:href="#ccIJLzk_mwqVU7gj68wD_pad-2" x="6051.4" y="-3326.1"/><path d="M 5672 -4752 5699.6 -4752 M 5774.4 -4836.6 5817.7 -4836.6 M 5892.5 -4752 5920.1 -4752" fill="none" stroke-width="19.7"/></g></svg>