<svg version="1.1" xmlns="http://www.w3.org/2000/svg" xmlns:xlink="http://www.w3.org/1999/xlink" stroke-linecap="round" stroke-linejoin="round" stroke-width="0" fill-rule="evenodd" width="41.5050630001mm" height="57.0060060005mm" viewBox="130439.9999999 -125128.9710004 41505.0630001 57006.0060005" id="t06pqJygQrIhjmgB9z1w"><defs><g id="t06pqJygQrIhjmgB9z1w_pad-16"><polygon points="550,-1500 550,1500 -550,1500 -550,-1500"/><circle cx="550" cy="-1500" r="250"/><circle cx="550" cy="1500" r="250"/><circle cx="-550" cy="1500" r="250"/><circle cx="-550" cy="-1500" r="250"/><polygon points="800,-1500 800,1500 300,1500 300,-1500"/><polygon points="550,1250 -550,1250 -550,1750 550,1750"/><polygon points="-300,1500 -300,-1500 -800,-1500 -800,1500"/><polygon points="-550,-1750 550,-1750 550,-1250 -550,-1250"/></g><g id="t06pqJygQrIhjmgB9z1w_pad-17"><polygon points="200,275 -200,275 -200,-275 200,-275"/><circle cx="200" cy="275" r="200"/><circle cx="-200" cy="275" r="200"/><circle cx="-200" cy="-275" r="200"/><circle cx="200" cy="-275" r="200"/><polygon points="200,75 -200,75 -200,475 200,475"/><polygon points="0,275 0,-275 -400,-275 -400,275"/><polygon points="-200,-475 200,-475 200,-75 -200,-75"/><polygon points="400,-275 400,275 0,275 0,-275"/></g><g id="t06pqJygQrIhjmgB9z1w_pad-18"><polygon points="550,-1250 550,1250 -550,1250 -550,-1250"/><circle cx="550" cy="-1250" r="250"/><circle cx="550" cy="1250" r="250"/><circle cx="-550" cy="1250" r="250"/><circle cx="-550" cy="-1250" r="250"/><polygon points="800,-1250 800,1250 300,1250 300,-1250"/><polygon points="550,1000 -550,1000 -550,1500 550,1500"/><polygon points="-300,1250 -300,-1250 -800,-1250 -800,1250"/><polygon points="-550,-1500 550,-1500 550,-1000 -550,-1000"/></g><g id="t06pqJygQrIhjmgB9z1w_pad-19"><polygon points="-375,625 -375,-625 375,-625 375,625"/><circle cx="-375" cy="625" r="375"/><circle cx="-375" cy="-625" r="375"/><circle cx="375" cy="-625" r="375"/><circle cx="375" cy="625" r="375"/><polygon points="0,625 0,-625 -750,-625 -750,625"/><polygon points="-375,-1000 375,-1000 375,-250 -375,-250"/><polygon points="750,-625 750,625 0,625 0,-625"/><polygon points="375,250 -375,250 -375,1000 375,1000"/></g><g id="t06pqJygQrIhjmgB9z1w_pad-20"><polygon points="-1400,500 -1400,-500 1400,-500 1400,500"/><circle cx="-1400" cy="500" r="500"/><circle cx="-1400" cy="-500" r="500"/><circle cx="1400" cy="-500" r="500"/><circle cx="1400" cy="500" r="500"/><polygon points="-900,500 -900,-500 -1900,-500 -1900,500"/><polygon points="-1400,-1000 1400,-1000 1400,0 -1400,0"/><polygon points="1900,-500 1900,500 900,500 900,-500"/><polygon points="1400,0 -1400,0 -1400,1000 1400,1000"/></g><g id="t06pqJygQrIhjmgB9z1w_pad-21"><polygon points="225,250 -225,250 -225,-250 225,-250"/><circle cx="225" cy="250" r="225"/><circle cx="-225" cy="250" r="225"/><circle cx="-225" cy="-250" r="225"/><circle cx="225" cy="-250" r="225"/><polygon points="225,25 -225,25 -225,475 225,475"/><polygon points="0,250 0,-250 -450,-250 -450,250"/><polygon points="-225,-475 225,-475 225,-25 -225,-25"/><polygon points="450,-250 450,250 0,250 0,-250"/></g><g id="t06pqJygQrIhjmgB9z1w_pad-22"><polygon points="-200,-275 200,-275 200,275 -200,275"/><circle cx="-200" cy="-275" r="200"/><circle cx="200" cy="-275" r="200"/><circle cx="200" cy="275" r="200"/><circle cx="-200" cy="275" r="200"/><polygon points="-200,-475 200,-475 200,-75 -200,-75"/><polygon points="400,-275 400,275 0,275 0,-275"/><polygon points="200,75 -200,75 -200,475 200,475"/><polygon points="0,275 0,-275 -400,-275 -400,275"/></g><g id="t06pqJygQrIhjmgB9z1w_pad-23"><polygon points="250,-225 250,225 -250,225 -250,-225"/><circle cx="250" cy="-225" r="225"/><circle cx="250" cy="225" r="225"/><circle cx="-250" cy="225" r="225"/><circle cx="-250" cy="-225" r="225"/><polygon points="475,-225 475,225 25,225 25,-225"/><polygon points="250,0 -250,0 -250,450 250,450"/><polygon points="-25,225 -25,-225 -475,-225 -475,225"/><polygon points="-250,-450 250,-450 250,0 -250,0"/></g><g id="t06pqJygQrIhjmgB9z1w_pad-24"><polygon points="256.25,-218.75 256.25,218.75 -256.25,218.75 -256.25,-218.75"/><circle cx="256.25" cy="-218.75" r="218.75"/><circle cx="256.25" cy="218.75" r="218.75"/><circle cx="-256.25" cy="218.75" r="218.75"/><circle cx="-256.25" cy="-218.75" r="218.75"/><polygon points="475,-218.75 475,218.75 37.5,218.75 37.5,-218.75"/><polygon points="256.25,0 -256.25,0 -256.25,437.5 256.25,437.5"/><polygon points="-37.5,218.75 -37.5,-218.75 -475,-218.75 -475,218.75"/><polygon points="-256.25,-437.5 256.25,-437.5 256.25,0 -256.25,0"/></g><g id="t06pqJygQrIhjmgB9z1w_pad-25"><polygon points="-250,225 -250,-225 250,-225 250,225"/><circle cx="-250" cy="225" r="225"/><circle cx="-250" cy="-225" r="225"/><circle cx="250" cy="-225" r="225"/><circle cx="250" cy="225" r="225"/><polygon points="-25,225 -25,-225 -475,-225 -475,225"/><polygon points="-250,-450 250,-450 250,0 -250,0"/><polygon points="475,-225 475,225 25,225 25,-225"/><polygon points="250,0 -250,0 -250,450 250,450"/></g><g id="t06pqJygQrIhjmgB9z1w_pad-26"><polygon points="-1050,-550 1050,-550 1050,550 -1050,550"/><circle cx="-1050" cy="-550" r="250"/><circle cx="1050" cy="-550" r="250"/><circle cx="1050" cy="550" r="250"/><circle cx="-1050" cy="550" r="250"/><polygon points="-1050,-800 1050,-800 1050,-300 -1050,-300"/><polygon points="1300,-550 1300,550 800,550 800,-550"/><polygon points="1050,300 -1050,300 -1050,800 1050,800"/><polygon points="-800,550 -800,-550 -1300,-550 -1300,550"/></g><g id="t06pqJygQrIhjmgB9z1w_pad-27"><polygon points="-225,-250 225,-250 225,250 -225,250"/><circle cx="-225" cy="-250" r="225"/><circle cx="225" cy="-250" r="225"/><circle cx="225" cy="250" r="225"/><circle cx="-225" cy="250" r="225"/><polygon points="-225,-475 225,-475 225,-25 -225,-25"/><polygon points="450,-250 450,250 0,250 0,-250"/><polygon points="225,25 -225,25 -225,475 225,475"/><polygon points="0,250 0,-250 -450,-250 -450,250"/></g><g id="t06pqJygQrIhjmgB9z1w_pad-28"><polygon points="587.5,150 -587.5,150 -587.5,-150 587.5,-150"/><circle cx="587.5" cy="150" r="150"/><circle cx="-587.5" cy="150" r="150"/><circle cx="-587.5" cy="-150" r="150"/><circle cx="587.5" cy="-150" r="150"/><polygon points="587.5,0 -587.5,0 -587.5,300 587.5,300"/><polygon points="-437.5,150 -437.5,-150 -737.5,-150 -737.5,150"/><polygon points="-587.5,-300 587.5,-300 587.5,0 -587.5,0"/><polygon points="737.5,-150 737.5,150 437.5,150 437.5,-150"/></g><g id="t06pqJygQrIhjmgB9z1w_pad-29"><polygon points="-587.5,-150 587.5,-150 587.5,150 -587.5,150"/><circle cx="-587.5" cy="-150" r="150"/><circle cx="587.5" cy="-150" r="150"/><circle cx="587.5" cy="150" r="150"/><circle cx="-587.5" cy="150" r="150"/><polygon points="-587.5,-300 587.5,-300 587.5,0 -587.5,0"/><polygon points="737.5,-150 737.5,150 437.5,150 437.5,-150"/><polygon points="587.5,0 -587.5,0 -587.5,300 587.5,300"/><polygon points="-437.5,150 -437.5,-150 -737.5,-150 -737.5,150"/></g><rect x="-1000" y="-2250" width="2000" height="4500" id="t06pqJygQrIhjmgB9z1w_pad-30"/><rect x="-750" y="-450" width="1500" height="900" id="t06pqJygQrIhjmgB9z1w_pad-31"/><g id="t06pqJygQrIhjmgB9z1w_pad-32"><polygon points="800,200 -800,200 -800,-200 800,-200"/><circle cx="800" cy="200" r="200"/><circle cx="-800" cy="200" r="200"/><circle cx="-800" cy="-200" r="200"/><circle cx="800" cy="-200" r="200"/><polygon points="800,0 -800,0 -800,400 800,400"/><polygon points="-600,200 -600,-200 -1000,-200 -1000,200"/><polygon points="-800,-400 800,-400 800,0 -800,0"/><polygon points="1000,-200 1000,200 600,200 600,-200"/></g><g id="t06pqJygQrIhjmgB9z1w_pad-33"><polygon points="-825,-150 825,-150 825,150 -825,150"/><circle cx="-825" cy="-150" r="150"/><circle cx="825" cy="-150" r="150"/><circle cx="825" cy="150" r="150"/><circle cx="-825" cy="150" r="150"/><polygon points="-825,-300 825,-300 825,0 -825,0"/><polygon points="975,-150 975,150 675,150 675,-150"/><polygon points="825,0 -825,0 -825,300 825,300"/><polygon points="-675,150 -675,-150 -975,-150 -975,150"/></g><rect x="-225" y="-750" width="450" height="1500" id="t06pqJygQrIhjmgB9z1w_pad-34"/><rect x="-900" y="-550" width="1800" height="1100" rx="550" ry="550" id="t06pqJygQrIhjmgB9z1w_pad-35"/><rect x="-1100" y="-550" width="2200" height="1100" rx="550" ry="550" id="t06pqJygQrIhjmgB9z1w_pad-36"/><g id="t06pqJygQrIhjmgB9z1w_pad-37"><polygon points="-112.5,-737.5 112.5,-737.5 112.5,737.5 -112.5,737.5"/><circle cx="-112.5" cy="-737.5" r="112.5"/><circle cx="112.5" cy="-737.5" r="112.5"/><circle cx="112.5" cy="737.5" r="112.5"/><circle cx="-112.5" cy="737.5" r="112.5"/><polygon points="-112.5,-850 112.5,-850 112.5,-625 -112.5,-625"/><polygon points="225,-737.5 225,737.5 0,737.5 0,-737.5"/><polygon points="112.5,625 -112.5,625 -112.5,850 112.5,850"/><polygon points="0,737.5 0,-737.5 -225,-737.5 -225,737.5"/></g><g id="t06pqJygQrIhjmgB9z1w_pad-38"><polygon points="650,-1000 650,1000 -650,1000 -650,-1000"/><circle cx="650" cy="-1000" r="250"/><circle cx="650" cy="1000" r="250"/><circle cx="-650" cy="1000" r="250"/><circle cx="-650" cy="-1000" r="250"/><polygon points="900,-1000 900,1000 400,1000 400,-1000"/><polygon points="650,750 -650,750 -650,1250 650,1250"/><polygon points="-400,1000 -400,-1000 -900,-1000 -900,1000"/><polygon points="-650,-1250 650,-1250 650,-750 -650,-750"/></g><g id="t06pqJygQrIhjmgB9z1w_pad-39"><polygon points="-275,200 -275,-200 275,-200 275,200"/><circle cx="-275" cy="200" r="200"/><circle cx="-275" cy="-200" r="200"/><circle cx="275" cy="-200" r="200"/><circle cx="275" cy="200" r="200"/><polygon points="-75,200 -75,-200 -475,-200 -475,200"/><polygon points="-275,-400 275,-400 275,0 -275,0"/><polygon points="475,-200 475,200 75,200 75,-200"/><polygon points="275,0 -275,0 -275,400 275,400"/></g><g id="t06pqJygQrIhjmgB9z1w_pad-40"><polygon points="275,-200 275,200 -275,200 -275,-200"/><circle cx="275" cy="-200" r="200"/><circle cx="275" cy="200" r="200"/><circle cx="-275" cy="200" r="200"/><circle cx="-275" cy="-200" r="200"/><polygon points="475,-200 475,200 75,200 75,-200"/><polygon points="275,0 -275,0 -275,400 275,400"/><polygon points="-75,200 -75,-200 -475,-200 -475,200"/><polygon points="-275,-400 275,-400 275,0 -275,0"/></g><g id="t06pqJygQrIhjmgB9z1w_pad-41"><polygon points="243.75,456.25 -243.75,456.25 -243.75,-456.25 243.75,-456.25"/><circle cx="243.75" cy="456.25" r="243.75"/><circle cx="-243.75" cy="456.25" r="243.75"/><circle cx="-243.75" cy="-456.25" r="243.75"/><circle cx="243.75" cy="-456.25" r="243.75"/><polygon points="243.75,212.5 -243.75,212.5 -243.75,700 243.75,700"/><polygon points="0,456.25 0,-456.25 -487.5,-456.25 -487.5,456.25"/><polygon points="-243.75,-700 243.75,-700 243.75,-212.5 -243.75,-212.5"/><polygon points="487.5,-456.25 487.5,456.25 0,456.25 0,-456.25"/></g><circle cx="0" cy="0" r="500" id="t06pqJygQrIhjmgB9z1w_pad-42"/><mask id="t06pqJygQrIhjmgB9z1w_clear-1" fill="#000" stroke="#000"><g><rect x="131567.794" y="-124050" width="38452.206" height="55260" fill="#fff"/><path d="M 171445.063 -84126.159 A 2001.0630009 2001.0630009 0 0 0 169427.022 -86127.091 M 130940 -70623.716 A 1999.8000001 1999.8000001 0 0 0 132939.696 -68623.9 M 169946.758 -71123.28 A 1000 1000 0 0 0 167946.758 -71123.28 1000 1000 0 0 0 169946.758 -71123.28 M 135190.532 -105378.095 A 2000.732 2000.732 0 0 0 133189.818 -107378.832 M 132939.794 -107378.808 133189.818 -107378.808 M 133189.818 -107378.803 133189.818 -107378.808 M 169332.297 -86126.708 169183.625 -86126.107 M 132939.858 -124628.965 A 1999.8650004 1999.8650004 0 0 0 130940.043 -122623.453 M 130940 -70623.716 A 1999.8000001 1999.8000001 0 0 0 132939.696 -68623.9 M 130940 -122623.453 130940 -109378.602 M 134442.321 -122129.655 A 1000 1000 0 0 0 132442.321 -122129.655 1000 1000 0 0 0 134442.321 -122129.655 M 132940.258 -86125.153 A 2000.2530004 2000.2530004 0 0 0 130940.053 -84120 M 169194.638 -107377.809 A 2000.1090004 2000.1090004 0 0 0 167194.506 -105385.404 M 169194.638 -107377.809 169444.138 -107377.809 M 171445.063 -70623.189 171445.063 -84126.159 M 130940 -109378.602 A 1999.8 1999.8 0 0 0 132939.793 -107378.8 M 169443.768 -124628.962 169443.768 -124628.965 132939.848 -124628.965 M 134442.321 -122129.655 A 1000 1000 0 0 0 132442.321 -122129.655 1000 1000 0 0 0 134442.321 -122129.655 M 171445.063 -70623.189 171445.063 -84126.149 M 169194.638 -107377.809 169444.138 -107377.809 M 169426.801 -86127.09 169194.782 -86126.152 M 132939.848 -124628.965 A 1999.8650007 1999.8650007 0 0 0 130940.043 -122623.453 M 130940 -109378.602 A 1999.8 1999.8 0 0 0 132939.794 -107378.8 M 133189.818 -107378.803 133189.818 -107378.808 M 130940 -122623.453 130940 -109378.602 M 171444.071 -122628.659 A 2000.2710004 2000.2710004 0 0 0 169443.768 -124628.971 M 169444.783 -68622.965 A 2000.2350001 2000.2350001 0 0 0 171445.035 -70623.189 M 169444.783 -68622.965 A 2000.2350001 2000.2350001 0 0 0 171445.035 -70623.189 M 167192.532 -88127.321 A 2000.8680257 2000.8680257 0 0 0 169194.782 -86126.132 M 135190.532 -105378.089 135190.532 -88125.399 M 134442.321 -71123.28 A 1000 1000 0 0 0 132442.321 -71123.28 1000 1000 0 0 0 134442.321 -71123.28 M 132939.793 -107378.808 133189.818 -107378.808 M 171445.063 -84126.149 A 2001.0630006 2001.0630006 0 0 0 169426.801 -86127.089 M 133190.288 -86125.153 132940.248 -86125.153 M 169444.138 -107377.809 A 1999.9910004 1999.9910004 0 0 0 171444.044 -109391.5 M 133190.288 -86125.153 132940.258 -86125.153 M 134442.321 -71123.28 A 1000 1000 0 0 0 132442.321 -71123.28 1000 1000 0 0 0 134442.321 -71123.28 M 171444.071 -109391.353 171444.071 -122628.659 M 130940 -84120 130940 -70623.716 M 135190.532 -105378.095 135190.532 -88125.399 M 169194.638 -107377.809 A 2000.1090004 2000.1090004 0 0 0 167194.506 -105385.404 M 132939.696 -68623.965 169444.783 -68622.965 M 167192.532 -88127.391 167194.533 -105385.404 M 133190.288 -86125.153 A 2000.247 2000.247 0 0 0 135190.547 -88125.399 M 132940.248 -86125.153 A 2000.2530007 2000.2530007 0 0 0 130940.053 -84120 M 169443.768 -124628.965 132939.858 -124628.965 M 171444.071 -109391.5 171444.071 -122628.659 M 135190.532 -105378.089 A 2000.732 2000.732 0 0 0 133189.818 -107378.832 M 133190.288 -86125.153 A 2000.247 2000.247 0 0 0 135190.547 -88125.399 M 167192.532 -88127.391 A 2001.0680091 2001.0680091 0 0 0 169183.625 -86126.157 M 169444.138 -107377.809 A 1999.9910004 1999.9910004 0 0 0 171444.045 -109391.353 M 130940 -84120 130940 -70623.716 M 169946.758 -71123.28 A 1000 1000 0 0 0 167946.758 -71123.28 1000 1000 0 0 0 169946.758 -71123.28 M 167192.532 -88127.321 167194.533 -105385.404 M 132939.696 -68623.965 169444.783 -68622.965 M 171444.071 -122628.659 A 2000.2710004 2000.2710004 0 0 0 169443.768 -124628.971" fill="none" stroke-width="1000"/><path d="M 136238.241 -80493.217 136207.844 -80393.812 136170.387 -80298.318 136125.87 -80206.737 136116.12 -80188.89 136060.173 -80096.253 136000.471 -80007.051 135938.023 -79918.649 135878.033 -79836.558 135810.816 -79746.81 135744.255 -79658.33 135683.125 -79576.043 135625.094 -79495.7 135606.14 -79467.885 135554.685 -79381.21 135514.794 -79291.542 135491.137 -79195.312 135486.461 -79128.876 135498.468 -79029.705 135538.951 -78935.08 135588.066 -78873.398 135671.071 -78810.589 135767.677 -78776.769 135839.637 -78770.327 135938.734 -78782.968 136036.175 -78825.593 136101.953 -78877.306 136164.979 -78954.979 136213.854 -79049.719 136238.241 -79115.198 136273.582 -79017.177 136322.274 -78930.257 136365.736 -78878.771 136448.477 -78816.196 136539.53 -78779.595 136629.518 -78768.862 136734.504 -78783.288 136826.714 -78826.564 136881.088 -78871.444 136943.897 -78953.578 136977.717 -79046.841 136984.159 -79115.198 136974.162 -79217.306 136947.188 -79314.564 136923.586 -79372.63 136874.757 -79464.393 136819.894 -79549.481 136760.368 -79632.448 136700.788 -79709.889 136690.09 -79723.363 136622.699 -79809.867 136561.271 -79891.385 136495.429 -79982.627 136438.173 -80066.69 136382.227 -80155.692 136361.828 -80190.844 136314.916 -80282.292 136275.541 -80376.507 136243.704 -80473.488 136238.241 -80493.217"/><use xlink:href="#t06pqJygQrIhjmgB9z1w_pad-16" x="166550" y="-82640"/><use xlink:href="#t06pqJygQrIhjmgB9z1w_pad-16" x="166550" y="-77240"/><use xlink:href="#t06pqJygQrIhjmgB9z1w_pad-17" x="157255" y="-96590"/><use xlink:href="#t06pqJygQrIhjmgB9z1w_pad-17" x="155605" y="-96590"/><use xlink:href="#t06pqJygQrIhjmgB9z1w_pad-18" x="157760" y="-107860"/><use xlink:href="#t06pqJygQrIhjmgB9z1w_pad-18" x="157760" y="-103460"/><use xlink:href="#t06pqJygQrIhjmgB9z1w_pad-19" x="162360" y="-111640"/><use xlink:href="#t06pqJygQrIhjmgB9z1w_pad-19" x="160060" y="-111640"/><use xlink:href="#t06pqJygQrIhjmgB9z1w_pad-20" x="160060" y="-117940"/><use xlink:href="#t06pqJygQrIhjmgB9z1w_pad-19" x="157760" y="-111640"/><use xlink:href="#t06pqJygQrIhjmgB9z1w_pad-21" x="145765" y="-108210"/><use xlink:href="#t06pqJygQrIhjmgB9z1w_pad-21" x="144215" y="-108210"/><use xlink:href="#t06pqJygQrIhjmgB9z1w_pad-22" x="146432.5" y="-101840"/><use xlink:href="#t06pqJygQrIhjmgB9z1w_pad-22" x="148082.5" y="-101840"/><use xlink:href="#t06pqJygQrIhjmgB9z1w_pad-23" x="136430" y="-117140"/><use xlink:href="#t06pqJygQrIhjmgB9z1w_pad-23" x="136430" y="-115590"/><use xlink:href="#t06pqJygQrIhjmgB9z1w_pad-24" x="152800" y="-121747.5"/><use xlink:href="#t06pqJygQrIhjmgB9z1w_pad-24" x="152800" y="-120172.5"/><use xlink:href="#t06pqJygQrIhjmgB9z1w_pad-25" x="141187.5" y="-103585"/><use xlink:href="#t06pqJygQrIhjmgB9z1w_pad-25" x="141187.5" y="-105135"/><use xlink:href="#t06pqJygQrIhjmgB9z1w_pad-26" x="161820" y="-96740"/><use xlink:href="#t06pqJygQrIhjmgB9z1w_pad-26" x="165420" y="-96740"/><use xlink:href="#t06pqJygQrIhjmgB9z1w_pad-27" x="154195" y="-114530"/><use xlink:href="#t06pqJygQrIhjmgB9z1w_pad-27" x="155745" y="-114530"/><use xlink:href="#t06pqJygQrIhjmgB9z1w_pad-28" x="146245" y="-105222.5"/><use xlink:href="#t06pqJygQrIhjmgB9z1w_pad-28" x="146245" y="-103322.5"/><use xlink:href="#t06pqJygQrIhjmgB9z1w_pad-28" x="144370" y="-104272.5"/><use xlink:href="#t06pqJygQrIhjmgB9z1w_pad-29" x="148270" y="-103320"/><use xlink:href="#t06pqJygQrIhjmgB9z1w_pad-29" x="148270" y="-105220"/><use xlink:href="#t06pqJygQrIhjmgB9z1w_pad-29" x="150145" y="-104270"/><use xlink:href="#t06pqJygQrIhjmgB9z1w_pad-21" x="162365" y="-109650"/><use xlink:href="#t06pqJygQrIhjmgB9z1w_pad-21" x="160815" y="-109650"/><use xlink:href="#t06pqJygQrIhjmgB9z1w_pad-21" x="150220" y="-108220"/><use xlink:href="#t06pqJygQrIhjmgB9z1w_pad-21" x="148670" y="-108220"/><use xlink:href="#t06pqJygQrIhjmgB9z1w_pad-23" x="160870" y="-92805"/><use xlink:href="#t06pqJygQrIhjmgB9z1w_pad-23" x="160870" y="-91255"/><use xlink:href="#t06pqJygQrIhjmgB9z1w_pad-17" x="148082.5" y="-106710"/><use xlink:href="#t06pqJygQrIhjmgB9z1w_pad-17" x="146432.5" y="-106710"/><use xlink:href="#t06pqJygQrIhjmgB9z1w_pad-30" x="139790" y="-109900"/><use xlink:href="#t06pqJygQrIhjmgB9z1w_pad-30" x="139790" y="-118400"/><use xlink:href="#t06pqJygQrIhjmgB9z1w_pad-31" x="149050" y="-96600"/><use xlink:href="#t06pqJygQrIhjmgB9z1w_pad-31" x="149050" y="-99900"/><use xlink:href="#t06pqJygQrIhjmgB9z1w_pad-31" x="153950" y="-99900"/><use xlink:href="#t06pqJygQrIhjmgB9z1w_pad-31" x="153950" y="-96600"/><use xlink:href="#t06pqJygQrIhjmgB9z1w_pad-32" x="159000" y="-92660"/><use xlink:href="#t06pqJygQrIhjmgB9z1w_pad-32" x="159000" y="-91390"/><use xlink:href="#t06pqJygQrIhjmgB9z1w_pad-32" x="159000" y="-90120"/><use xlink:href="#t06pqJygQrIhjmgB9z1w_pad-32" x="159000" y="-88850"/><use xlink:href="#t06pqJygQrIhjmgB9z1w_pad-32" x="159000" y="-87580"/><use xlink:href="#t06pqJygQrIhjmgB9z1w_pad-32" x="159000" y="-86310"/><use xlink:href="#t06pqJygQrIhjmgB9z1w_pad-32" x="159000" y="-85040"/><use xlink:href="#t06pqJygQrIhjmgB9z1w_pad-32" x="159000" y="-83770"/><use xlink:href="#t06pqJygQrIhjmgB9z1w_pad-32" x="144000" y="-83770"/><use xlink:href="#t06pqJygQrIhjmgB9z1w_pad-32" x="144000" y="-85040"/><use xlink:href="#t06pqJygQrIhjmgB9z1w_pad-32" x="144000" y="-86310"/><use xlink:href="#t06pqJygQrIhjmgB9z1w_pad-32" x="144000" y="-87580"/><use xlink:href="#t06pqJygQrIhjmgB9z1w_pad-32" x="144000" y="-88850"/><use xlink:href="#t06pqJygQrIhjmgB9z1w_pad-32" x="144000" y="-90120"/><use xlink:href="#t06pqJygQrIhjmgB9z1w_pad-32" x="144000" y="-91390"/><use xlink:href="#t06pqJygQrIhjmgB9z1w_pad-32" x="144000" y="-92660"/><use xlink:href="#t06pqJygQrIhjmgB9z1w_pad-27" x="145785" y="-96600"/><use xlink:href="#t06pqJygQrIhjmgB9z1w_pad-27" x="147335" y="-96600"/><use xlink:href="#t06pqJygQrIhjmgB9z1w_pad-33" x="144745" y="-109710"/><use xlink:href="#t06pqJygQrIhjmgB9z1w_pad-33" x="144745" y="-110980"/><use xlink:href="#t06pqJygQrIhjmgB9z1w_pad-33" x="144745" y="-112250"/><use xlink:href="#t06pqJygQrIhjmgB9z1w_pad-33" x="144745" y="-113520"/><use xlink:href="#t06pqJygQrIhjmgB9z1w_pad-33" x="144745" y="-114790"/><use xlink:href="#t06pqJygQrIhjmgB9z1w_pad-33" x="144745" y="-116060"/><use xlink:href="#t06pqJygQrIhjmgB9z1w_pad-33" x="144745" y="-117330"/><use xlink:href="#t06pqJygQrIhjmgB9z1w_pad-33" x="144745" y="-118600"/><use xlink:href="#t06pqJygQrIhjmgB9z1w_pad-33" x="149695" y="-118600"/><use xlink:href="#t06pqJygQrIhjmgB9z1w_pad-33" x="149695" y="-117330"/><use xlink:href="#t06pqJygQrIhjmgB9z1w_pad-33" x="149695" y="-116060"/><use xlink:href="#t06pqJygQrIhjmgB9z1w_pad-33" x="149695" y="-114790"/><use xlink:href="#t06pqJygQrIhjmgB9z1w_pad-33" x="149695" y="-113520"/><use xlink:href="#t06pqJygQrIhjmgB9z1w_pad-33" x="149695" y="-112250"/><use xlink:href="#t06pqJygQrIhjmgB9z1w_pad-33" x="149695" y="-110980"/><use xlink:href="#t06pqJygQrIhjmgB9z1w_pad-33" x="149695" y="-109710"/><use xlink:href="#t06pqJygQrIhjmgB9z1w_pad-23" x="153327.5" y="-105045"/><use xlink:href="#t06pqJygQrIhjmgB9z1w_pad-23" x="153327.5" y="-103495"/><use xlink:href="#t06pqJygQrIhjmgB9z1w_pad-34" x="145920" y="-120950"/><use xlink:href="#t06pqJygQrIhjmgB9z1w_pad-34" x="146570" y="-120950"/><use xlink:href="#t06pqJygQrIhjmgB9z1w_pad-34" x="147220" y="-120950"/><use xlink:href="#t06pqJygQrIhjmgB9z1w_pad-34" x="147870" y="-120950"/><use xlink:href="#t06pqJygQrIhjmgB9z1w_pad-34" x="148520" y="-120950"/><use xlink:href="#t06pqJygQrIhjmgB9z1w_pad-35" x="144420" y="-120700"/><use xlink:href="#t06pqJygQrIhjmgB9z1w_pad-36" x="147220" y="-122850"/><use xlink:href="#t06pqJygQrIhjmgB9z1w_pad-35" x="150020" y="-120700"/><use xlink:href="#t06pqJygQrIhjmgB9z1w_pad-37" x="137570" y="-100000"/><use xlink:href="#t06pqJygQrIhjmgB9z1w_pad-37" x="138570" y="-96800"/><use xlink:href="#t06pqJygQrIhjmgB9z1w_pad-37" x="139570" y="-100000"/><use xlink:href="#t06pqJygQrIhjmgB9z1w_pad-37" x="140570" y="-96800"/><use xlink:href="#t06pqJygQrIhjmgB9z1w_pad-28" x="155427.5" y="-113040"/><use xlink:href="#t06pqJygQrIhjmgB9z1w_pad-28" x="155427.5" y="-111140"/><use xlink:href="#t06pqJygQrIhjmgB9z1w_pad-28" x="153552.5" y="-112090"/><use xlink:href="#t06pqJygQrIhjmgB9z1w_pad-17" x="159445" y="-119920"/><use xlink:href="#t06pqJygQrIhjmgB9z1w_pad-17" x="157795" y="-119920"/><use xlink:href="#t06pqJygQrIhjmgB9z1w_pad-38" x="155380" y="-122480"/><use xlink:href="#t06pqJygQrIhjmgB9z1w_pad-38" x="155380" y="-118480"/><use xlink:href="#t06pqJygQrIhjmgB9z1w_pad-39" x="151857.5" y="-103445"/><use xlink:href="#t06pqJygQrIhjmgB9z1w_pad-39" x="151857.5" y="-105095"/><use xlink:href="#t06pqJygQrIhjmgB9z1w_pad-25" x="136430" y="-112620"/><use xlink:href="#t06pqJygQrIhjmgB9z1w_pad-25" x="136430" y="-114170"/><use xlink:href="#t06pqJygQrIhjmgB9z1w_pad-29" x="158132.5" y="-121400"/><use xlink:href="#t06pqJygQrIhjmgB9z1w_pad-29" x="158132.5" y="-123300"/><use xlink:href="#t06pqJygQrIhjmgB9z1w_pad-29" x="160007.5" y="-122350"/><use xlink:href="#t06pqJygQrIhjmgB9z1w_pad-40" x="142647.5" y="-105185"/><use xlink:href="#t06pqJygQrIhjmgB9z1w_pad-40" x="142647.5" y="-103535"/><use xlink:href="#t06pqJygQrIhjmgB9z1w_pad-23" x="141440" y="-123475"/><use xlink:href="#t06pqJygQrIhjmgB9z1w_pad-23" x="141440" y="-121925"/><use xlink:href="#t06pqJygQrIhjmgB9z1w_pad-41" x="139967.5" y="-123230"/><use xlink:href="#t06pqJygQrIhjmgB9z1w_pad-41" x="138092.5" y="-123230"/><use xlink:href="#t06pqJygQrIhjmgB9z1w_pad-42" x="166930" y="-122410"/><use xlink:href="#t06pqJygQrIhjmgB9z1w_pad-42" x="166930" y="-119870"/><use xlink:href="#t06pqJygQrIhjmgB9z1w_pad-42" x="166930" y="-117330"/><use xlink:href="#t06pqJygQrIhjmgB9z1w_pad-42" x="166930" y="-114790"/><use xlink:href="#t06pqJygQrIhjmgB9z1w_pad-42" x="166930" y="-112250"/></g></mask></defs><g transform="translate(0,-193251.9360003) scale(1,-1)" fill="currentColor" stroke="currentColor"><g mask="url(#t06pqJygQrIhjmgB9z1w_clear-1)"><path d="M 131718.367 -79701.18 131955.575 -80332.695 131971.163 -80371.147 131994.97 -80410.608 132025.523 -80441.781 132064.074 -80463.607 132103.213 -80473.892 132139.637 -80476.505 132180.112 -80473.301 132223.321 -80460.757 132258.24 -80439.544 132284.78 -80410.54 132302.852 -80374.619 132312.365 -80332.659 132313.928 -80304.949 132313.928 -79863.748 132324.628 -79824.651 132345.778 -79816.463 132379.114 -79837.368 132382.512 -79845.186 132566.182 -80332.304 132581.692 -80370.912 132605.437 -80410.498 132635.954 -80441.741 132674.49 -80463.598 132713.625 -80473.891 132750.048 -80476.505 132790.524 -80473.299 132833.733 -80460.74 132868.652 -80439.479 132895.192 -80410.376 132913.264 -80374.289 132922.777 -80332.077 132924.34 -80304.167 132924.34 -79701.18 132778.576 -79701.18 132778.576 -80299.478 132758.537 -80333.414 132746.727 -80335.235 132713.037 -80312.909 132711.165 -80308.27 132527.494 -79830.727 132511.96 -79788.048 132492.409 -79751.675 132462.745 -79716.885 132425.271 -79692.378 132387.279 -79680.285 132342.456 -79676.17 132302.303 -79679.382 132259.386 -79691.946 132224.655 -79713.177 132198.224 -79742.178 132180.202 -79778.056 132170.703 -79819.915 132169.141 -79847.531 132169.141 -80298.501 132149.77 -80332.792 132136.315 -80335.235 132102.877 -80312.327 132100.753 -80307.489 131872.923 -79701.18 131718.367 -79701.18"/><path d="M 133087.103 -79863.748 133087.103 -80464 133218.408 -80464 133218.408 -79863.748 133087.103 -79863.748"/><path d="M 133087.103 -79638.459 133087.103 -79788.717 133219.581 -79788.717 133219.581 -79638.459 133087.103 -79638.459"/><path d="M 133316.106 -79862.185 133316.106 -79988.801 133396.803 -79988.801 133396.803 -80254.537 133398.302 -80295.912 133405.03 -80342.989 133417.289 -80381.37 133440.596 -80418.033 133473.019 -80443.218 133514.822 -80458.098 133555.195 -80463.369 133577.739 -80464 133690.481 -80464 133690.481 -80342.855 133602.358 -80342.855 133561.727 -80336.584 133534.115 -80304.352 133529.085 -80261.18 133529.085 -79988.801 133692.63 -79988.801 133692.63 -79862.185 133529.085 -79862.185 133529.085 -79726.191 133396.803 -79726.191 133396.803 -79862.185 133316.106 -79862.185"/><path d="M 133795.212 -79601.138 133795.212 -80464 133926.517 -80464 133926.517 -79988.801 134128.555 -79988.801 134170.604 -79991.121 134214.305 -80000.397 134254.315 -80020.506 134281.466 -80049.948 134296.5 -80088.238 134300.307 -80126.554 134300.307 -80464 134432.784 -80464 134432.784 -80126.554 134430.087 -80082.061 134422.005 -80041.136 134408.552 -80003.954 134382.287 -79960.506 134346.535 -79924.448 134313.515 -79902.505 134275.193 -79885.13 134231.582 -79872.501 134182.698 -79864.793 134128.555 -79862.185 133926.517 -79862.185 133926.517 -79601.138 133795.212 -79601.138"/><path d="M 131714.794 -77476.475 131714.794 -78430 131895.533 -78430 131895.533 -78039.211 131978.82 -78039.211 132038.385 -78039.926 132096.462 -78043.734 132147.214 -78054.783 132193.671 -78085.253 132225.759 -78131.585 132235.031 -78148.876 132381.577 -78430 132583.81 -78430 132425.296 -78124.94 132399.522 -78077.989 132369.6 -78031.958 132334.347 -77991.252 132290.936 -77959.99 132254.326 -77945.91 132300.918 -77917.034 132338.435 -77879.421 132368.872 -77837.512 132393.588 -77795.053 132401.605 -77779.581 132555.722 -77476.475 132360.327 -77476.475 132214.026 -77761.263 132186.662 -77809.021 132148.483 -77848.849 132102.199 -77866.501 132044.572 -77872.689 131993.465 -77873.821 131978.82 -77873.859 131895.533 -77873.859 131895.533 -77476.475 131714.794 -77476.475"/><path d="M 133130.526 -77679.195 133182.015 -77686.879 133244.138 -77707.387 133298.158 -77739.641 133343.373 -77783.66 133371.084 -77824.408 133393.152 -77871.795 133409.281 -77925.827 133419.176 -77986.515 133422.54 -78053.866 133421.037 -78099.547 133413.287 -78162.496 133399.203 -78218.768 133379.082 -78268.374 133353.219 -78311.326 133310.315 -78358.268 133258.43 -78393.432 133198.267 -78416.846 133148.133 -78426.713 133094.033 -78430 132938.695 -78430 132901.92 -78428.536 132850.142 -78420.852 132787.844 -78400.344 132733.835 -78368.09 132688.756 -78324.071 132661.193 -78283.323 132639.284 -78235.937 132623.3 -78181.904 132613.511 -78121.216 132610.188 -78053.866 132775.54 -78053.866 132778.02 -78107.903 132788.353 -78163.512 132811.997 -78213.779 132848.691 -78247.384 132899.267 -78265.696 132952.616 -78270.265 133080.111 -78270.265 133132.956 -78265.696 133183.319 -78247.384 133220.084 -78213.779 133243.927 -78163.512 133254.414 -78107.903 133256.943 -78053.866 133254.414 -77999.765 133243.927 -77943.937 133220.084 -77893.288 133183.319 -77859.282 133132.956 -77840.666 133080.111 -77836.001 132952.616 -77836.001 132899.267 -77840.666 132848.691 -77859.282 132811.997 -77893.288 132788.353 -77943.937 132778.02 -77999.765 132775.54 -78053.866 132610.188 -78053.866 132613.511 -77986.571 132623.3 -77925.918 132639.284 -77871.901 132661.193 -77824.516 132688.756 -77783.757 132733.835 -77739.713 132787.844 -77707.429 132833.826 -77690.927 132884.199 -77681.03 132938.695 -77677.732 133094.033 -77677.732 133130.526 -77679.195"/><path d="M 133583.984 -77351.423 133583.984 -78430 133748.115 -78430 133748.115 -77351.423 133583.984 -77351.423"/><path d="M 134443.017 -77678.048 134506.053 -77685.417 134559.082 -77701.875 134602.525 -77726.524 134643.988 -77767.483 134671.952 -77818.079 134687.239 -77876.558 134690.893 -77927.836 134690.893 -78273.928 134687.137 -78328.782 134670.888 -78377.077 134631.617 -78412.694 134584.136 -78426.491 134530.669 -78430 134184.822 -78430 134122.502 -78425.848 134069.44 -78413.689 134015.683 -78387.899 133975.364 -78351.145 133947.911 -78304.289 133932.754 -78248.19 133929.099 -78197.236 133929.241 -78188.688 134090.3 -78188.688 134098.338 -78230.444 134136.922 -78263.326 134186.043 -78270.265 134496.964 -78270.265 134529.692 -78240.467 134529.692 -78110.041 134188.974 -78110.041 134146.841 -78113.905 134101.75 -78141.156 134090.3 -78188.688 133929.241 -78188.688 133929.31 -78184.548 133936.905 -78126.002 133956.127 -78076.116 133987.962 -78035.578 134033.392 -78005.076 134080.186 -77988.362 134136.814 -77978.863 134186.043 -77976.685 134529.692 -77976.685 134529.692 -77929.302 134529.355 -77919.318 134514.289 -77872.321 134473.227 -77842.954 134424.18 -77836.001 133974.04 -77836.001 133974.04 -77677.732 134425.645 -77677.732 134443.017 -77678.048"/><path d="M 134996.685 -77677.732 134946.722 -77684.181 134905.681 -77712.942 134887.848 -77762.139 134885.31 -77800.341 134885.31 -78430 135049.441 -78430 135049.441 -77849.19 135059.699 -77836.001 135427.285 -77836.001 135427.285 -78430 135592.637 -78430 135592.637 -77836.001 135758.478 -77836.001 135811.391 -77838.792 135866.198 -77850.038 135916.163 -77874.691 135949.901 -77911.242 135968.485 -77959.401 135973.168 -78008.192 135973.168 -78430 136138.764 -78430 136138.764 -78008.192 136135.392 -77952.182 136125.281 -77900.785 136108.442 -77854.197 136075.545 -77799.899 136030.733 -77754.961 135989.321 -77727.68 135941.231 -77706.121 135886.477 -77690.48 135825.067 -77680.951 135757.013 -77677.732 134996.685 -77677.732"/><path d="M 136320.237 -77679.685 136320.237 -78132.267 136325.537 -78194.639 136341.341 -78251.637 136367.506 -78302.356 136403.89 -78345.888 136450.349 -78381.326 136506.739 -78407.762 136555.464 -78421.136 136609.634 -78428.553 136648.743 -78430 136785.764 -78430 136843.531 -78426.766 136895.893 -78417.321 136942.789 -78402.046 136996.71 -78373.275 137040.663 -78335.729 137074.506 -78290.315 137098.094 -78237.941 137111.286 -78179.514 137114.27 -78132.267 137114.27 -77679.685 136953.07 -77679.685 136953.07 -78126.65 136944.688 -78177.522 136919.676 -78219.55 136878.233 -78250.34 136829.784 -78265.974 136780.39 -78270.265 136659.979 -78270.265 136610.31 -78265.974 136561.452 -78250.34 136519.521 -78219.55 136494.126 -78177.522 136485.589 -78126.65 136485.589 -77679.685 136320.237 -77679.685"/><path d="M 137600.802 -77677.732 137546.307 -77681.03 137495.933 -77690.927 137449.952 -77707.429 137395.942 -77739.713 137350.863 -77783.757 137323.3 -77824.516 137301.391 -77871.901 137285.407 -77925.918 137275.618 -77986.571 137272.295 -78053.866 137275.618 -78121.216 137285.407 -78181.904 137301.391 -78235.937 137323.3 -78283.323 137350.863 -78324.071 137395.942 -78368.09 137449.952 -78400.344 137512.25 -78420.852 137564.027 -78428.536 137600.802 -78430 137989.392 -78430 137989.392 -78270.265 137614.724 -78270.265 137561.374 -78265.696 137510.799 -78247.384 137474.104 -78213.779 137450.461 -78163.512 137440.127 -78107.903 137437.648 -78053.866 137440.127 -77999.765 137450.461 -77943.937 137474.104 -77893.288 137510.799 -77859.282 137561.374 -77840.666 137614.724 -77836.001 137989.392 -77836.001 137989.392 -77677.732 137600.802 -77677.732"/><path d="M 139300 -78106.866 139298.836 -78145.875 139292.775 -78199.712 139281.62 -78247.928 139258.99 -78303.454 139227.704 -78348.941 139187.991 -78384.366 139140.081 -78409.701 139084.203 -78424.92 139020.586 -78430 138816.154 -78430 138779.38 -78428.536 138727.602 -78420.852 138665.304 -78400.344 138611.295 -78368.09 138566.216 -78324.071 138538.653 -78283.323 138516.744 -78235.937 138500.76 -78181.904 138490.971 -78121.216 138487.648 -78053.866 138653 -78053.866 138655.53 -78107.903 138666.021 -78163.512 138689.884 -78213.779 138726.693 -78247.384 138777.134 -78265.696 138830.076 -78270.265 138977.11 -78270.265 138987.704 -78270.123 139042.573 -78263.084 139088.962 -78240.447 139118.241 -78200.713 139131.207 -78151.804 139134.403 -78099.783 139134.403 -77836.001 138830.076 -77836.001 138777.134 -77840.666 138726.693 -77859.282 138689.884 -77893.288 138666.021 -77943.937 138655.53 -77999.765 138653 -78053.866 138487.648 -78053.866 138490.971 -77986.571 138500.76 -77925.918 138516.744 -77871.901 138538.653 -77824.516 138566.216 -77783.757 138611.295 -77739.713 138665.304 -77707.429 138711.286 -77690.927 138761.659 -77681.03 138816.154 -77677.732 139134.403 -77677.732 139134.403 -77351.423 139300 -77351.423 139300 -78106.866"/><path d="M 140047.402 -77681.836 140100.57 -77693.901 140154.575 -77719.604 140195.204 -77756.427 140222.955 -77803.636 140238.327 -77860.499 140242.044 -77912.449 140241.83 -77925.287 140234.104 -77984.318 140214.616 -78034.329 140182.449 -78074.748 140136.687 -78105.007 140089.672 -78121.515 140032.9 -78130.863 139983.635 -78133 139640.23 -78133 139640.23 -78177.697 139640.564 -78187.792 139655.561 -78234.727 139696.593 -78263.529 139745.743 -78270.265 140205.652 -78270.265 140205.652 -78430 139745.743 -78430 139728.349 -78429.683 139665.237 -78422.315 139612.152 -78405.866 139568.67 -78381.24 139527.176 -78340.335 139499.196 -78289.833 139483.905 -78231.501 139480.251 -78180.383 139480.251 -78001.353 139640.23 -78001.353 139979.483 -78001.353 140027.469 -77996.041 140068.865 -77969.01 140080.844 -77920.753 140072.269 -77877.611 140032.613 -77843.302 139983.635 -77836.001 139745.743 -77836.001 139738.628 -77836.116 139686.963 -77846.855 139651.05 -77880.288 139640.23 -77930.523 139640.23 -78001.353 139480.251 -78001.353 139480.251 -77929.302 139481.155 -77902.97 139488.552 -77853.119 139508.819 -77797.21 139542.105 -77750.027 139589.237 -77713.292 139637.468 -77692.582 139695.513 -77680.542 139745.743 -77677.732 139985.101 -77677.732 140047.402 -77681.836"/><path d="M 140621.842 -77677.732 140560.668 -77681.748 140508.803 -77693.47 140456.52 -77718.207 140417.533 -77753.253 140391.148 -77797.646 140376.673 -77850.425 140373.203 -77898.039 140377.495 -77949.515 140391.94 -77998.152 140418.891 -78041.542 140460.703 -78077.273 140506.433 -78098.726 140564.385 -78112.502 140616.594 -78117.055 140635.764 -78117.369 140810.886 -78117.369 140860.822 -78122.585 140901.558 -78154.969 140908.094 -78194.549 140897.288 -78242.871 140851.792 -78268.028 140819.19 -78270.265 140381.507 -78270.265 140381.507 -78430 140819.19 -78430 140880.917 -78425.545 140933.179 -78412.639 140985.775 -78385.663 141024.921 -78347.885 141051.358 -78300.641 141065.831 -78245.268 141069.295 -78196.015 141064.891 -78141.881 141050.168 -78092.443 141022.856 -78049.534 140980.685 -78014.989 140934.725 -77994.606 140876.64 -77981.688 140824.42 -77977.463 140805.268 -77977.173 140631.612 -77977.173 140578.482 -77971.944 140538.498 -77939.152 140534.403 -77908.785 140547.257 -77860.891 140590.796 -77838.406 140623.307 -77836.001 141039.741 -77836.001 141039.741 -77677.732 140621.842 -77677.732"/><path d="M 141227.808 -77679.685 141227.808 -78430 141391.939 -78430 141391.939 -77679.685 141227.808 -77679.685"/><path d="M 141227.808 -77398.073 141227.808 -77585.896 141393.405 -77585.896 141393.405 -77398.073 141227.808 -77398.073"/><path d="M 142119.084 -77679.002 142178.86 -77689.154 142230.783 -77709.435 142274.623 -77739.818 142310.15 -77780.277 142337.137 -77830.787 142355.354 -77891.322 142363.124 -77943.287 142365.736 -78000.865 142365.736 -78425.115 142363.654 -78482.111 142357.224 -78532.606 142341.402 -78590.156 142316.692 -78636.958 142282.433 -78673.476 142237.962 -78700.174 142182.619 -78717.516 142133.58 -78724.661 142077.773 -78726.999 141630.321 -78726.999 141630.321 -78568.729 142060.921 -78568.729 142080.114 -78568.265 142134.393 -78558.869 142178.067 -78526.94 142196.459 -78477.186 142200.139 -78425.115 142200.139 -78398.736 141881.891 -78398.736 141845.116 -78397.325 141793.338 -78389.915 141745.863 -78376.152 141689.721 -78347.912 141642.349 -78308.367 141604.389 -78257.51 141582.48 -78211.94 141566.496 -78160.003 141556.707 -78101.694 141553.66 -78042.386 141718.736 -78042.386 141721.256 -78093.539 141731.716 -78146.375 141755.535 -78194.369 141792.321 -78226.638 141842.789 -78244.331 141895.812 -78248.771 142200.139 -78248.771 142200.139 -77999.399 142196.958 -77949.718 142180.832 -77896.394 142143.384 -77856.918 142091.72 -77839.507 142042.847 -77836.001 141895.812 -77836.001 141842.789 -77840.456 141792.321 -77858.191 141755.535 -77890.5 141731.716 -77938.503 141721.256 -77991.303 141718.736 -78042.386 141553.66 -78042.386 141553.384 -78037.013 141553.757 -78014.858 141559.265 -77952.643 141571.149 -77896.791 141589.138 -77847.296 141622.153 -77791.174 141664.899 -77746.316 141716.736 -77712.703 141777.022 -77690.314 141827.395 -77680.876 141881.891 -77677.732 142086.322 -77677.732 142119.084 -77679.002"/><path d="M 142667.864 -77677.732 142617.901 -77684.181 142576.861 -77712.942 142559.027 -77762.139 142556.489 -77800.341 142556.489 -78430 142720.621 -78430 142720.621 -77849.19 142730.879 -77836.001 142973.168 -77836.001 143026.08 -77838.792 143080.887 -77850.038 143130.853 -77874.691 143164.591 -77911.242 143183.174 -77959.401 143187.857 -78008.192 143187.857 -78430 143353.454 -78430 143353.454 -78008.192 143350.117 -77952.238 143340.105 -77900.875 143323.414 -77854.303 143290.764 -77800.004 143246.224 -77755.047 143205.012 -77727.745 143157.104 -77706.163 143102.496 -77690.5 143041.185 -77680.957 142973.168 -77677.732 142667.864 -77677.732"/><path d="M 143529.309 -78224.103 143529.309 -78430 143704.675 -78430 143704.675 -78224.103 143529.309 -78224.103"/><path d="M 132100.753 -78845.381 132128.56 -78817.237 132136.315 -78816.463 132167.803 -78841.624 132169.141 -78854.174 132169.141 -79304.167 132173.473 -79349.642 132186.394 -79389.507 132207.793 -79422.903 132237.558 -79448.972 132275.576 -79466.856 132321.737 -79475.694 132342.456 -79476.505 132387.267 -79472.453 132425.232 -79460.691 132462.672 -79437.23 132492.323 -79404.538 132515.312 -79363.632 132527.494 -79332.304 132711.165 -78845.186 132739.16 -78817.249 132746.727 -78816.463 132777.328 -78841.552 132778.576 -78854.174 132778.576 -79464 132924.34 -79464 132924.34 -78847.531 132920.004 -78802.511 132907.057 -78762.937 132885.587 -78729.702 132855.685 -78703.702 132817.439 -78685.831 132770.939 -78676.982 132750.048 -78676.17 132705.249 -78680.246 132667.458 -78692.068 132630.345 -78715.615 132601.043 -78748.374 132578.306 -78789.285 132566.182 -78820.566 132382.512 -79307.684 132353.8 -79334.526 132345.778 -79335.235 132315.176 -79310.67 132313.928 -79298.501 132313.928 -78847.531 132309.593 -78802.511 132296.645 -78762.937 132275.176 -78729.702 132245.273 -78703.702 132207.027 -78685.831 132160.528 -78676.982 132139.637 -78676.17 132094.837 -78680.246 132057.04 -78692.062 132019.909 -78715.591 131990.567 -78748.31 131967.764 -78789.154 131955.575 -78820.371 131718.367 -79464 131872.923 -79464 132100.753 -78845.381"/><path d="M 133485.928 -78862.439 133536.357 -78868.334 133578.78 -78881.5 133613.534 -78901.219 133646.705 -78933.986 133669.076 -78974.463 133681.305 -79021.246 133684.228 -79062.269 133684.228 -79339.143 133681.223 -79383.026 133668.224 -79421.662 133636.808 -79450.155 133598.823 -79461.193 133556.05 -79464 133279.371 -79464 133229.516 -79460.679 133187.066 -79450.951 133144.061 -79430.319 133111.805 -79400.916 133089.843 -79363.431 133077.718 -79318.552 133074.794 -79277.789 133074.907 -79270.95 133203.754 -79270.95 133210.184 -79304.355 133241.052 -79330.661 133280.348 -79336.212 133529.085 -79336.212 133555.268 -79312.374 133555.268 -79208.033 133282.693 -79208.033 133248.987 -79211.124 133212.914 -79232.925 133203.754 -79270.95 133074.907 -79270.95 133074.962 -79267.638 133081.038 -79220.801 133096.416 -79180.892 133121.884 -79148.462 133158.228 -79124.06 133195.663 -79110.689 133240.966 -79103.09 133280.348 -79101.348 133555.268 -79101.348 133555.268 -79063.441 133554.999 -79055.455 133542.946 -79017.857 133510.095 -78994.363 133470.858 -78988.801 133110.746 -78988.801 133110.746 -78862.185 133472.03 -78862.185 133485.928 -78862.439"/><path d="M 134461.702 -79205.493 134460.772 -79236.7 134455.923 -79279.769 134446.999 -79318.342 134428.894 -79362.763 134403.866 -79399.153 134372.096 -79427.492 134333.768 -79447.76 134289.065 -79459.936 134238.171 -79464 134074.626 -79464 134045.206 -79462.829 134003.784 -79456.681 133953.946 -79440.275 133910.738 -79414.472 133874.675 -79379.256 133852.625 -79346.658 133835.098 -79308.749 133822.31 -79265.523 133814.479 -79216.973 133811.821 -79163.092 133944.103 -79163.092 133946.127 -79206.323 133954.52 -79250.809 133973.61 -79291.023 134003.057 -79317.907 134043.41 -79332.557 134085.764 -79336.212 134203.391 -79336.212 134211.866 -79336.098 134255.761 -79330.467 134292.872 -79312.358 134316.295 -79280.571 134326.668 -79241.443 134329.225 -79199.826 134329.225 -78988.801 134085.764 -78988.801 134043.41 -78992.533 134003.057 -79007.426 133973.61 -79034.63 133954.52 -79075.149 133946.127 -79119.812 133944.103 -79163.092 133811.821 -79163.092 133814.479 -79109.257 133822.31 -79060.734 133835.098 -79017.521 133852.625 -78979.613 133874.675 -78947.006 133910.738 -78911.77 133953.946 -78885.943 133990.731 -78872.742 134031.03 -78864.824 134074.626 -78862.185 134329.225 -78862.185 134329.225 -78601.138 134461.702 -78601.138 134461.702 -79205.493"/><path d="M 135059.624 -78865.469 135102.159 -78875.121 135145.362 -78895.683 135177.866 -78925.141 135200.067 -78962.908 135212.364 -79008.399 135215.338 -79049.959 135215.166 -79060.23 135208.986 -79107.454 135193.395 -79147.463 135167.662 -79179.799 135131.052 -79204.006 135093.44 -79217.212 135048.023 -79224.691 135008.611 -79226.4 134733.886 -79226.4 134733.886 -79262.157 134734.154 -79270.234 134746.152 -79307.782 134778.977 -79330.823 134818.297 -79336.212 135186.224 -79336.212 135186.224 -79464 134818.297 -79464 134804.381 -79463.746 134753.892 -79457.852 134711.424 -79444.693 134676.639 -79424.992 134643.443 -79392.268 134621.06 -79351.867 134608.826 -79305.2 134605.903 -79264.307 134605.903 -79121.083 134733.886 -79121.083 135005.289 -79121.083 135043.678 -79116.833 135076.795 -79095.208 135086.378 -79056.602 135079.518 -79022.089 135047.793 -78994.642 135008.611 -78988.801 134818.297 -78988.801 134812.605 -78988.893 134771.273 -78997.484 134742.543 -79024.23 134733.886 -79064.418 134733.886 -79121.083 134605.903 -79121.083 134605.903 -79063.441 134606.627 -79042.376 134612.544 -79002.495 134628.758 -78957.768 134655.387 -78920.022 134693.092 -78890.633 134731.677 -78874.065 134778.113 -78864.433 134818.297 -78862.185 135009.783 -78862.185 135059.624 -78865.469"/><path d="M 148932.455 -77209.133 148932.455 -77709.133 148899.122 -77809.133 148832.455 -77875.8 148732.455 -77909.133 148665.789 -77909.133 M 149599.122 -77909.133 149265.788 -77909.133 149265.788 -77209.133 M 150232.455 -77842.466 150199.122 -77875.8 150099.122 -77909.133 150032.455 -77909.133 149932.455 -77875.8 149865.789 -77809.133 149832.455 -77742.466 149799.122 -77609.133 149799.122 -77509.133 149832.455 -77375.8 149865.789 -77309.133 149932.455 -77242.466 150032.455 -77209.133 150099.122 -77209.133 150199.122 -77242.466 150232.455 -77275.8 M 150732.455 -77209.133 150732.455 -77709.133 150699.122 -77809.133 150632.455 -77875.8 150532.455 -77909.133 150465.789 -77909.133 M 151399.122 -77909.133 151065.788 -77909.133 151065.788 -77209.133 M 152032.455 -77842.466 151999.122 -77875.8 151899.122 -77909.133 151832.455 -77909.133 151732.455 -77875.8 151665.789 -77809.133 151632.455 -77742.466 151599.122 -77609.133 151599.122 -77509.133 151632.455 -77375.8 151665.789 -77309.133 151732.455 -77242.466 151832.455 -77209.133 151899.122 -77209.133 151999.122 -77242.466 152032.455 -77275.8 M 152532.455 -77209.133 152532.455 -77709.133 152499.122 -77809.133 152432.455 -77875.8 152332.455 -77909.133 152265.789 -77909.133 M 153199.122 -77909.133 152865.788 -77909.133 152865.788 -77209.133 M 153832.455 -77842.466 153799.122 -77875.8 153699.122 -77909.133 153632.455 -77909.133 153532.455 -77875.8 153465.789 -77809.133 153432.455 -77742.466 153399.122 -77609.133 153399.122 -77509.133 153432.455 -77375.8 153465.789 -77309.133 153532.455 -77242.466 153632.455 -77209.133 153699.122 -77209.133 153799.122 -77242.466 153832.455 -77275.8 M 154332.455 -77209.133 154332.455 -77709.133 154299.122 -77809.133 154232.455 -77875.8 154132.455 -77909.133 154065.789 -77909.133 M 154999.122 -77909.133 154665.788 -77909.133 154665.788 -77209.133 M 155632.455 -77842.466 155599.122 -77875.8 155499.122 -77909.133 155432.455 -77909.133 155332.455 -77875.8 155265.789 -77809.133 155232.455 -77742.466 155199.122 -77609.133 155199.122 -77509.133 155232.455 -77375.8 155265.789 -77309.133 155332.455 -77242.466 155432.455 -77209.133 155499.122 -77209.133 155599.122 -77242.466 155632.455 -77275.8" fill="none" stroke-width="100"/><path d="M 131567.794 -73414.713 131567.794 -73686.189 132356.577 -73686.189 132431.594 -73696.726 132498.36 -73737.114 132536.358 -73808.569 132542.323 -73860.579 132529.38 -73938.339 132487.812 -74001.363 132413.511 -74039.088 132356.577 -74045.226 131804.099 -74045.226 131723.043 -74052.906 131650.793 -74082.072 131596.718 -74143.74 131573.485 -74224.044 131569.993 -74281.531 131569.993 -74845 131841.102 -74845 131841.102 -74329.159 131865.282 -74305.711 132228.349 -74305.711 132551.482 -74845 132853.733 -74845 132521.441 -74282.63 132593.512 -74254.617 132668.389 -74204.184 132727.061 -74139.964 132770.273 -74065.537 132798.773 -73984.484 132813.305 -73900.386 132815.631 -73849.954 132808.888 -73765.3 132788.337 -73685.039 132753.498 -73611.294 132703.89 -73546.192 132639.032 -73491.858 132558.443 -73450.417 132487.389 -73429.075 132407.013 -73417.078 132348.15 -73414.713 131567.794 -73414.713"/><path d="M 133749.173 -73717.073 133843.727 -73728.126 133923.271 -73752.813 133988.435 -73789.786 134050.63 -73851.224 134092.577 -73927.119 134115.507 -74014.837 134120.987 -74091.755 134120.987 -74610.893 134115.353 -74693.173 134090.98 -74765.616 134032.073 -74819.041 133960.852 -74839.737 133880.652 -74845 133361.88 -74845 133268.401 -74838.773 133188.807 -74820.533 133108.173 -74781.848 133047.694 -74726.718 133006.514 -74656.433 132983.779 -74572.286 132978.297 -74495.854 132978.509 -74483.032 133220.097 -74483.032 133232.154 -74545.666 133290.03 -74594.989 133363.712 -74605.397 133830.094 -74605.397 133879.187 -74560.701 133879.187 -74365.062 133368.108 -74365.062 133304.909 -74370.858 133237.273 -74411.734 133220.097 -74483.032 132978.509 -74483.032 132978.612 -74476.822 132990.005 -74389.003 133018.839 -74314.174 133066.591 -74253.367 133134.736 -74207.614 133204.927 -74182.543 133289.869 -74168.294 133363.712 -74165.027 133879.187 -74165.027 133879.187 -74093.953 133878.681 -74078.978 133856.082 -74008.482 133794.488 -73964.432 133720.917 -73954.002 133045.708 -73954.002 133045.708 -73716.598 133723.115 -73716.598 133749.173 -73717.073"/><path d="M 134579.675 -73716.598 134504.731 -73726.272 134443.17 -73769.414 134416.42 -73843.209 134412.613 -73900.512 134412.613 -74845 134658.81 -74845 134658.81 -73973.785 134674.197 -73954.002 135037.63 -73954.002 135116.999 -73958.188 135199.21 -73975.057 135274.158 -74012.037 135324.765 -74066.864 135352.64 -74139.102 135359.665 -74212.288 135359.665 -74845 135608.06 -74845 135608.06 -74212.288 135603.055 -74128.357 135588.037 -74051.313 135563 -73981.455 135514.024 -73900.006 135447.215 -73832.57 135385.397 -73791.617 135313.535 -73759.244 135231.623 -73735.751 135139.657 -73721.436 135037.63 -73716.598 134579.675 -73716.598"/><path d="M 136693.281 -73718.503 136782.945 -73733.732 136860.829 -73764.153 136926.589 -73809.727 136979.88 -73870.416 137020.361 -73946.181 137047.686 -74036.983 137059.341 -74114.93 137063.258 -74201.297 137063.258 -74837.672 137060.136 -74923.167 137050.49 -74998.909 137026.758 -75085.234 136989.694 -75155.437 136938.304 -75210.215 136871.598 -75250.262 136788.584 -75276.274 136715.024 -75286.991 136631.315 -75290.498 135960.136 -75290.498 135960.136 -75053.094 136606.036 -75053.094 136634.825 -75052.398 136716.245 -75038.304 136781.756 -74990.411 136809.343 -74915.78 136814.863 -74837.672 136814.863 -74798.105 136337.491 -74798.105 136282.329 -74795.988 136204.662 -74784.873 136133.449 -74764.228 136049.237 -74721.868 135978.179 -74662.55 135921.238 -74586.265 135888.375 -74517.911 135864.399 -74440.004 135849.715 -74352.542 135845.145 -74263.579 136092.759 -74263.579 136096.539 -74340.309 136112.229 -74419.563 136147.957 -74491.554 136203.136 -74539.957 136278.838 -74566.497 136358.374 -74573.157 136814.863 -74573.157 136814.863 -74199.099 136810.092 -74124.578 136785.903 -74044.591 136729.73 -73985.377 136652.234 -73959.261 136578.925 -73954.002 136358.374 -73954.002 136278.838 -73960.684 136203.136 -73987.287 136147.957 -74035.75 136112.229 -74107.755 136096.539 -74186.955 136092.759 -74263.579 135845.145 -74263.579 135844.731 -74255.519 135845.29 -74222.288 135853.552 -74128.964 135871.378 -74045.187 135898.362 -73970.944 135947.884 -73886.761 136012.003 -73819.474 136089.758 -73769.054 136180.187 -73735.471 136255.748 -73721.314 136337.491 -73716.598 136644.138 -73716.598 136693.281 -73718.503"/><path d="M 138177.035 -73722.755 138256.787 -73740.852 138337.794 -73779.407 138398.738 -73834.64 138440.365 -73905.454 138463.422 -73990.749 138468.998 -74068.674 138468.676 -74087.931 138457.087 -74176.478 138427.855 -74251.493 138379.605 -74312.123 138310.962 -74357.511 138240.44 -74382.273 138155.282 -74396.295 138081.385 -74399.501 137566.277 -74399.501 137566.277 -74466.545 137566.778 -74481.689 137589.274 -74552.091 137650.821 -74595.294 137724.546 -74605.397 138414.41 -74605.397 138414.41 -74845 137724.546 -74845 137698.455 -74844.524 137603.788 -74833.473 137524.16 -74808.8 137458.937 -74771.86 137396.695 -74710.503 137354.726 -74634.75 137331.789 -74547.251 137326.308 -74470.575 137326.308 -74202.03 137566.277 -74202.03 138075.157 -74202.03 138147.136 -74194.062 138209.23 -74153.516 138227.198 -74081.13 138214.336 -74016.417 138154.851 -73964.953 138081.385 -73954.002 137724.546 -73954.002 137713.874 -73954.174 137636.376 -73970.283 137582.507 -74020.432 137566.277 -74095.785 137566.277 -74202.03 137326.308 -74202.03 137326.308 -74093.953 137327.665 -74054.456 137338.76 -73979.678 137369.161 -73895.816 137419.09 -73825.041 137489.788 -73769.938 137562.134 -73738.873 137649.202 -73720.813 137724.546 -73716.598 138083.583 -73716.598 138177.035 -73722.755"/><path d="M 139028.07 -73716.598 138950.389 -73721.699 138870.314 -73742.536 138797.77 -73789.025 138749.147 -73859.295 138725.551 -73936.28 138716.974 -74010.08 138715.928 -74051.088 138715.928 -74845 138962.124 -74845 138962.124 -74084.794 138976.145 -74008.377 139033.222 -73961.558 139093.283 -73954.002 139495.551 -73954.002 139495.551 -73716.598 139028.07 -73716.598"/><path d="M 139717.201 -73414.713 139717.201 -73686.189 140547.749 -73686.189 140626.541 -73698.828 140687.636 -73745.652 140710.257 -73821.957 140710.415 -73830.17 140688.242 -73904.414 140620.165 -73946.797 140587.316 -73955.833 139990.875 -74090.655 139906.342 -74114.725 139836.882 -74145.965 139769.47 -74195.66 139721.489 -74257.855 139690.652 -74333.273 139674.669 -74422.634 139671.039 -74504.647 139671.039 -74717.871 139689.644 -74794.32 139750.61 -74838.656 139800.366 -74845 140941.957 -74845 140941.957 -74573.89 139957.903 -74573.89 139942.149 -74556.671 139942.149 -74485.963 139952.118 -74412.939 140006.302 -74358.261 140050.593 -74343.813 140640.806 -74213.021 140722.161 -74189.936 140791.902 -74160.093 140863.107 -74112.933 140916.997 -74054.399 140954.032 -73984.039 140974.673 -73901.398 140979.692 -73826.14 140972.24 -73732.728 140950.229 -73650.572 140914.178 -73580.042 140864.608 -73521.509 140802.038 -73475.34 140726.987 -73441.904 140639.975 -73421.573 140541.521 -73414.713 139717.201 -73414.713"/><path d="M 142170.349 -73415.858 142257.651 -73432.74 142323.585 -73469.038 142375.01 -73534.631 142398.524 -73609.668 142404.483 -73684.724 142404.483 -74845 142130.809 -74845 142130.809 -74549.71 141479.047 -74549.71 141394.31 -74545.392 141307.121 -74528.124 141239.579 -74498.147 141182.703 -74446.115 141150.161 -74377.401 141139.794 -74292.889 141140.77 -74264.094 141143.421 -74249.658 141440.212 -74249.658 141451.687 -74286.265 141523.011 -74305.711 142130.809 -74305.711 142130.809 -73742.609 142130.771 -73738.966 142079.518 -73686.189 141968.51 -73686.189 141907.404 -73694.639 141849.075 -73741.877 141462.561 -74193.237 141440.212 -74249.658 141143.421 -74249.658 141154.535 -74189.127 141186.039 -74120.684 141230.652 -74060.614 141640.247 -73578.478 141697.898 -73516.135 141758.699 -73468.051 141829.689 -73434.917 141903.985 -73418.938 141978.768 -73414.713 142136.304 -73414.713 142170.349 -73415.858"/><path d="M 141929.465 -75246.502 141982.572 -75260.631 142026.604 -75284.37 142069.388 -75327.801 142094.209 -75373.742 142111.027 -75429.805 142118.587 -75478.591 142121.968 -75533.226 142122.191 -75552.749 142120.2 -75609.661 142114.125 -75660.643 142099.397 -75719.52 142076.756 -75768.156 142045.828 -75806.723 142006.243 -75835.393 141957.627 -75854.336 141899.608 -75863.726 141866.957 -75864.891 141803.954 -75860.214 141750.457 -75846.069 141706.124 -75822.284 141670.616 -75788.688 141643.592 -75745.107 141624.71 -75691.372 141613.631 -75627.31 141610.237 -75572.383 141610.013 -75552.749 141612.04 -75496.15 141618.216 -75445.422 141633.154 -75386.802 141656.065 -75338.346 141687.289 -75299.894 141727.166 -75271.289 141776.039 -75252.375 141834.246 -75242.993 141866.957 -75241.828 141929.465 -75246.502"/><path d="M 142426.709 -76170.631 139397.958 -76170.631 139397.958 -75076.475 139522.958 -75076.475 139843.405 -75918.869 139867.815 -75966.03 139905.786 -76005.665 139952.637 -76030.703 140006.956 -76043.215 140049.546 -76045.631 140102.432 -76041.741 140155.733 -76026.665 140199.915 -75999.072 140234.903 -75957.735 140254.221 -75919.113 140591.765 -75076.475 140637.683 -75076.475 140637.683 -75257.459 140730.739 -75257.459 140778.733 -75271.29 140791.556 -75320.474 140791.556 -76030 140972.54 -76030 140972.54 -75824.103 141158.408 -75824.103 141158.408 -76030 141333.775 -76030 141333.775 -75824.103 141158.408 -75824.103 140972.54 -75824.103 140972.54 -75553.97 141431.96 -75553.97 141433.776 -75611.817 141439.191 -75666.258 141448.16 -75717.249 141460.636 -75764.744 141485.824 -75829.334 141518.64 -75885.806 141558.929 -75934.008 141606.532 -75973.786 141661.294 -76004.99 141723.056 -76027.467 141791.663 -76041.065 141841.126 -76045.122 141866.957 -76045.631 141917.845 -76043.598 141988.644 -76032.994 142052.662 -76013.46 142109.74 -75985.148 142159.722 -75948.211 142202.448 -75902.8 142237.76 -75849.068 142265.501 -75787.167 142285.511 -75717.249 142294.479 -75666.258 142299.894 -75611.817 142301.709 -75553.97 142299.878 -75495.906 142294.419 -75441.269 142285.385 -75390.103 142272.831 -75342.452 142247.515 -75277.663 142214.577 -75221.031 142174.196 -75172.704 142126.553 -75132.83 142071.828 -75101.559 142010.2 -75079.038 141941.85 -75065.417 141892.637 -75061.354 141866.957 -75060.844 141816.267 -75062.88 141745.662 -75073.502 141681.729 -75093.072 141624.649 -75121.443 141574.6 -75158.466 141531.76 -75203.992 141496.309 -75257.872 141468.424 -75319.959 141448.286 -75390.103 141439.251 -75441.269 141433.792 -75495.906 141431.999 -75552.749 141431.96 -75553.97 140972.54 -75553.97 140972.54 -75309.239 140969.981 -75251.623 140961.736 -75202.905 140942.127 -75153.951 140902.749 -75111.755 140854.765 -75089.523 140805.246 -75079.675 140744.905 -75076.475 140637.683 -75076.475 140591.765 -75076.475 140391.486 -75076.475 140088.381 -75833.628 140049.546 -75860.739 140010.711 -75833.872 139721.772 -75076.475 139522.958 -75076.475 139397.958 -75076.475 139397.958 -74935.844 142426.709 -74935.844 142426.709 -76170.631"/><path d="M 137058.983 -94967.982 137025.65 -95034.649 137025.65 -95134.649 137058.983 -95234.649 137125.65 -95301.316 137192.317 -95334.649 137325.65 -95367.982 137425.65 -95367.982 137558.983 -95334.649 137625.65 -95301.316 137692.317 -95234.649 137725.65 -95134.649 137725.65 -95067.982 137692.317 -94967.982 137658.983 -94934.649 137425.65 -94934.649 137425.65 -95067.982 M 137725.65 -94634.649 137025.65 -94634.649 137725.65 -94234.649 137025.65 -94234.649 M 137725.65 -93901.316 137025.65 -93901.316 137025.65 -93734.649 137058.983 -93634.649 137125.65 -93567.983 137192.317 -93534.649 137325.65 -93501.316 137425.65 -93501.316 137558.983 -93534.649 137625.65 -93567.983 137692.317 -93634.649 137725.65 -93734.649 137725.65 -93901.316 M 138152.611 -95401.316 138152.611 -94967.982 138419.278 -95201.316 138419.278 -95101.316 138452.611 -95034.649 138485.944 -95001.316 138552.611 -94967.982 138719.278 -94967.982 138785.944 -95001.316 138819.278 -95034.649 138852.611 -95101.316 138852.611 -95301.316 138819.278 -95367.982 138785.944 -95401.316 M 138152.611 -94767.982 138852.611 -94534.649 138152.611 -94301.315 M 138152.611 -94134.649 138152.611 -93701.315 138419.278 -93934.649 138419.278 -93834.649 138452.611 -93767.982 138485.944 -93734.649 138552.611 -93701.315 138719.278 -93701.315 138785.944 -93734.649 138819.278 -93767.982 138852.611 -93834.649 138852.611 -94034.649 138819.278 -94101.315 138785.944 -94134.649 M 139946.239 -95367.982 139979.572 -95267.982 139979.572 -95101.316 139946.239 -95034.649 139912.905 -95001.316 139846.239 -94967.982 139779.572 -94967.982 139712.905 -95001.316 139679.572 -95034.649 139646.239 -95101.316 139612.905 -95234.649 139579.572 -95301.316 139546.239 -95334.649 139479.572 -95367.982 139412.905 -95367.982 139346.239 -95334.649 139312.905 -95301.316 139279.572 -95234.649 139279.572 -95067.982 139312.905 -94967.982 M 139912.905 -94267.982 139946.239 -94301.315 139979.572 -94401.315 139979.572 -94467.982 139946.239 -94567.982 139879.572 -94634.649 139812.905 -94667.982 139679.572 -94701.315 139579.572 -94701.315 139446.239 -94667.982 139379.572 -94634.649 139312.905 -94567.982 139279.572 -94467.982 139279.572 -94401.315 139312.905 -94301.315 139346.239 -94267.982 M 139979.572 -93634.649 139979.572 -93967.982 139279.572 -93967.982 M 141073.2 -95367.982 141106.533 -95267.982 141106.533 -95101.316 141073.2 -95034.649 141039.866 -95001.316 140973.2 -94967.982 140906.533 -94967.982 140839.866 -95001.316 140806.533 -95034.649 140773.2 -95101.316 140739.866 -95234.649 140706.533 -95301.316 140673.2 -95334.649 140606.533 -95367.982 140539.866 -95367.982 140473.2 -95334.649 140439.866 -95301.316 140406.533 -95234.649 140406.533 -95067.982 140439.866 -94967.982 M 141106.533 -94667.982 140406.533 -94667.982 140406.533 -94501.315 140439.866 -94401.315 140506.533 -94334.649 140573.2 -94301.315 140706.533 -94267.982 140806.533 -94267.982 140939.866 -94301.315 141006.533 -94334.649 141073.2 -94401.315 141106.533 -94501.315 141106.533 -94667.982 M 140906.533 -94001.315 140906.533 -93667.982 M 141106.533 -94067.982 140406.533 -93834.649 141106.533 -93601.315" fill="none" stroke-width="150"/><path d="M 163140 -76530 165490 -76530 M 163140 -82285.563 163140 -76530 M 164204.437 -83350 163140 -82285.563 M 164204.437 -83350 165490 -83350 M 164308.75 -83983.75 165096.25 -83983.75 M 164702.5 -84377.5 164702.5 -83590 M 168895.563 -83350 167610 -83350 M 168895.563 -83350 169960 -82285.563 M 169960 -76530 167610 -76530 M 169960 -82285.563 169960 -76530 M 156667.258 -96067.5 156192.742 -96067.5 M 156667.258 -97112.5 156192.742 -97112.5 M 155000 -102900 156700 -102900 M 155000 -107355.563 155000 -102900 M 155762.5 -108972.5 156387.5 -108972.5 M 156064.437 -108420 155000 -107355.563 M 156064.437 -108420 156700 -108420 M 156075 -109285 156075 -108660 M 159455.563 -108420 158820 -108420 M 159455.563 -108420 160520 -107355.563 M 160520 -102900 158820 -102900 M 160520 -107355.563 160520 -102900 M 156650 -112940 156650 -116700 157910 -116700 M 163470 -112940 163470 -116700 162210 -116700 M 163700 -111900 163370 -111660 163700 -111420 163700 -111900" fill="none" stroke-width="120"/><path d="M 163700 -111900 163370 -111660 163700 -111420 163700 -111900"/><path d="M 145130.58 -107700 144849.42 -107700 M 145130.58 -108720 144849.42 -108720 M 147020.242 -101317.5 147494.758 -101317.5 M 147020.242 -102362.5 147494.758 -102362.5 M 135920 -116505.58 135920 -116224.42 M 136940 -116505.58 136940 -116224.42 M 152290 -121122.779 152290 -120797.221 M 153310 -121122.779 153310 -120797.221 M 140677.5 -104219.42 140677.5 -104500.58 M 141697.5 -104219.42 141697.5 -104500.58 M 160620 -95180 161120 -95180 M 160870 -94930 160870 -95430 M 161360 -95544.437 161360 -95680 M 161360 -95544.437 162424.437 -94480 M 161360 -97935.563 161360 -97800 M 161360 -97935.563 162424.437 -99000 M 162424.437 -94480 165880 -94480 M 162424.437 -99000 165880 -99000 M 165880 -94480 165880 -95680 M 165880 -99000 165880 -97800 M 154829.42 -114020 155110.58 -114020 M 154829.42 -115040 155110.58 -115040 M 145307.5 -102712.5 144657.5 -102712.5 M 145307.5 -102712.5 145957.5 -102712.5 M 145307.5 -105832.5 144657.5 -105832.5 M 145307.5 -105832.5 145957.5 -105832.5 M 146710 -106112.5 146230 -106112.5 146470 -105782.5 146710 -106112.5" fill="none" stroke-width="120"/><path d="M 146710 -106112.5 146230 -106112.5 146470 -105782.5 146710 -106112.5"/><path d="M 149207.5 -102710 148557.5 -102710 M 149207.5 -102710 149857.5 -102710 M 149207.5 -105830 148557.5 -105830 M 149207.5 -105830 149857.5 -105830 M 148045 -102760 147805 -102430 148285 -102430 148045 -102760" fill="none" stroke-width="120"/><path d="M 148045 -102760 147805 -102430 148285 -102430 148045 -102760"/><path d="M 161730.58 -109140 161449.42 -109140 M 161730.58 -110160 161449.42 -110160 M 149585.58 -107710 149304.42 -107710 M 149585.58 -108730 149304.42 -108730 M 160360 -92170.58 160360 -91889.42 M 161380 -92170.58 161380 -91889.42 M 147494.758 -106187.5 147020.242 -106187.5 M 147494.758 -107232.5 147020.242 -107232.5 M 137240 -107450 137240 -120050 M 142340 -107450 137240 -107450 M 142340 -120050 142340 -107450 M 147850 -95500 155150 -95500 M 147850 -101000 155150 -101000 155150 -99850 M 144000 -68850 144000 -75850 144000 -82850 M 144000 -75850 159000 -75850 M 144000 -95350 144000 -93550 M 159000 -68850 144000 -68850 M 159000 -68850 159000 -75850 159000 -82850 M 159000 -95350 144000 -95350 M 159000 -95350 159000 -93550 M 146419.42 -96090 146700.58 -96090 M 146419.42 -97110 146700.58 -97110 M 147220 -109095 145270 -109095 M 147220 -109095 149170 -109095 M 147220 -119215 145270 -119215 M 147220 -119215 149170 -119215 M 144520 -109150 144280 -108820 144760 -108820 144520 -109150" fill="none" stroke-width="120"/><path d="M 144520 -109150 144280 -108820 144760 -108820 144520 -109150"/><path d="M 152817.5 -104410.58 152817.5 -104129.42 M 153837.5 -104410.58 153837.5 -104129.42 M 142910 -119990 142910 -123910 145180 -123910 M 145180 -123080 145180 -123910 M 145180 -123080 146010 -123080 M 145220 -119990 142910 -119990 M 145520 -119950 146120 -119950 M 145520 -120700 145520 -119950 M 149220 -119990 151530 -119990 M 149260 -123080 148430 -123080 M 149260 -123080 149260 -123910 M 151530 -119990 151530 -123910 149260 -123910" fill="none" stroke-width="120"/><path d="M 136020 -97000 142070 -97000 142070 -99800 136020 -99800 136020 -97000" fill="none" stroke-width="100"/><path d="M 136320 -97750 141770 -97750 141770 -99050 136320 -99050 136320 -97750 M 137320 -99050 137770 -99050 137770 -97750 137320 -97750 137320 -99050 M 138320 -99050 138770 -99050 138770 -97750 138320 -97750 138320 -99050 M 139320 -99050 139770 -99050 139770 -97750 139320 -97750 139320 -99050 M 140320 -99050 140770 -99050 140770 -97750 140320 -97750 140320 -99050 M 154490 -110530 153840 -110530 M 154490 -110530 155140 -110530 M 154490 -113650 153840 -113650 M 154490 -113650 155140 -113650 M 155892.5 -113930 155412.5 -113930 155652.5 -113600 155892.5 -113930" fill="none" stroke-width="120"/><path d="M 155892.5 -113930 155412.5 -113930 155652.5 -113600 155892.5 -113930"/><path d="M 158857.258 -119397.5 158382.742 -119397.5 M 158857.258 -120442.5 158382.742 -120442.5 M 153730 -123990 153730 -118480 M 153730 -123990 157030 -123990 157030 -118480 M 151335 -104032.742 151335 -104507.258 M 152380 -104032.742 152380 -104507.258 M 135920 -113254.42 135920 -113535.58 M 136940 -113254.42 136940 -113535.58 M 159070 -120790 158420 -120790 M 159070 -120790 159720 -120790 M 159070 -123910 158420 -123910 M 159070 -123910 159720 -123910 M 157907.5 -120840 157667.5 -120510 158147.5 -120510 157907.5 -120840" fill="none" stroke-width="120"/><path d="M 157907.5 -120840 157667.5 -120510 158147.5 -120510 157907.5 -120840"/><path d="M 142125 -104597.258 142125 -104122.742 M 143170 -104597.258 143170 -104122.742 M 140930 -122840.58 140930 -122559.42 M 141950 -122840.58 141950 -122559.42 M 139288.578 -122520 138771.422 -122520 M 139288.578 -123940 138771.422 -123940" fill="none" stroke-width="120"/></g></g></svg>