<svg version="1.1" xmlns="http://www.w3.org/2000/svg" xmlns:xlink="http://www.w3.org/1999/xlink" stroke-linecap="round" stroke-linejoin="round" stroke-width="0" fill-rule="evenodd" width="40.5mm" height="56mm" viewBox="130958 -124630 40500 56000" id="ilabcqCteL06RfmN04rK"><g transform="translate(0,-193260) scale(1,-1)" fill="currentColor" stroke="currentColor"><path d="M 169206 -107380 A 2000 2000 0 0 0 167208 -105381 L 167208 -88130 A 2000 2000 0 0 0 169208 -86130 L 169457 -86132 A 2000 2000 0 0 1 171458 -84130 L 171458 -70630 A 2000 2000 0 0 1 169458 -68631 L 132957 -68631 A 2000 2000 0 0 1 130958 -70630 L 130958 -84130 A 2000 2000 0 0 1 132958 -86130 L 133208 -86130 A 2000 2000 0 0 0 135208 -88130 L 135208 -105380 A 2000 2000 0 0 0 133208 -107380 L 132958 -107380 A 2000 2000 0 0 1 130958 -109380 L 130958.001 -122632 A 2000 2000 0 0 1 132957 -124629 L 169458 -124629 A 2000 2000 0 0 1 171456.999 -122631 L 171457 -109380 A 2000 2000 0 0 1 169458 -107380 L 169206 -107380 M 134460 -122130 A 1000 1000 0 0 0 132460 -122130 1000 1000 0 0 0 134460 -122130 M 134460 -71130 A 1000 1000 0 0 0 132460 -71130 1000 1000 0 0 0 134460 -71130 M 169960 -71130 A 1000 1000 0 0 0 167960 -71130 1000 1000 0 0 0 169960 -71130" fill="none" stroke-width="254"/></g></svg>