<svg version="1.1" xmlns="http://www.w3.org/2000/svg" xmlns:xlink="http://www.w3.org/1999/xlink" stroke-linecap="round" stroke-linejoin="round" stroke-width="0" fill-rule="evenodd" width="27.454mm" height="47.075mm" viewBox="142000 -122910 27454 47075" id="Yzeo_jcQ0EjoaF0zP4zZ"><defs><g id="Yzeo_jcQ0EjoaF0zP4zZ_pad-10"><polygon points="250,-225 250,225 -250,225 -250,-225"/><circle cx="250" cy="-225" r="225"/><circle cx="250" cy="225" r="225"/><circle cx="-250" cy="225" r="225"/><circle cx="-250" cy="-225" r="225"/><polygon points="475,-225 475,225 25,225 25,-225"/><polygon points="250,0 -250,0 -250,450 250,450"/><polygon points="-25,225 -25,-225 -475,-225 -475,225"/><polygon points="-250,-450 250,-450 250,0 -250,0"/></g><rect x="-1000" y="-500" width="2000" height="1000" id="Yzeo_jcQ0EjoaF0zP4zZ_pad-11"/><rect x="-750" y="-450" width="1500" height="900" id="Yzeo_jcQ0EjoaF0zP4zZ_pad-12"/><rect x="-450" y="-750" width="900" height="1500" id="Yzeo_jcQ0EjoaF0zP4zZ_pad-13"/><rect x="-525" y="-525" width="1050" height="1050" id="Yzeo_jcQ0EjoaF0zP4zZ_pad-14"/></defs><g transform="translate(0,-198745) scale(1,-1)" fill="currentColor" stroke="currentColor"><use xlink:href="#Yzeo_jcQ0EjoaF0zP4zZ_pad-10" x="162050" y="-77835"/><use xlink:href="#Yzeo_jcQ0EjoaF0zP4zZ_pad-10" x="162050" y="-76285"/><use xlink:href="#Yzeo_jcQ0EjoaF0zP4zZ_pad-11" x="168454" y="-122410"/><use xlink:href="#Yzeo_jcQ0EjoaF0zP4zZ_pad-11" x="165444" y="-119880"/><use xlink:href="#Yzeo_jcQ0EjoaF0zP4zZ_pad-11" x="168454" y="-117330"/><use xlink:href="#Yzeo_jcQ0EjoaF0zP4zZ_pad-11" x="165444" y="-114800"/><use xlink:href="#Yzeo_jcQ0EjoaF0zP4zZ_pad-11" x="168454" y="-112250"/><use xlink:href="#Yzeo_jcQ0EjoaF0zP4zZ_pad-12" x="160250" y="-76380"/><use xlink:href="#Yzeo_jcQ0EjoaF0zP4zZ_pad-12" x="160250" y="-77650"/><use xlink:href="#Yzeo_jcQ0EjoaF0zP4zZ_pad-12" x="160250" y="-78920"/><use xlink:href="#Yzeo_jcQ0EjoaF0zP4zZ_pad-12" x="160250" y="-80190"/><use xlink:href="#Yzeo_jcQ0EjoaF0zP4zZ_pad-12" x="160250" y="-81460"/><use xlink:href="#Yzeo_jcQ0EjoaF0zP4zZ_pad-12" x="160250" y="-82730"/><use xlink:href="#Yzeo_jcQ0EjoaF0zP4zZ_pad-12" x="160250" y="-84000"/><use xlink:href="#Yzeo_jcQ0EjoaF0zP4zZ_pad-12" x="160250" y="-85270"/><use xlink:href="#Yzeo_jcQ0EjoaF0zP4zZ_pad-12" x="160250" y="-86540"/><use xlink:href="#Yzeo_jcQ0EjoaF0zP4zZ_pad-12" x="160250" y="-87810"/><use xlink:href="#Yzeo_jcQ0EjoaF0zP4zZ_pad-12" x="160250" y="-89080"/><use xlink:href="#Yzeo_jcQ0EjoaF0zP4zZ_pad-12" x="160250" y="-90350"/><use xlink:href="#Yzeo_jcQ0EjoaF0zP4zZ_pad-12" x="160250" y="-91620"/><use xlink:href="#Yzeo_jcQ0EjoaF0zP4zZ_pad-12" x="160250" y="-92890"/><use xlink:href="#Yzeo_jcQ0EjoaF0zP4zZ_pad-13" x="157210" y="-94140"/><use xlink:href="#Yzeo_jcQ0EjoaF0zP4zZ_pad-13" x="155940" y="-94140"/><use xlink:href="#Yzeo_jcQ0EjoaF0zP4zZ_pad-13" x="154670" y="-94140"/><use xlink:href="#Yzeo_jcQ0EjoaF0zP4zZ_pad-13" x="153400" y="-94140"/><use xlink:href="#Yzeo_jcQ0EjoaF0zP4zZ_pad-13" x="152130" y="-94140"/><use xlink:href="#Yzeo_jcQ0EjoaF0zP4zZ_pad-13" x="150860" y="-94140"/><use xlink:href="#Yzeo_jcQ0EjoaF0zP4zZ_pad-13" x="149590" y="-94140"/><use xlink:href="#Yzeo_jcQ0EjoaF0zP4zZ_pad-13" x="148320" y="-94140"/><use xlink:href="#Yzeo_jcQ0EjoaF0zP4zZ_pad-13" x="147050" y="-94140"/><use xlink:href="#Yzeo_jcQ0EjoaF0zP4zZ_pad-13" x="145780" y="-94140"/><use xlink:href="#Yzeo_jcQ0EjoaF0zP4zZ_pad-12" x="142750" y="-92890"/><use xlink:href="#Yzeo_jcQ0EjoaF0zP4zZ_pad-12" x="142750" y="-91620"/><use xlink:href="#Yzeo_jcQ0EjoaF0zP4zZ_pad-12" x="142750" y="-90350"/><use xlink:href="#Yzeo_jcQ0EjoaF0zP4zZ_pad-12" x="142750" y="-89080"/><use xlink:href="#Yzeo_jcQ0EjoaF0zP4zZ_pad-12" x="142750" y="-87810"/><use xlink:href="#Yzeo_jcQ0EjoaF0zP4zZ_pad-12" x="142750" y="-86540"/><use xlink:href="#Yzeo_jcQ0EjoaF0zP4zZ_pad-12" x="142750" y="-85270"/><use xlink:href="#Yzeo_jcQ0EjoaF0zP4zZ_pad-12" x="142750" y="-84000"/><use xlink:href="#Yzeo_jcQ0EjoaF0zP4zZ_pad-12" x="142750" y="-82730"/><use xlink:href="#Yzeo_jcQ0EjoaF0zP4zZ_pad-12" x="142750" y="-81460"/><use xlink:href="#Yzeo_jcQ0EjoaF0zP4zZ_pad-12" x="142750" y="-80190"/><use xlink:href="#Yzeo_jcQ0EjoaF0zP4zZ_pad-12" x="142750" y="-78920"/><use xlink:href="#Yzeo_jcQ0EjoaF0zP4zZ_pad-12" x="142750" y="-77650"/><use xlink:href="#Yzeo_jcQ0EjoaF0zP4zZ_pad-12" x="142750" y="-76380"/><use xlink:href="#Yzeo_jcQ0EjoaF0zP4zZ_pad-14" x="153705" y="-85245"/><use xlink:href="#Yzeo_jcQ0EjoaF0zP4zZ_pad-14" x="153705" y="-83720"/><use xlink:href="#Yzeo_jcQ0EjoaF0zP4zZ_pad-14" x="153705" y="-82195"/><use xlink:href="#Yzeo_jcQ0EjoaF0zP4zZ_pad-14" x="152180" y="-85245"/><use xlink:href="#Yzeo_jcQ0EjoaF0zP4zZ_pad-14" x="152180" y="-83720"/><use xlink:href="#Yzeo_jcQ0EjoaF0zP4zZ_pad-14" x="152180" y="-82195"/><use xlink:href="#Yzeo_jcQ0EjoaF0zP4zZ_pad-14" x="150655" y="-85245"/><use xlink:href="#Yzeo_jcQ0EjoaF0zP4zZ_pad-14" x="150655" y="-83720"/><use xlink:href="#Yzeo_jcQ0EjoaF0zP4zZ_pad-14" x="150655" y="-82195"/></g></svg>